<svg width="24px" height="24px" viewBox="0 0 24 20" version="1.1" xmlns="http://www.w3.org/2000/svg" xmlns:xlink="http://www.w3.org/1999/xlink">
    <g id="24-markers-grouped" transform="translate(0.908117, 0.000078)">
        <path d="M9.09188309,18.8999221 L14.0418831,13.9499221 C16.7753479,11.2161783 16.7751972,6.78415329 14.0415464,4.05059549 C11.3078956,1.31703769 6.87587059,1.31703769 4.1422198,4.05059549 C1.40856902,6.78415329 1.40841827,11.2161783 4.14188309,13.9499221 L9.09188309,18.8999221 Z M9.09188309,21.7279221 L2.72788309,15.3639221 C-0.786803866,11.8491921 -0.786780603,6.15072729 2.72793505,2.63602598 C6.24265071,-0.878675327 11.9411155,-0.878675327 15.4558311,2.63602598 C18.9705468,6.15072729 18.97057,11.8491921 15.4558831,15.3639221 L9.09188309,21.7279221 L9.09188309,21.7279221 Z M9.09188309,10.9999221 C10.1964526,10.9999221 11.0918831,10.1044916 11.0918831,8.99992206 C11.0918831,7.89535256 10.1964526,6.99992206 9.09188309,6.99992206 C7.98731359,6.99992206 7.09188309,7.89535256 7.09188309,8.99992206 C7.09188309,10.1044916 7.98731359,10.9999221 9.09188309,10.9999221 Z M9.09188309,12.9999221 C6.88274409,12.9999221 5.09188309,11.2090611 5.09188309,8.99992206 C5.09188309,6.79078306 6.88274409,4.99992206 9.09188309,4.99992206 C11.3010221,4.99992206 13.0918831,6.79078306 13.0918831,8.99992206 C13.0918831,11.2090611 11.3010221,12.9999221 9.09188309,12.9999221 Z"></path>
        <rect transform="translate(9.192388, 9.514641) rotate(-45.000000) translate(-9.192388, -9.514641) " x="8.19238816" y="-2.48535931" width="2" height="24"></rect>
    </g>
</svg>
