<svg xmlns="http://www.w3.org/2000/svg" width="24" height="24">
    <g fill="none" stroke="#000" stroke-linejoin="round" stroke-miterlimit="10">
        <path d="M.5 14.5h4v8h-4z"/>
        <path stroke-linecap="round" d="M4.5 21c10.729 3.577 6.771 3.613 19-2.5-1.062-1.062-1.903-1.313-3-1l-4.434 1.471"/>
        <path stroke-linecap="round" d="M4.5 15.5h3c2.353 0 4 1.5 4.5 2h3c1.593 0 1.593 2 0 2H9.5m-2.649-7.404a8.001 8.001 0 1111.241 3.281"/>
        <path stroke-linecap="round" d="M19.913 3.112s-.348 1.911-1.739 2.606c-1.391-.348-2.782.694-2.435.694.348 0 .695 1.392.695 1.392.349.348 1.044 0 1.044 0 .869.869-1.392 2.436-1.392 2.783s.87.521.347 1.044c-.521.521-1.042.694-1.042.694 0 1.739-1.74 1.739-2.087 1.739-.348 0-1.044-1.392-1.044-1.739s.349-.694.349-1.043c0-.348-.696-1.043-.696-1.043 0-1.392-1.043-1.044-2.087-1.044-1.043 0-1.043-1.392-1.043-1.392s0-2.434 1.739-2.781c1.738-.35 1.738.348 1.738.348.697.694 2.087 0 2.783 0 0 0 .348-2.436-.348-2.088-.695.35-1.319.079-1.39-.694C13.203 1.5 16.34.849 16.34.849"/>
    </g>
    <path fill="none" d="M0 0h24v24H0z"/>
</svg>
