<svg version="1.1" xmlns="http://www.w3.org/2000/svg" xmlns:xlink="http://www.w3.org/1999/xlink" x="0px" y="0px" width="100%"
	 height="100%" viewBox="0 0 24 24" xml:space="preserve">
   <path d="M12,10.962c0.207,0 0.375,0.168 0.375,0.375"/>
   <path d="M11.625,11.337c0,-0.207 0.168,-0.375 0.375,-0.375"/>
   <path d="M12,11.712c-0.207,0 -0.375,-0.168 -0.375,-0.375"/>
   <path d="M12.375,11.337c0,0.207 -0.168,0.375 -0.375,0.375"/>
   <path d="M12,6.837c2.485,0 4.5,2.015 4.5,4.5c0,1.921 -2.688,5.576 -3.909,7.138c-0.255,0.326 -0.726,0.384 -1.053,0.129c-0.048,-0.038 -0.092,-0.081 -0.129,-0.129c-1.221,-1.561 -3.909,-5.217 -3.909,-7.138c0,-2.485 2.015,-4.5 4.5,-4.5Z"/>
   <circle cx="12" cy="12" r="11.5"/>
   </svg>