<svg xmlns="http://www.w3.org/2000/svg" viewBox="0 0 24 24">
    <path d="M7.3 7.925c.207 0 .375.168.375.375M6.925 8.3c0-.207.168-.375.375-.375M7.3 8.675a.375.375 0 0 1-.375-.375M7.675 8.3a.375.375 0 0 1-.375.375"/>
    <path d="M7.3 3.8a4.5 4.5 0 0 1 4.5 4.5c0 1.921-2.688 5.576-3.909 7.138a.75.75 0 0 1-1.182 0C5.488 13.877 2.8 10.221 2.8 8.3a4.5 4.5 0 0 1 4.5-4.5zM16.8 12.425c.207 0 .375.168.375.375M16.425 12.8c0-.207.168-.375.375-.375M16.8 13.176a.375.375 0 0 1-.375-.375M17.175 12.8a.375.375 0 0 1-.375.375"/>
    <path d="M16.8 8.3a4.5 4.5 0 0 1 4.5 4.5c0 1.921-2.688 5.576-3.909 7.138a.75.75 0 0 1-1.182 0C14.988 18.376 12.3 14.721 12.3 12.8a4.5 4.5 0 0 1 4.5-4.5z"/>
</svg>
