<svg version="1.1" xmlns="http://www.w3.org/2000/svg" xmlns:xlink="http://www.w3.org/1999/xlink" x="0px" y="0px" width="100%"
	 height="100%" viewBox="0 0 24 24" xml:space="preserve">
   <path d="M7.3,7.925c0.207,0 0.375,0.168 0.375,0.375"/>
   <path d="M6.925,8.3c0,-0.207 0.168,-0.375 0.375,-0.375"/>
   <path d="M7.3,8.675c-0.207,0 -0.375,-0.168 -0.375,-0.375"/>
   <path d="M7.675,8.3c0,0.207 -0.168,0.375 -0.375,0.375"/>
   <path d="M7.3,3.8c2.485,0 4.5,2.015 4.5,4.5c0,1.921 -2.688,5.576 -3.909,7.138c-0.255,0.326 -0.726,0.384 -1.053,0.129c-0.048,-0.038 -0.092,-0.081 -0.129,-0.129c-1.221,-1.561 -3.909,-5.217 -3.909,-7.138c0,-2.485 2.015,-4.5 4.5,-4.5Z"/>
   <path d="M16.8,12.425c0.207,0 0.375,0.168 0.375,0.375"/>
   <path d="M16.425,12.8c0,-0.207 0.168,-0.375 0.375,-0.375"/>
   <path d="M16.8,13.176c-0.207,0 -0.375,-0.168 -0.375,-0.375"/>
   <path d="M17.175,12.8c0,0.207 -0.168,0.375 -0.375,0.375"/>
   <path d="M16.8,8.3c2.485,0 4.5,2.015 4.5,4.5c0,1.921 -2.688,5.576 -3.909,7.138c-0.255,0.326 -0.726,0.384 -1.053,0.129c-0.048,-0.038 -0.092,-0.081 -0.129,-0.129c-1.221,-1.562 -3.909,-5.217 -3.909,-7.138c0,-2.485 2.015,-4.5 4.5,-4.5Z"/>
   </svg>