<svg xmlns="http://www.w3.org/2000/svg" viewBox="0 0 24 24">
    <path d="M7.3 7.925c.207 0 .375.168.375.375m-.75 0c0-.207.168-.375.375-.375m0 .75a.375.375 0 01-.375-.375m.75 0a.375.375 0 01-.375.375"/>
    <path d="M7.3 3.8a4.5 4.5 0 014.5 4.5c0 1.921-2.688 5.576-3.909 7.138a.75.75 0 01-1.182 0C5.488 13.877 2.8 10.221 2.8 8.3a4.5 4.5 0 014.5-4.5zm9.5 8.625c.207 0 .375.168.375.375m-.75 0c0-.207.168-.375.375-.375m0 .751a.375.375 0 01-.375-.375m.75-.001a.375.375 0 01-.375.375"/>
    <path d="M16.8 8.3a4.5 4.5 0 014.5 4.5c0 1.921-2.688 5.576-3.909 7.138a.75.75 0 01-1.182 0C14.988 18.376 12.3 14.721 12.3 12.8a4.5 4.5 0 014.5-4.5z"/>
</svg>
