<svg version="1.1" xmlns="http://www.w3.org/2000/svg" xmlns:xlink="http://www.w3.org/1999/xlink" x="0px" y="0px" width="100%"
	 height="100%" viewBox="0 0 24 24" xml:space="preserve">
		<g>
			<circle cx="6.25" cy="4" r="3.5"/>
			<path d="M11.75,9.5h-11
				c0,4.069,1.64,6.442,3.5,7.5v6.5h4V17C10.108,15.942,11.75,13.569,11.75,9.5z"/>
			<g>
				<polygon points="6.75,9.5 5.75,9.5 5.25,15.5 
					6.25,16.5 7.25,15.5 6.75,9.5 				"/>
			</g>
			<path d="M12.352,2.938
				C13.4,2.042,14.762,1.5,16.25,1.5c3.313,0,6,2.687,6,6s-2.687,6-6,6c-0.835,0-1.631-0.171-2.354-0.479"/>
			<polyline points="
				23.25,0.5 16.362,9.675 13.7,7.013 			"/>
		</g>
</svg>
