<svg version="1.1" xmlns="http://www.w3.org/2000/svg" xmlns:xlink="http://www.w3.org/1999/xlink" x="0px" y="0px" width="100%"
	 height="100%" viewBox="0 0 24 24" xml:space="preserve">
		<g>
			<g>
				<path d="M15.897,20.117l1-1.732l-1-0.577
					c0.137-0.579,0.136-1.038,0-1.614l0.999-0.576l-1-1.732l-0.999,0.576c-0.392-0.369-0.868-0.64-1.397-0.799V12.5h-2v1.162
					c-0.529,0.159-1.006,0.43-1.397,0.799l-0.999-0.576l-1,1.732l0.999,0.576c-0.136,0.576-0.137,1.035,0,1.614l-1,0.577l1,1.732
					l1-0.578c0.392,0.369,0.869,0.64,1.397,0.799V21.5h2v-1.162c0.528-0.159,1.006-0.43,1.396-0.799L15.897,20.117z"/>
				<circle cx="12.5" cy="17" r="1.5"/>
			</g>
			<g>
				<path d="M19.196,16.391
					c0,0,4.304-0.561,4.304-4.782c0-2.677-2.207-4.876-4.954-4.774C17.473,4.568,15.173,3,12.5,3C8.938,3,6.032,5.783,5.825,9.294
					C3.593,8.827,1.5,10.526,1.5,12.803c0,2.992,2.579,3.49,3.502,3.572"/>
			</g>
		</g>
</svg>
