<svg xmlns="http://www.w3.org/2000/svg" viewBox="0 0 24 24">
    <path d="M15.897 20.117l1-1.732-1-.577a3.232 3.232 0 000-1.614l.999-.576-1-1.732-.999.576a3.496 3.496 0 00-1.397-.799V12.5h-2v1.162a3.49 3.49 0 00-1.397.799l-.999-.576-1 1.732.999.576a3.232 3.232 0 000 1.614l-1 .577 1 1.732 1-.578c.392.369.869.64 1.397.799V21.5h2v-1.162a3.485 3.485 0 001.396-.799l1.001.578z"/>
    <circle cx="12.5" cy="17" r="1.5"/>
    <path d="M19.196 16.391s4.304-.561 4.304-4.782a4.77 4.77 0 00-4.954-4.774A6.684 6.684 0 005.825 9.294 3.586 3.586 0 001.5 12.803c0 2.992 2.579 3.49 3.502 3.572"/>
</svg>
