<?xml version="1.0" encoding="utf-8"?>
<!-- Generator: Adobe Illustrator 16.0.3, SVG Export Plug-In . SVG Version: 6.00 Build 0)  -->
<!DOCTYPE svg PUBLIC "-//W3C//DTD SVG 1.1//EN" "http://www.w3.org/Graphics/SVG/1.1/DTD/svg11.dtd">
<svg version="1.1" xmlns="http://www.w3.org/2000/svg" xmlns:xlink="http://www.w3.org/1999/xlink" x="0px" y="0px" width="24px"
	 height="24px" viewBox="0 0 24 24" enable-background="new 0 0 24 24" xml:space="preserve">
<g id="Outline_Icons">
	<g>
		<rect x="0.5" y="14.5" fill="none" stroke="#000000" stroke-linejoin="round" stroke-miterlimit="10" width="4" height="8"/>
		<path fill="none" stroke="#000000" stroke-linecap="round" stroke-linejoin="round" stroke-miterlimit="10" d="M4.5,21
			c10.729,3.577,6.771,3.613,19-2.5c-1.062-1.062-1.903-1.313-3-1l-4.434,1.471"/>
		<path fill="none" stroke="#000000" stroke-linecap="round" stroke-linejoin="round" stroke-miterlimit="10" d="M4.5,15.5h3
			c2.353,0,4,1.5,4.5,2c0,0,1.5,0,3,0c1.593,0,1.593,2,0,2H9.5"/>
		<path fill="none" stroke="#000000" stroke-linecap="round" stroke-linejoin="round" stroke-miterlimit="10" d="M6.851,12.096
			C6.307,11.015,6,9.793,6,8.5c0-4.417,3.582-8,8-8c4.417,0,8,3.583,8,8c0,2.924-1.568,5.48-3.908,6.877"/>
		<path fill="none" stroke="#000000" stroke-linecap="round" stroke-linejoin="round" stroke-miterlimit="10" d="M19.913,3.112
			c0,0-0.348,1.911-1.739,2.606c-1.391-0.348-2.782,0.694-2.435,0.694c0.348,0,0.695,1.392,0.695,1.392c0.349,0.348,1.044,0,1.044,0
			c0.869,0.869-1.392,2.436-1.392,2.783s0.87,0.521,0.347,1.044c-0.521,0.521-1.042,0.694-1.042,0.694
			c0,1.739-1.74,1.739-2.087,1.739c-0.348,0-1.044-1.392-1.044-1.739s0.349-0.694,0.349-1.043c0-0.348-0.696-1.043-0.696-1.043
			c0-1.392-1.043-1.044-2.087-1.044c-1.043,0-1.043-1.392-1.043-1.392s0-2.434,1.739-2.781c1.738-0.35,1.738,0.348,1.738,0.348
			c0.697,0.694,2.087,0,2.783,0c0,0,0.348-2.436-0.348-2.088C14,3.632,13.376,3.361,13.305,2.588
			c-0.102-1.088,3.035-1.739,3.035-1.739"/>
	</g>
</g>
<g id="invisible_shape">
	<rect fill="none" width="24" height="24"/>
</g>
</svg>
