<svg version="1.1" xmlns="http://www.w3.org/2000/svg" xmlns:xlink="http://www.w3.org/1999/xlink" x="0px" y="0px" width="100%"
	 height="100%" viewBox="0 0 24 24" xml:space="preserve">
		<path d="M23.5,11.957
			c0,6.375-5.163,11.544-11.532,11.544C5.599,23.5,0.5,18.125,0.5,11.75c0-6.208,4.87-10.992,11.005-11.239
			c0.166-0.007,0.332-0.011,0.5-0.011C18.374,0.5,23.5,5.582,23.5,11.957z"/>
		<path d="M11.505,0.511c-6,6.5-6,14.98,0,22.98"/>
		<path d="M12.505,0.511c6,6.5,6,14.977,0,22.977"/>
		<line x1="2.386" y1="5.5" x2="21.521" y2="5.5"/>
		<line x1="0.503" y1="11.5" x2="23.5" y2="11.5"/>
		<line x1="1.985" y1="17.5" x2="22.085" y2="17.5"/>
</svg>
