<svg version="1.1" xmlns="http://www.w3.org/2000/svg" xmlns:xlink="http://www.w3.org/1999/xlink" x="0px" y="0px" width="100%"
	 height="100%" viewBox="0 0 24 24" xml:space="preserve">
		<g>
			<g>
				<path d="M18.5,6.976
					c0,3.604-2.918,6.524-6.518,6.524S5.5,10.462,5.5,6.858c0-3.509,2.753-6.213,6.221-6.353C11.814,0.502,11.908,0.5,12.003,0.5
					C15.603,0.5,18.5,3.372,18.5,6.976z"/>
				<path d="M11.721,0.506
					c-3.392,3.674-3.392,8.467,0,12.989"/>
				<path d="M12.285,0.506
					c3.392,3.674,3.392,8.466,0,12.987"/>
				
					<line x1="6.574" y1="10.5" x2="17.468" y2="10.5"/>
				<line x1="6.453" y1="3.5" x2="17.496" y2="3.5"/>
				<line x1="5.5" y1="7" x2="18.5" y2="7"/>
			</g>
			
				<circle cx="4.5" cy="17.015" r="2.5"/>
			
				<circle cx="12" cy="17.015" r="2.5"/>
			
				<circle cx="19.5" cy="17.015" r="2.5"/>
			<path d="M19.5,19.507
				c-1.733,0-3.194,1.112-3.75,2.654c-0.556-1.542-2.017-2.648-3.75-2.648s-3.194,1.109-3.75,2.65
				c-0.556-1.541-2.017-2.656-3.75-2.656c-2.21,0-4,1.993-4,3.993h23C23.5,21.5,21.71,19.507,19.5,19.507z"/>
		</g>
</svg>
