<svg version="1.1" xmlns="http://www.w3.org/2000/svg" xmlns:xlink="http://www.w3.org/1999/xlink" x="0px" y="0px" width="100%"
	 height="100%" viewBox="0 0 24 24" xml:space="preserve">
		<g>
			<g>
				<path d="M23.5,18.5
					c0,1.104-0.895,2-2,2h-19c-1.105,0-2-0.896-2-2v-14c0-1.104,0.895-2,2-2h19c1.105,0,2,0.896,2,2V18.5z"/>
				
					<line x1="0.5" y1="7.5" x2="23.5" y2="7.5"/>
				
					<circle cx="4" cy="5" r="0.5"/>
				
					<circle cx="7" cy="5" r="0.5"/>
				
					<circle cx="10" cy="5" r="0.5"/>
			</g>
			<g>
				
					<line x1="4" y1="17.5" x2="6" y2="17.5"/>
				
					<line x1="5.072" y1="13.5" x2="6.804" y2="14.5"/>
				
					<line x1="8" y1="10.571" x2="9" y2="12.303"/>
				
					<line x1="12" y1="9.499" x2="12" y2="11.498"/>
				
					<line x1="18.93" y1="13.498" x2="17.198" y2="14.497"/>
				
					<line x1="20.002" y1="17.498" x2="18.003" y2="17.498"/>
				<polygon points="16,10.5 
					10.5,16 10.5,18.5 13,18 				"/>
			</g>
		</g>
</svg>
