<svg version="1.1" xmlns="http://www.w3.org/2000/svg" xmlns:xlink="http://www.w3.org/1999/xlink" x="0" y="0" viewBox="0 0 141.73 141.73" xml:space="preserve">
    <style>
        .st0{fill:#fff}.st1{fill:#556f7b}.st2{opacity:.55}
    </style>
    <path class="st0" d="M141.38 70.87c0 38.94-31.57 70.52-70.52 70.52S.35 109.81.35 70.87 31.92.35 70.87.35s70.51 31.57 70.51 70.52"/>
    <path class="st1" d="M70.87 141.73C31.79 141.73 0 109.94 0 70.87 0 31.79 31.79 0 70.87 0s70.87 31.79 70.87 70.87c-.01 39.07-31.8 70.86-70.87 70.86M70.87.7C32.18.7.7 32.18.7 70.87s31.48 70.17 70.17 70.17 70.17-31.48 70.17-70.17C141.03 32.18 109.56.7 70.87.7"/>
    <g class="st2">
        <defs>
            <path id="SVGID_1_" d="M20.04 19.92H121.7v101.65H20.04z"/>
        </defs>
        <clipPath id="SVGID_2_">
            <use xlink:href="#SVGID_1_" overflow="visible"/>
        </clipPath>
        <path d="M20.12 67.84C21.73 39.82 45.74 18.4 73.77 20c28.02 1.6 49.44 25.62 47.84 53.65s-25.62 49.44-53.65 47.84c-28.02-1.61-49.44-25.62-47.84-53.65" clip-path="url(#SVGID_2_)" fill-rule="evenodd" clip-rule="evenodd" fill="#159bd8"/>
    </g>
    <g class="st2">
        <defs>
            <path id="SVGID_3_" d="M20.04 29.22h51.03v87.68H20.04z"/>
        </defs>
        <clipPath id="SVGID_4_">
            <use xlink:href="#SVGID_3_" overflow="visible"/>
        </clipPath>
        <path d="M41.56 29.22c18.39 8.5 30.66 27.61 29.43 49.06-.92 16.09-9.23 29.99-21.43 38.62-18.4-8.5-30.66-27.6-29.44-49.06.92-16.08 9.23-29.99 21.44-38.62" clip-path="url(#SVGID_4_)" fill-rule="evenodd" clip-rule="evenodd" fill="#16428f"/>
    </g>
    <g class="st2">
        <defs>
            <path id="SVGID_5_" d="M78.95 28.35h42.75v82.78H78.95z"/>
        </defs>
        <clipPath id="SVGID_6_">
            <use xlink:href="#SVGID_5_" overflow="visible"/>
        </clipPath>
        <path d="M79.03 65.84c.88-15.39 8.53-28.79 19.88-37.48 14.57 9.66 23.76 26.58 22.69 45.29-.88 15.4-8.53 28.79-19.89 37.48-14.55-9.66-23.75-26.58-22.68-45.29" clip-path="url(#SVGID_6_)" fill-rule="evenodd" clip-rule="evenodd" fill="#048d42"/>
    </g>
    <g class="st2">
        <defs>
            <path id="SVGID_7_" d="M26.65 19.92h59.03v27.95H26.65z"/>
        </defs>
        <clipPath id="SVGID_8_">
            <use xlink:href="#SVGID_7_" overflow="visible"/>
        </clipPath>
        <path d="M85.68 22.12C76.43 38.4 58.51 48.93 38.56 47.79c-4.13-.24-8.12-.96-11.91-2.12C35.89 29.39 53.81 18.86 73.77 20c4.13.24 8.12.97 11.91 2.12" clip-path="url(#SVGID_8_)" fill-rule="evenodd" clip-rule="evenodd" fill="#83bc45"/>
    </g>
    <g class="st2">
        <defs>
            <path id="SVGID_9_" d="M29.55 70.74h87.51v50.83H29.55z"/>
        </defs>
        <clipPath id="SVGID_10_">
            <use xlink:href="#SVGID_9_" overflow="visible"/>
        </clipPath>
        <path d="M29.55 100.34C38.03 81.9 57.16 69.6 78.64 70.83c15.96.91 29.77 9.1 38.42 21.15-8.48 18.43-27.61 30.74-49.1 29.51-15.96-.91-29.77-9.1-38.41-21.15" clip-path="url(#SVGID_10_)" fill-rule="evenodd" clip-rule="evenodd" fill="#0a67b1"/>
    </g>
    <g class="st2">
        <defs>
            <path id="SVGID_11_" d="M64.89 19.92h56.52v45.77H64.89z"/>
        </defs>
        <clipPath id="SVGID_12_">
            <use xlink:href="#SVGID_11_" overflow="visible"/>
        </clipPath>
        <path d="M121.41 65.34c-2.9.34-5.87.44-8.88.26-25.21-1.44-45.07-21.02-47.64-45.34 2.9-.34 5.86-.43 8.88-.26 25.21 1.45 45.07 21.02 47.64 45.34" clip-path="url(#SVGID_12_)" fill-rule="evenodd" clip-rule="evenodd" fill="#d5da2c"/>
    </g>
    <g class="st2">
        <defs>
            <path id="SVGID_13_" d="M26.65 19.92h82.43v43.04H26.65z"/>
        </defs>
        <clipPath id="SVGID_14_">
            <use xlink:href="#SVGID_13_" overflow="visible"/>
        </clipPath>
        <path d="M109.08 37.24c-8.69 15.89-26.78 26.54-47.12 25.67-14.18-.61-26.64-7.35-35.31-17.24C35.89 29.39 53.81 18.86 73.77 20c14.16.81 26.64 7.35 35.31 17.24z" clip-path="url(#SVGID_14_)" fill-rule="evenodd" clip-rule="evenodd" fill="#03a14f"/>
    </g>
    <g class="st2">
        <defs>
            <path id="SVGID_15_" d="M20.04 29.22h23.39v55.25H20.04z"/>
        </defs>
        <clipPath id="SVGID_16_">
            <use xlink:href="#SVGID_15_" overflow="visible"/>
        </clipPath>
        <path d="M41.55 29.23a50.69 50.69 0 0 1 1.79 16.63c-.92 16.08-9.23 29.99-21.43 38.62a50.69 50.69 0 0 1-1.79-16.63c.92-16.09 9.23-30 21.43-38.62" clip-path="url(#SVGID_16_)" fill-rule="evenodd" clip-rule="evenodd" fill="#3dac48"/>
    </g>
    <g class="st2">
        <defs>
            <path id="SVGID_17_" d="M69.15 70.39h52.54v51.18H69.15z"/>
        </defs>
        <clipPath id="SVGID_18_">
            <use xlink:href="#SVGID_17_" overflow="visible"/>
        </clipPath>
        <path d="M69.23 118.32c1.58-27.63 24.94-48.83 52.46-47.89 0 1.07-.02 2.14-.08 3.23-1.58 27.63-24.94 48.83-52.46 47.89 0-1.08.02-2.15.08-3.23" clip-path="url(#SVGID_18_)" fill-rule="evenodd" clip-rule="evenodd" fill="#1173ba"/>
    </g>
    <g class="st2">
        <defs>
            <path id="SVGID_19_" d="M20.05 70.67h61.24v50.9H20.05z"/>
        </defs>
        <clipPath id="SVGID_20_">
            <use xlink:href="#SVGID_19_" overflow="visible"/>
        </clipPath>
        <path d="M20.05 71.74c4.28-.89 8.75-1.25 13.33-.99 26.72 1.53 47.43 23.43 47.91 49.75-4.28.89-8.75 1.25-13.32.99-26.72-1.53-47.43-23.43-47.92-49.75" clip-path="url(#SVGID_20_)" fill-rule="evenodd" clip-rule="evenodd" fill="#088ccd"/>
    </g>
    <g opacity=".35">
        <defs>
            <path id="SVGID_21_" d="M50.67 33.57h70.47v85.77H50.67z"/>
        </defs>
        <clipPath id="SVGID_22_">
            <use xlink:href="#SVGID_21_" overflow="visible"/>
        </clipPath>
    </g>
    <path class="st0" d="M70.83 121.81c15.86 0 30.02-7.26 39.34-18.64l-1.47-1.87s3.34-.51-.52-2.66c-3.86-2.15-3.86-2.25-4.73-2.86-.87-.61-3.11-.96-3.3-1.26-.19-.3 1.99-1.22-.34-1.97-2.33-.74-4.76-1.68-4.76-1.68s1.22-1.93-.23-2.65-2.92-.86-3.22-.67c-.3.19-.86-.81-1.34-1.31-.48-.5-1.75-.73-2.33-.64-.53.07-4.11-.08-4.92-.41.02.18.03.29.03.29l-.19-.4c.02.04.07.07.16.11-.11-1.13-.52-5.25-.5-6.09.02-.98.42-1.26.42-1.26s5.57.53 5.18-3.5c0 0-.55-1.48-.33-2.55 0 0 1-.56.27-1.44 0 0 .65-.5.3-1.88 0 0-.18-.59.03-1.17 0 0 2.14-.18 1.41-1.63-.48-.95-.57-.7-.75-1.29-.18-.59-1.02-2.28-1.2-3.06-.18-.79 1.03-2.23 1.05-2.91.02-.68-.83-2.27-1.01-2.96-.18-.69-1.02-2.47-1.18-3.65-.17-1.18-.7-3.35-1.08-3.75-.38-.4-.94-1.39-1.12-2.08-.18-.69-1.22-1.99-1.51-2.29-.29-.3-2.49-2.12-4.73-2.76-2.24-.64-2.82-.95-4.18-1.08-1.37-.13-2.15.04-2.05-.34.11-.39 1.38-.26 2.74-.03.39.06 1.73.66 3.34-.21 1.39-.75 2.63-3.36-1.3-6.79-3.93-3.43-8.88-1.1-9.97-.54-1.09.56 0-.1-2.67 1.21s-6.58 4.93-7.45 8.53c-.87 3.6-.09 3.62-.01 4.6.07.98-.15 2.15-1.06 3.5-.92 1.35-2.41 2.29-1.27 4.08 1.13 1.79.33 2.46-.18 3.33-.51.87-1.14 2.62.1 3.72 1.25 1.11 1.04 1.49 1.22 2.28.18.79.72 2.47 1 3.16s.07.98-.05 2.15c-.13 1.17-.91 1.35-1.03 2.23-.12.88-.01.59.88.12s-.71 1.16-.73 1.94c-.02.78.78.12.78.12s.06 1.47-.53 1.75c-.59.28.97.32 1.11-1.34.14-1.66 1.04 1.69-1.06 3.21-2.09 1.52 1.38-.46 1.38-.46l-.52 1.07s1.87-.35.38.69c-1.49 1.04-2.07.73-2.07.73s-2.11 2.1.05 2.06c2.15-.05.97.51 1.44 1.21s1.92 1.71 2.69 2.02c.78.31 5.02.56 5.02.56l-.42.91s-6.3-.04-8.56.4c-2.26.43-3.66 1.67-3.69 2.55s.06 1.37-.82 1.55c-.89.17-4.01 0-5.02 1.25-1.01 1.25-1.31 1.63-2.2 1.71-.88.08-2.08.83-2.19 1.61-.12.78-.24 1.95-1.25 2.91-1 .95-3.95 1.27-4.49 3.41-.45 1.77-.3 3.83-.89 6.02 9.17 9.32 21.96 15.09 36.1 15.09"/>
    <path class="st1" d="M27.8 108.32l-1.44.42-.09-.12.64-1.35-1.26 1.06-.1-.12 1.53-1.29.1.12-.73 1.53 1.62-.48.1.12-1.53 1.29-.1-.12z"/>
    <path transform="rotate(-42.862 28.242 109.779)" class="st1" d="M27.25 109.7h2v.15h-2z"/>
    <path class="st1" d="M29.74 110.3l-1.24 1.21-.11-.1 1.43-1.4.1.1-.42 2.04 1.23-1.21.11.11-1.43 1.4-.11-.11zM31.67 111.85l.11.11-1.38 1.44-.11-.1zM31.64 114.57c-.22-.2-.31-.38-.32-.64l.15-.01c.01.25.09.39.26.56.24.21.48.23.66.04.08-.09.12-.18.11-.28-.02-.1-.03-.14-.14-.27l-.15-.18a.712.712 0 0 1-.17-.35c-.02-.13.03-.26.13-.38.22-.25.54-.25.83.01.18.17.26.32.28.55l-.14.01a.601.601 0 0 0-.24-.46c-.22-.19-.45-.19-.62 0a.31.31 0 0 0-.1.26c.01.09.07.2.14.29l.14.17c.12.14.16.23.18.34.02.14-.02.29-.13.4-.23.24-.56.22-.87-.06M33.37 116.05l-.12-.1 1.2-1.43-.46-.38.09-.1 1.03.86-.09.1-.46-.38zM35.82 115.46l.96.74-.08.11-.84-.65-.48.62.72.55-.08.11-.72-.55-.49.64.84.65-.08.11-.96-.74 1.21-1.59zm.56-.33l.15.11-.04.49-.13-.1.02-.5zM37.53 118.08l-.45-.32-.53.75-.12-.09 1.16-1.63.62.44c.27.19.36.49.16.77-.17.25-.43.3-.69.17l-.14 1.03-.14-.1.13-1.02zm.57-.75l-.48-.34-.47.66.48.34c.21.15.43.15.59-.07.17-.23.09-.44-.12-.59M39.53 118.15l1.02.66-.08.11-.89-.58-.43.66.76.5-.07.11-.76-.49-.44.67.89.58-.07.11-1.02-.66zM42.59 122.13c-.16.05-.34.02-.53-.09l-.58-.33.98-1.74.59.33c.18.1.3.24.35.4.08.28-.09.55-.22.78-.13.24-.31.57-.59.65m.66-1.38c-.04-.16-.16-.27-.3-.35l-.42-.24-.85 1.51.42.24c.14.08.29.13.45.08.22-.07.38-.38.49-.57.12-.2.27-.45.21-.67M44.58 121.13l1.08.56-.06.12-.94-.49-.36.71.8.41-.06.12-.8-.41-.37.72.95.48-.06.12-1.09-.55zM47.7 122.65l.14.06-.75 1.71.98.43-.06.12-1.11-.49zM50.03 125.26l-.87-.34-.34.39-.15-.06 1.42-1.59.13.05-.05 2.13-.15-.06.01-.52zm-.77-.45l.78.31.04-1.25-.82.94zM52.79 126.74l-.14-.04.57-1.78-.56-.18.04-.13 1.28.41-.04.13-.57-.18zM55.24 126.52l-.53-.15-.25.89-.15-.04.54-1.92.73.21c.31.09.5.34.4.67-.08.29-.31.42-.59.39l.21 1.02-.17-.05-.19-1.02zm.29-.9l-.57-.16-.22.78.57.16c.25.07.46 0 .53-.27.08-.27-.06-.44-.31-.51M57.77 127.62l-.91-.22-.28.43-.16-.04 1.18-1.77.13.03.25 2.12-.16-.04-.05-.51zm-.83-.34l.81.19-.13-1.24-.68 1.05zM59.41 126.69l-.34 1.71-.14-.03.38-1.97.15.03.8 1.93.33-1.71.15.03-.38 1.97-.15-.03zM62.04 128.94c-.29-.04-.47-.15-.62-.36l.12-.09c.15.2.29.28.53.32.31.05.53-.07.57-.33.02-.12 0-.22-.07-.29-.07-.07-.11-.1-.27-.15l-.22-.07a.601.601 0 0 1-.33-.2c-.09-.1-.12-.23-.1-.39.05-.33.31-.51.69-.45.24.04.39.13.54.3l-.11.08a.651.651 0 0 0-.45-.26c-.29-.04-.48.09-.52.34-.02.11 0 .2.06.27a.7.7 0 0 0 .28.17l.21.07c.18.05.26.1.33.18.09.1.14.25.11.41-.05.34-.33.51-.75.45"/>
    <path transform="rotate(-83.2 63.967 128.167)" class="st1" d="M62.97 128.09h2v.15h-2z"/>
    <path class="st1" d="M65.66 129.35l-.15-.01.16-1.86-.6-.05.02-.14 1.34.12-.01.13-.6-.05zM67.35 127.47l.15.01-.12 2-.15-.01zM69.7 129.38c-.14.13-.31.2-.5.19s-.37-.08-.49-.22c-.18-.19-.18-.37-.16-.82.01-.45.02-.63.21-.8.14-.13.31-.2.51-.19.19 0 .37.08.49.22.18.19.18.36.16.82-.02.44-.03.62-.22.8m-.08-1.54c-.1-.1-.23-.16-.38-.16-.14 0-.28.05-.38.14-.15.14-.16.3-.17.72-.01.43 0 .58.14.73a.556.556 0 0 0 .76.02c.15-.14.16-.3.17-.72.01-.43 0-.58-.14-.73M71.15 127.84l.03 1.74h-.15l-.04-1.99.15-.01 1.19 1.71-.03-1.73h.15l.03 2h-.15zM74.85 127.45l1.21-.1.01.14-1.06.08.06.79.9-.07.01.13-.9.07.06.8 1.06-.08.01.13-1.21.1-.15-1.99zm.42-.23l.24-.43.19-.01-.26.43-.17.01zM77.87 129.18a.698.698 0 0 1-.52-.15c-.2-.16-.23-.34-.28-.78-.05-.45-.07-.63.09-.83.12-.15.28-.24.47-.26.36-.04.64.15.74.5l-.15.02c-.09-.27-.31-.42-.58-.38-.14.02-.27.08-.36.2-.13.16-.12.32-.07.74.05.43.08.58.24.7.11.09.25.13.39.11.27-.03.45-.22.47-.51l.15-.02c-.01.37-.24.62-.59.66M80.72 128.57c-.11.15-.27.25-.46.28a.714.714 0 0 1-.53-.12c-.21-.15-.24-.33-.31-.77-.07-.45-.1-.62.06-.83.11-.15.27-.25.46-.28.19-.03.38.01.53.12.21.15.24.33.31.77s.09.62-.06.83m-.36-1.5a.569.569 0 0 0-.4-.09c-.14.02-.27.1-.35.21-.12.16-.1.32-.04.74.07.42.1.58.27.69.12.08.26.12.4.09.14-.02.26-.1.35-.21.12-.16.11-.32.04-.74s-.11-.57-.27-.69M81.67 126.55l.15-.02.37 1.82 1.04-.21.02.13-1.18.24zM85.19 127.63c-.1.16-.25.27-.44.32a.65.65 0 0 1-.53-.08c-.22-.13-.27-.31-.37-.74-.11-.44-.14-.61-.01-.83a.722.722 0 0 1 .98-.24c.22.13.26.31.37.74.09.43.13.61 0 .83m-.48-1.47a.493.493 0 0 0-.41-.06c-.14.04-.26.12-.33.24-.11.17-.08.33.02.74s.15.57.32.67c.12.07.27.09.4.06.14-.03.26-.12.33-.24.11-.17.08-.33-.02-.74-.09-.41-.14-.57-.31-.67M87.54 126.96c-.09.18-.25.31-.44.37-.18.05-.38.03-.54-.06-.23-.13-.28-.3-.4-.73-.13-.43-.17-.6-.05-.83.09-.16.24-.28.42-.33.33-.1.66.05.82.37l-.15.04c-.13-.25-.38-.36-.64-.28-.14.04-.25.13-.32.25-.1.18-.07.33.05.74.12.41.17.56.35.66.13.07.27.08.41.04.15-.04.28-.15.35-.3.05-.13.05-.25.01-.42l-.05-.17-.52.15-.04-.13.66-.19.09.31c.07.2.07.35-.01.51M88.22 124.87l.15-.04.61 1.9-.15.05zM91.07 125.87c-.08.14-.21.24-.36.29a.72.72 0 0 1-.54-.02c-.23-.11-.3-.28-.45-.7-.15-.43-.21-.59-.1-.83.08-.17.22-.3.4-.36.18-.06.37-.05.54.03.23.11.3.28.45.7.14.39.2.57.12.77l.3.14-.06.13-.3-.15zm-.6-1.48a.53.53 0 0 0-.71.25c-.09.18-.04.34.1.74.14.4.21.55.39.63.13.06.27.07.41.02.12-.04.21-.12.28-.23l-.36-.17.06-.13.35.17c.04-.15-.01-.32-.13-.65-.14-.4-.21-.54-.39-.63M93.02 125.27c-.37.15-.74 0-.89-.36l-.51-1.25.14-.06.5 1.23c.13.31.4.43.7.31.3-.12.41-.4.29-.71l-.5-1.23.14-.06.51 1.25c.15.37-.01.73-.38.88M93.91 122.7l1.11-.5.05.12-.96.44.33.72.82-.38.06.12-.83.38.34.73.96-.44.06.12-1.1.51zM97.03 121.2l1.07-.57.06.12-.93.5.37.69.8-.42.06.12-.8.42.38.71.94-.5.06.12-1.07.57zM100.42 121.61l-.13.07-.94-1.61-.51.3-.07-.12 1.16-.68.07.12-.52.3zM103.32 119.82c-.25.16-.45.2-.7.15l.03-.15c.25.05.4.01.61-.12.26-.18.34-.41.2-.63-.07-.1-.15-.16-.25-.17-.1-.01-.15 0-.3.07l-.22.1c-.14.07-.26.09-.38.08-.14-.01-.25-.09-.34-.22-.19-.28-.11-.59.21-.8.21-.14.38-.17.6-.14l-.03.14a.635.635 0 0 0-.51.11c-.24.16-.3.39-.16.6.06.1.14.15.23.16.09.01.21-.02.32-.06l.2-.09c.17-.08.26-.1.37-.09.14.01.27.09.36.23.21.28.11.6-.24.83M105.54 118.02a.71.71 0 0 1-.81.59c-.25-.04-.36-.19-.63-.55-.27-.37-.37-.51-.32-.77a.71.71 0 0 1 .81-.59c.26.04.36.18.63.55.26.37.37.51.32.77m-.99-1.18a.529.529 0 0 0-.4.1c-.12.08-.19.21-.22.35-.03.2.05.33.3.68.25.35.35.47.55.5.14.02.28-.01.4-.1.12-.08.19-.21.22-.35.03-.2-.05-.34-.3-.68-.25-.35-.35-.47-.55-.5M105.47 115.8l.12-.09 1.15 1.46.84-.65.08.1-.95.75zM107.14 114.46l.12-.1 1.28 1.54-.11.09zM110.22 114.2c-.01.17-.1.33-.25.47l-.5.45-1.33-1.49.5-.45c.16-.14.32-.21.49-.2.29.02.49.26.67.46.18.2.43.47.42.76m-1.1-1.07c-.17-.01-.3.06-.42.17l-.36.32 1.15 1.29.36-.32c.12-.11.21-.24.22-.4.01-.23-.23-.48-.38-.65-.16-.17-.34-.39-.57-.41M111.67 112.4l-.67.65.21.47-.12.11-.86-1.95.1-.09 1.92.93-.12.11-.46-.23zm-.73.52l.6-.58-1.12-.56.52 1.14zM111.48 110.45l.11-.11 1.43 1.39-.1.11zM113.65 109.71l-.37.41.68.62-.1.11-1.48-1.35.51-.56c.22-.24.52-.3.78-.06.22.2.24.46.09.7l1.01.26-.12.13-1-.26zm-.67-.66l-.4.44.6.54.4-.43c.17-.19.2-.41 0-.6-.21-.19-.43-.14-.6.05M113.96 107.74l.78-.93.1.09-.68.81.6.51.58-.7.11.09-.58.69.62.52.68-.81.1.08-.78.93zM9.98 73.38l-1.38-.56-.01-.15 1.35-.66-1.65.05v-.16l2-.06V72l-1.52.74 1.56.63.01.15-2 .06v-.15zM10.41 74.67l.01.15-2 .13-.01-.15zM10.25 76.14l-1.73.17-.02-.15 1.99-.19.02.15-1.62 1.31 1.73-.16.01.15-1.99.19-.01-.15zM10.77 78.55l.02.15-1.98.26-.02-.15zM9.03 80.65c-.05-.29.01-.49.16-.7l.12.09c-.15.2-.18.36-.15.6.05.31.23.48.49.44.12-.02.21-.07.26-.15.05-.08.06-.13.06-.3v-.24c0-.15.03-.28.09-.38.07-.12.18-.19.34-.21.33-.05.58.15.64.53.04.24 0 .41-.12.6l-.11-.08c.09-.13.15-.28.11-.51-.05-.29-.23-.43-.48-.39-.11.02-.19.06-.24.14-.05.08-.07.2-.08.31v.22c0 .19-.02.28-.08.37-.07.12-.2.21-.36.23-.34.06-.59-.15-.65-.57M9.44 82.88l-.03-.15 1.83-.35-.11-.58.13-.03.26 1.32-.14.03-.11-.59zM11.71 83.99l.27 1.18-.13.03-.24-1.04-.77.18.2.88-.13.03-.2-.88-.79.18.24 1.04-.13.03-.27-1.18 1.95-.45zm.65.11l.04.19-.34.36-.04-.16.34-.39zM11.37 87.1l-.14-.53-.89.24-.04-.15 1.93-.53.2.74c.09.32-.03.6-.37.7-.29.08-.52-.04-.64-.3l-.77.71-.05-.18.77-.7zm.92-.21l-.16-.57-.78.21.16.57c.07.25.24.39.51.32.26-.07.34-.28.27-.53M12.87 88.41l.36 1.16-.13.04-.31-1.01-.76.24.27.86-.13.04-.27-.86-.77.24.32 1.01-.13.04-.36-1.16zM12.67 93.44c-.16-.07-.27-.21-.35-.4l-.24-.63 1.87-.71.24.63c.07.2.08.38.01.53-.12.26-.42.36-.67.46-.25.1-.59.24-.86.12m1.4-.64c.07-.15.05-.31-.01-.46l-.17-.45-1.62.61.17.45c.06.15.14.28.29.35.21.09.53-.04.74-.12.22-.08.5-.17.6-.38M14.84 93.96l.48 1.11-.13.06-.41-.98-.73.31.35.83-.12.05-.35-.83-.75.31.42.98-.13.05-.47-1.11zM16.25 97.12l.07.14-1.67.82.46.95-.12.06-.53-1.09zM16.36 100.63l-.44-.82-.51.08-.08-.14 2.11-.3.06.12-1.41 1.6-.08-.14.35-.4zm-.3-.85l.4.74.84-.93-1.24.19zM17.52 103.64a.708.708 0 0 1-.09-.53c.06-.25.21-.35.59-.58.39-.24.54-.33.79-.27.18.04.34.16.44.32.19.31.13.64-.14.89l-.08-.13c.21-.2.25-.45.11-.68a.534.534 0 0 0-.33-.24c-.2-.05-.34.03-.7.25-.36.22-.49.32-.54.51-.03.14-.01.28.07.4.14.23.39.31.66.22l.08.13c-.34.11-.67.01-.86-.29M19.27 105.96a.729.729 0 0 1-.45-.3.718.718 0 0 1-.11-.53c.05-.25.2-.36.57-.61.38-.25.52-.35.78-.3.18.04.34.14.45.3.11.16.14.35.11.53-.05.25-.2.35-.57.6-.38.26-.53.36-.78.31m1.21-.95a.54.54 0 0 0-.42-.63c-.2-.04-.34.04-.69.28-.36.24-.48.33-.52.53a.54.54 0 0 0 .42.63c.2.04.34-.04.69-.28s.48-.34.52-.53M21.34 107.57l-.62-.84-.76.55-.08-.12 1.61-1.18.09.12-.75.55.62.84.74-.54.09.12-1.61 1.18-.09-.13zM22.97 107.98l.75.95-.11.08-.66-.83-.62.49.56.71-.1.08-.56-.71-.63.5.66.83-.11.08-.75-.95 1.57-1.23zm.43.22l.49-.04.12.15-.51.02-.1-.13zM23.14 111.37a.85.85 0 0 1-.23-.68l.15.01c-.02.25.03.4.19.58.21.24.45.29.65.12.09-.08.14-.17.14-.27s-.02-.15-.11-.29l-.12-.2a.702.702 0 0 1-.12-.37c0-.14.06-.26.18-.36.26-.22.57-.18.82.12.16.19.21.35.21.58l-.14-.01a.641.641 0 0 0-.17-.49c-.19-.22-.42-.25-.62-.08-.09.08-.13.16-.13.25s.04.21.1.31l.11.19c.1.16.13.25.13.36 0 .14-.06.28-.18.38-.26.23-.59.17-.86-.15"/>
    <path transform="rotate(-42.325 25.099 112.069)" class="st1" d="M24.1 111.99h2v.15h-2z"/>
    <path class="st1" d="M26.12 114.35a.66.66 0 0 1-.49-.22.738.738 0 0 1-.2-.5c.01-.26.13-.39.46-.7.33-.31.46-.43.72-.42.19 0 .36.08.49.22s.2.32.2.5c-.01.26-.13.38-.46.69-.33.31-.46.44-.72.43m1.03-1.15c0-.14-.05-.28-.15-.38a.58.58 0 0 0-.37-.17c-.2 0-.32.1-.63.39-.31.3-.42.41-.42.61 0 .14.05.28.15.38.1.1.23.16.37.17.2 0 .32-.1.63-.39.31-.29.41-.41.42-.61M28.23 114.28l-1.2 1.25-.11-.11 1.39-1.44.1.11-.37 2.05 1.21-1.25.11.1-1.39 1.44-.11-.1zM30.85 118.75a.688.688 0 0 1-.5-.19l-.51-.44 1.3-1.52.51.44c.16.14.25.29.26.46.02.29-.19.52-.36.73-.18.21-.42.5-.7.52m.91-1.23c-.01-.17-.11-.29-.23-.4l-.37-.32-1.12 1.32.37.31c.12.1.26.18.43.16.23-.02.45-.29.59-.46.15-.17.34-.38.33-.61M33 118.15l.95.75-.08.11-.84-.66-.49.62.72.56-.09.11-.71-.56-.5.63.84.66-.09.11-.95-.75zM33.97 121.44a.832.832 0 0 1-.38-.61l.15-.02c.04.25.13.39.32.53.26.19.51.18.66-.03.07-.1.1-.19.08-.29a.54.54 0 0 0-.17-.26l-.17-.17c-.11-.11-.18-.21-.2-.33-.03-.13 0-.26.09-.39.2-.27.51-.3.82-.08.2.15.29.29.34.51l-.14.02a.644.644 0 0 0-.28-.44c-.24-.17-.47-.14-.62.06-.07.09-.09.18-.07.27.02.09.09.19.17.28l.15.15c.14.13.19.21.21.32.04.14.01.29-.09.42-.2.28-.53.3-.87.06M36.9 123.44l-.13-.09 1.02-1.56-.5-.32.07-.12 1.13.74-.07.11-.5-.33zM39.28 122.57l1.04.63-.06.11-.92-.54-.4.67.77.47-.07.11-.77-.46-.42.69.91.55-.07.11-1.04-.62zM41.28 124.97l-.48-.26-.44.81-.13-.07.96-1.75.67.37c.28.16.41.44.24.75-.14.26-.39.34-.66.25l-.02 1.04-.16-.08.02-1.06zm.48-.8l-.52-.28-.39.71.52.28c.23.12.45.1.58-.14.14-.25.04-.45-.19-.57M43.42 126.09l-.49-.25-.41.82-.14-.07.9-1.79.68.34c.29.14.43.42.27.74-.13.27-.38.36-.65.28l.02 1.04-.16-.08-.02-1.03zm.46-.82l-.53-.27-.36.72.53.26c.23.12.45.08.58-.17.11-.23.01-.43-.22-.54M45.41 125.85l.14.06-.84 1.82-.14-.06zM46.29 128.44l-.14-.06.73-1.72-.54-.23.05-.13 1.24.53-.06.13-.55-.24zM48.81 129.25a.72.72 0 0 1-.54.01.677.677 0 0 1-.39-.37c-.1-.24-.04-.4.12-.82.16-.42.23-.58.47-.69.17-.08.36-.08.54-.01.18.07.32.2.39.37.1.24.04.4-.12.82-.17.42-.24.58-.47.69m.44-1.48a.548.548 0 0 0-.3-.28.53.53 0 0 0-.41.01c-.19.08-.25.22-.41.62-.15.4-.2.55-.12.73.06.13.17.23.3.28.13.05.28.05.41-.01.19-.08.25-.22.41-.62.16-.4.2-.55.12-.73M50.64 127.99l.15.05-.67 1.88-.14-.05zM52.21 129.65l-.53-.17-.28.88-.14-.05.61-1.9.73.23c.31.1.49.35.38.68-.09.29-.32.41-.6.37l.18 1.03-.17-.05-.18-1.02zm.32-.89l-.56-.18-.25.77.56.18c.25.08.46.01.54-.25.09-.26-.04-.44-.29-.52M54.13 129.11l1.16.32-.03.13-1.02-.28-.21.76.87.24-.04.13-.87-.24-.21.77 1.02.29-.04.13-1.17-.33zM56.29 131.76c-.29-.07-.45-.19-.59-.41l.13-.08c.13.22.26.3.5.36.31.07.53-.03.6-.28.03-.12.02-.22-.04-.3-.06-.08-.1-.11-.26-.17l-.22-.09c-.14-.06-.25-.13-.31-.22-.08-.11-.1-.24-.07-.4.08-.33.36-.48.73-.39.24.06.38.16.51.34l-.12.07a.61.61 0 0 0-.43-.29c-.28-.07-.49.04-.55.29-.03.11-.01.21.04.28.06.07.16.14.26.19l.2.08c.18.07.25.12.32.21.09.11.12.26.08.42-.08.33-.37.48-.78.39M59.62 130.4l1.19.21-.02.14-1.05-.19-.13.78.89.16-.03.13-.89-.16-.14.8 1.05.18-.03.14-1.19-.21zM62.02 132.82l-.15-.02.26-1.84-.59-.09.02-.13 1.33.19-.02.13-.59-.08zM66.07 133.08c-.13.11-.3.16-.51.14l-.67-.06.17-1.99.67.06c.21.02.37.09.48.22.18.22.15.53.13.8-.03.28-.05.65-.27.83m.02-1.53c-.1-.13-.26-.18-.42-.19l-.48-.04-.15 1.72.48.04c.16.01.32-.01.44-.12.17-.15.19-.5.21-.72.03-.22.07-.51-.08-.69M67.49 131.35l1.21.06-.01.14-1.06-.05-.04.79.91.04-.01.13-.9-.04-.04.81 1.06.05-.01.13-1.21-.06zM70.16 133.46c-.3-.01-.48-.09-.66-.27l.11-.11c.18.18.32.24.56.25.32.01.52-.14.52-.4 0-.12-.03-.22-.11-.28-.07-.06-.12-.09-.29-.11l-.23-.04a.596.596 0 0 1-.35-.15.468.468 0 0 1-.15-.37c.01-.34.25-.54.63-.54.25 0 .4.07.57.23l-.1.1a.644.644 0 0 0-.48-.19c-.29-.01-.47.15-.47.4 0 .11.03.2.1.26s.18.11.3.13l.22.04c.19.03.28.07.35.14.11.09.17.23.17.39-.01.32-.27.53-.69.52M73.88 132.45l-.55.03.04.92-.15.01-.09-2 .76-.04c.33-.01.58.16.6.51.01.3-.16.5-.44.56l.53.9-.18.01-.52-.9zm0-.94l-.59.03.04.81.59-.03c.26-.01.44-.15.42-.43-.02-.28-.21-.4-.46-.38M75.49 131.28l1.21-.11.01.14-1.06.09.07.78.9-.07.01.13-.9.08.07.8 1.06-.09.01.14-1.21.1zM77.69 131.07l.15-.02.22 1.85 1.06-.13.01.14-1.2.14zM81.02 132.13l-.92.15-.1.51-.16.03.42-2.09.13-.02 1.04 1.86-.16.03-.25-.47zm-.89.01l.83-.13-.6-1.1-.23 1.23zM82.71 132.32l-.15.03-.35-1.83-.58.11-.03-.13 1.32-.25.03.13-.59.11zM83.83 130.06l.15-.04.43 1.96-.15.03zM86.61 131.25c-.1.16-.25.27-.43.32s-.37.02-.54-.08c-.22-.13-.27-.31-.38-.74-.11-.44-.15-.61-.02-.83.1-.16.25-.27.43-.32.18-.05.37-.02.53.08.22.13.27.3.38.74.12.43.17.61.03.83m-.49-1.46a.581.581 0 0 0-.41-.06c-.14.04-.26.12-.33.24-.1.17-.08.33.03.74.1.41.15.56.33.67.12.07.27.09.41.06s.26-.12.33-.24c.1-.17.08-.33-.03-.74-.11-.42-.16-.57-.33-.67M87.6 129.38l.49 1.67-.14.04-.57-1.92.15-.04 1.59 1.34-.49-1.67.15-.04.56 1.92-.14.04zM90.99 130.15c-.28.1-.48.08-.72-.03l.07-.14c.23.11.39.12.61.04.3-.1.44-.31.35-.56-.04-.11-.1-.19-.19-.23-.09-.03-.14-.04-.31-.01l-.23.04c-.15.03-.28.02-.38-.02a.453.453 0 0 1-.27-.3c-.11-.32.05-.6.41-.72.23-.08.4-.07.61.02l-.06.13c-.15-.07-.3-.1-.52-.02-.28.1-.39.3-.31.54.04.11.1.18.18.21.08.03.21.04.32.02l.22-.04c.19-.04.28-.03.38.01.13.05.24.16.29.31.12.33-.05.62-.45.75M94.6 128.26l-.87.35.02.52-.15.06-.07-2.13.13-.05 1.44 1.58-.15.06-.35-.39zm-.88.21l.78-.31-.83-.94.05 1.25zM96.21 128.1l-1.41-1.56.15-.07 1.22 1.36-.2-1.82.15-.06.21 2.1zM96.9 125.59l1.09-.53.06.12-.95.46.34.71.81-.4.06.12-.81.4.35.72.96-.46.06.12-1.09.53zM100.36 126.09a.68.68 0 0 1-.54.05c-.25-.07-.33-.23-.54-.63-.21-.4-.29-.56-.22-.8.05-.18.18-.33.34-.42.32-.17.64-.09.88.19l-.14.07c-.18-.22-.44-.28-.68-.15-.13.07-.22.18-.26.32-.06.19.01.34.21.71.2.38.29.51.48.57.14.04.28.03.41-.04.24-.13.33-.37.25-.65l.13-.07c.11.37-.01.69-.32.85M102 122.84l.13-.08.98 1.6.9-.56.07.12-1.03.63zM103.82 121.71l1.01-.67.08.11-.89.59.44.66.75-.5.08.11-.76.5.45.67.88-.58.08.11-1.02.67zM107.22 121.83c-.24.17-.44.21-.7.17l.02-.15c.25.04.4 0 .6-.14.26-.19.33-.42.18-.64-.07-.1-.15-.16-.25-.17-.1 0-.15 0-.3.08l-.21.11c-.14.07-.26.1-.38.09a.438.438 0 0 1-.34-.21c-.2-.27-.13-.58.19-.81.2-.14.37-.18.6-.16l-.02.14a.626.626 0 0 0-.5.13c-.24.17-.29.4-.14.61.07.09.15.15.24.15.09.01.21-.02.32-.07l.19-.1c.17-.09.26-.11.37-.1.14.01.27.08.37.21.19.29.11.61-.24.86M110.13 119.62c-.15.12-.33.18-.52.15-.26-.03-.37-.17-.65-.51-.28-.35-.39-.49-.37-.75.02-.19.11-.35.26-.47.28-.23.62-.21.9.03l-.12.1c-.22-.18-.48-.19-.69-.02-.11.09-.18.22-.2.36-.02.2.07.33.34.66s.38.45.58.47c.14.01.28-.03.39-.12.21-.17.26-.43.13-.68l.12-.09c.16.31.1.65-.17.87M112.21 117.59c-.01.19-.1.36-.24.48-.14.13-.32.19-.51.17-.26-.02-.38-.15-.67-.49-.3-.34-.41-.48-.39-.73.01-.19.1-.36.24-.48a.65.65 0 0 1 .51-.17c.26.02.38.15.67.49.3.34.41.48.39.73m-1.1-1.08a.56.56 0 0 0-.39.13c-.11.09-.18.22-.19.37-.01.2.08.33.36.65.28.32.39.43.59.45.14.01.28-.04.39-.13a.47.47 0 0 0 .18-.36c.01-.2-.08-.33-.36-.65-.26-.33-.37-.44-.58-.46M111.96 115.38l.11-.1 1.27 1.36.78-.73.09.1-.89.83zM113.5 113.91l.1-.11 1.33 1.31.74-.75.1.1-.85.86zM114.99 112.38l.82-.89.1.09-.72.78.58.54.61-.67.1.09-.61.67.59.55.72-.78.1.09-.82.89zM118.39 111.61c-.13.15-.3.23-.48.25-.26.02-.4-.1-.74-.39-.34-.29-.48-.41-.5-.67-.01-.19.05-.37.17-.51.23-.27.57-.32.89-.14l-.1.12c-.25-.14-.51-.1-.68.11a.56.56 0 0 0-.13.39c.01.2.13.31.45.59.32.28.45.37.65.36.14-.01.27-.08.36-.19.18-.21.18-.47 0-.7l.1-.11c.24.28.24.62.01.89M119.82 109.85l-.09.12-1.46-1.17-.37.47-.11-.09.85-1.05.1.09-.37.46zM119.2 107.39l.09-.12 1.6 1.2-.09.13zM121.82 107.2l-2.01-.63.09-.13 1.74.55-1.08-1.46.09-.13 1.25 1.7z"/>
    <path transform="rotate(-56.096 122.018 105.167)" class="st1" d="M121.94 104.17h.15v2h-.15z"/>
    <path class="st1" d="M123.83 104.22l-.08.12-1.58-.99-.32.5-.11-.07.72-1.14.11.07-.32.51zM122.99 101.37l-.22-.44.1-.16.21.47-.09.13zm-.06.48l.61-1.05.12.07-.54.92.68.4.46-.78.12.07-.46.78.7.41.54-.92.11.07-.61 1.05-1.73-1.02zM126.05 100.45c-.14.26-.3.39-.55.46l-.04-.14c.24-.07.36-.18.48-.39.15-.28.11-.53-.12-.65a.367.367 0 0 0-.3-.04c-.09.04-.13.07-.23.2l-.14.19c-.09.12-.19.2-.3.24-.13.05-.26.04-.4-.04-.3-.16-.37-.47-.19-.81.12-.22.25-.32.46-.4l.04.13c-.15.05-.28.13-.39.34-.14.26-.08.48.14.6.1.06.19.07.28.03.09-.03.18-.11.25-.2l.13-.17c.11-.15.19-.21.29-.25.13-.05.28-.05.42.03.3.17.36.5.17.87M127.63 97.26l-.07.13-1.69-.79-.25.54-.12-.06.57-1.21.12.05-.25.54zM126.44 95.02l.47-1.12.13.05-.42.98.73.31.35-.83.13.05-.36.83.75.32.41-.98.13.05-.48 1.12zM128.54 92.71l-.2.52.86.33-.05.14-1.87-.71.27-.71c.12-.31.38-.47.71-.35.28.11.4.34.34.62l1.04-.12-.06.17-1.04.11zm-.87-.37l-.21.55.76.29.21-.55c.09-.24.04-.46-.22-.56-.26-.1-.44.02-.54.27M129.35 90.44l-.18.52.87.3-.04.15-1.9-.64.24-.72c.1-.31.36-.48.69-.37.28.1.41.33.36.61l1.03-.16-.06.17-1.01.14zm-.88-.33l-.19.56.77.26.19-.56c.08-.25.02-.46-.24-.55-.27-.09-.45.04-.53.29"/>
    <path transform="rotate(-73.232 129.813 88.722)" class="st1" d="M129.74 87.72h.15v2h-.15z"/>
    <path class="st1" d="M131.27 87.27l-.04.15-1.8-.49-.16.58-.13-.04.36-1.3.13.04-.16.58zM131.73 84.67a.708.708 0 0 1-.22.97c-.22.14-.4.1-.83 0-.44-.1-.61-.15-.75-.37a.708.708 0 0 1 .22-.97c.22-.13.39-.1.83.01.44.1.61.14.75.36m-1.53-.23a.534.534 0 0 0-.18.73c.11.17.26.22.67.32.41.1.57.12.74.01.12-.07.21-.19.24-.33s.01-.28-.06-.4c-.11-.17-.26-.22-.67-.32-.41-.09-.56-.12-.74-.01M131.42 82.55l-.1.54.9.17-.03.15-1.96-.38.14-.75c.06-.32.29-.53.63-.46.3.06.45.27.44.55l1-.3-.03.17-.99.31zm-.92-.22l-.11.58.79.15.11-.58c.05-.25-.04-.46-.32-.51-.27-.05-.42.11-.47.36"/>
    <path transform="rotate(-80.857 131.647 80.783)" class="st1" d="M131.58 79.78h.15v2h-.15z"/>
    <path class="st1" d="M132.48 78.61l-.12.93.46.24-.02.16-1.89-.99.02-.14 2.08-.47-.02.16-.51.11zm-.25.86l.11-.83-1.22.26 1.11.57zM131.12 77.21l.01-.15 1.86.17.1-1.05.13.01-.11 1.21zM131.3 75.08l.07-1.21.14.01-.06 1.06.78.04.06-.9.13.01-.05.9.8.05.07-1.06.13.01-.07 1.21zM133.44 72.42c-.01.3-.09.48-.28.66l-.1-.11c.18-.18.24-.32.25-.56.01-.32-.14-.52-.4-.52-.12 0-.22.03-.28.1-.06.08-.09.12-.11.29l-.04.23c-.03.15-.08.27-.15.35-.09.1-.21.15-.37.15-.34-.01-.54-.25-.53-.63.01-.25.08-.4.23-.57l.1.1a.69.69 0 0 0-.2.48c-.01.29.15.47.4.47.12 0 .2-.03.26-.1s.11-.18.13-.29l.04-.22c.03-.19.07-.27.14-.35.09-.11.23-.17.39-.17.33.01.53.27.52.69M9 61.09l1.54.26.55-3.27 1.93.32-.55 3.27 3.4.57-.36 2.17-8.81-1.48 1-5.99 1.94.33zM18.71 51.31l-1.39-.03-.88 2.6 1.12.84-.74 2.17-7.42-5.94.54-1.6 9.5-.22-.73 2.18zm-5.81-.12l2 1.52.5-1.47-2.5-.05zM22.47 43.37l-1.88 3.4-7.81-4.32 1.79-3.24c.9-1.62 2.29-1.99 3.64-1.24.89.49 1.04 1.38 1.07 1.71.37-.21 1.14-.63 2.23-.03 1.49.83 1.73 2.32.96 3.72m-6.25-3.09l-.66 1.2 1.27.7.66-1.2c.29-.53.05-.87-.26-1.04-.3-.17-.72-.18-1.01.34m3.05 1.56l-.72 1.3 1.37.76.72-1.29c.29-.53.03-.9-.3-1.08-.33-.2-.78-.22-1.07.31M28.51 34.74l-3.58-.87-.47.57 2.58 2.1-1.39 1.7-6.93-5.63 2.23-2.75c1.25-1.54 3.01-1.48 4.15-.55.94.77 1.06 1.83.89 2.6l4.11.85-1.59 1.98zm-6.09-3.55l-.78.96 1.4 1.14.78-.96c.38-.47.26-1.02-.1-1.31-.36-.29-.92-.3-1.3.17"/>
    <path transform="rotate(-42.71 30.091 26.694)" class="st1" d="M28.99 22.23h2.19v8.93h-2.19z"/>
    <path class="st1" d="M41.46 23.96l-.96-.18c-.24.5-.62.93-1.19 1.32-.9.62-1.72.76-2.62.59-1.31-.24-1.99-1.29-2.75-2.4-.76-1.1-1.51-2.11-1.27-3.42.17-.91.59-1.62 1.48-2.24.9-.62 1.72-.76 2.62-.59 1.31.24 1.99 1.29 2.75 2.4.63.92 1.26 1.78 1.31 2.8l.91.17-.28 1.55zm-5.25-4.89c-.26-.08-.61-.05-.94.18-.33.23-.49.55-.5.82-.01.33.05.65.98 1.99.93 1.34 1.19 1.51 1.51 1.61.25.08.62.06.95-.17.05-.04.09-.06.14-.11l-.78-.14.28-1.55.59.11c-.15-.26-.36-.62-.71-1.11-.93-1.35-1.21-1.53-1.52-1.63M47.87 20.25c-1.69.77-3.59.26-4.4-1.52l-2.4-5.28 2-.91 2.38 5.23c.34.75.95 1 1.61.7.66-.3.9-.93.56-1.69l-2.38-5.23 2-.91 2.4 5.28c.8 1.78-.08 3.56-1.77 4.33M54.14 17.69l-2.23-8.65 5.88-1.51.49 1.89-3.76.97.37 1.45 3.21-.83.49 1.89-3.21.83.39 1.52 3.76-.97.48 1.9zM69.41 7.41l-.13 7.77-.68-.01.16-8.93.67.01 5.02 7.83.14-7.74.68.01-.16 8.93-.68-.01zM82.37 16.48c-1.76-.37-2.74-1.83-2.39-3.54l1.24-5.91.66.14-1.22 5.82c-.3 1.45.42 2.6 1.83 2.9 1.41.3 2.53-.47 2.84-1.92l1.22-5.82.66.14-1.24 5.91c-.35 1.71-1.85 2.65-3.6 2.28M98.65 14.21l-4.9 4.53-.63-.26-.11-6.7-2.92 6.75-.62-.27 3.54-8.19.62.27.13 7.55 5.52-5.12.62.27-3.54 8.2-.62-.27zM105.2 16.11l4.48 3.05-.34.5-3.92-2.67-1.99 2.91 3.34 2.27-.34.5-3.34-2.27-2.03 2.98 3.92 2.67-.34.5-4.48-3.05 5.04-7.39zm2.11.4l2.04-.84.69.47-2.14.78-.59-.41zM112.72 28.2l-1.77-1.71-2.86 2.95-.49-.47 6.21-6.41 2.44 2.36c1.04 1.01 1.25 2.38.17 3.5-.93.96-2.1 1.02-3.15.3l-1.32 4.46-.57-.55 1.34-4.43zm3.06-2.9l-1.89-1.83-2.51 2.59 1.89 1.83c.83.8 1.81.96 2.67.07.86-.89.67-1.86-.16-2.66"/>
    <path transform="rotate(-37.986 118.254 33.875)" class="st1" d="M113.79 33.54h8.93v.68h-8.93z"/>
    <path class="st1" d="M120.56 44.4c-.66-.26-1.22-.75-1.57-1.36-.43-.74-.54-1.58-.33-2.39.3-1.11.98-1.53 2.72-2.53 1.75-1.01 2.44-1.4 3.55-1.1.81.21 1.48.73 1.91 1.47.43.74.54 1.58.33 2.39-.3 1.12-.97 1.52-2.72 2.54-1.58.92-2.33 1.34-3.27 1.16l-.38 1.44-.62-.16.38-1.46zm6.02-3.81c.16-.62.07-1.26-.25-1.81s-.83-.96-1.45-1.12c-.87-.23-1.51.08-3.16 1.03-1.65.96-2.23 1.35-2.46 2.23-.16.62-.07 1.26.25 1.81.28.49.69.85 1.22 1.05l.46-1.71.62.16-.45 1.7c.69.06 1.38-.31 2.76-1.11 1.64-.96 2.22-1.35 2.46-2.23M123.22 52.16c-.6-1.69.13-3.3 1.77-3.88l5.68-2.03.23.64-5.6 2c-1.39.5-2 1.71-1.51 3.07.49 1.36 1.72 1.92 3.12 1.42l5.6-2 .23.64-5.68 2.03c-1.65.58-3.24-.2-3.84-1.89M134.16 57.78l.9 5.34-.59.1-.79-4.68-3.47.59.66 3.98-.59.1-.67-3.98-3.55.59.78 4.68-.59.09-.89-5.34z"/>
</svg>
