<?xml version="1.0" encoding="UTF-8" standalone="no"?><!DOCTYPE svg PUBLIC "-//W3C//DTD SVG 1.1//EN" "http://www.w3.org/Graphics/SVG/1.1/DTD/svg11.dtd"><svg width="100%" height="100%" viewBox="0 0 358 79" version="1.1" xmlns="http://www.w3.org/2000/svg" xmlns:xlink="http://www.w3.org/1999/xlink" xml:space="preserve" xmlns:serif="http://www.serif.com/" style="fill-rule:evenodd;clip-rule:evenodd;"><rect x="0" y="0" width="357.5" height="78.7" style="fill:#fff;"/><g id="Calque_1"><rect id="Cadre_2_" x="238.5" y="-0.3" width="119" height="79" style="fill:none;stroke:#1a171b;stroke-width:1px;"/><g><g><path d="M273.3,29.5l-2.8,-6.1l0,4.9c0,0.4 0,0.7 0.1,0.8c0.1,0.2 0.3,0.2 0.6,0.2l0.3,0l0,0.2l-2.5,0l0,-0.2l0.3,0c0.3,0 0.5,-0.1 0.7,-0.3c0.1,-0.1 0.1,-0.4 0.1,-0.8l0,-4.8c0,-0.3 0,-0.6 -0.1,-0.7c0,-0.1 -0.1,-0.2 -0.3,-0.3c-0.1,-0.1 -0.4,-0.1 -0.6,-0.1l0,-0.2l2.1,0l2.6,5.7l2.6,-5.7l2.1,0l0,0.2l-0.3,0c-0.3,0 -0.5,0.1 -0.7,0.3c-0.1,0.1 -0.1,0.4 -0.1,0.8l0,4.8c0,0.4 0.1,0.7 0.2,0.8c0.1,0.2 0.3,0.2 0.6,0.2l0.3,0l0,0.2l-3.1,0l0,-0.2l0.3,0c0.3,0 0.5,-0.1 0.7,-0.3c0.1,-0.1 0.1,-0.4 0.1,-0.8l0,-4.9l-2.8,6.1l-0.4,0l0,0.2Z" style="fill:#1a171b;fill-rule:nonzero;"/><path d="M282,29.3l0,0.2l-3.1,0l0,-0.2l0.3,0c0.3,0 0.5,-0.1 0.7,-0.3c0.1,-0.1 0.1,-0.4 0.1,-0.8l0,-4.7c0,-0.4 0,-0.6 -0.1,-0.7c0,-0.1 -0.1,-0.2 -0.2,-0.2c-0.2,-0.1 -0.3,-0.1 -0.5,-0.1l-0.3,0l0,-0.2l3.1,0l0,0.2l-0.3,0c-0.3,0 -0.5,0.1 -0.6,0.3c-0.1,0.1 -0.1,0.4 -0.1,0.8l0,4.7c0,0.4 0,0.6 0.1,0.7c0,0.1 0.1,0.2 0.2,0.2c0.2,0.1 0.3,0.1 0.5,0.1l0.2,0Z" style="fill:#1a171b;fill-rule:nonzero;"/><path d="M282,22.2l2,0l4.5,5.5l0,-4.2c0,-0.4 0,-0.7 -0.2,-0.8c-0.1,-0.2 -0.3,-0.2 -0.6,-0.2l-0.3,0l0,-0.2l2.5,0l0,0.2l-0.3,0c-0.3,0 -0.5,0.1 -0.7,0.3c-0.1,0.1 -0.1,0.4 -0.1,0.8l0,6.1l-0.2,0l-4.8,-5.9l0,4.5c0,0.4 0,0.7 0.1,0.8c0.1,0.2 0.3,0.2 0.6,0.2l0.3,0l0,0.2l-2.5,0l0,-0.2l0.3,0c0.3,0 0.5,-0.1 0.7,-0.3c0.1,-0.1 0.1,-0.4 0.1,-0.8l0,-5.1c-0.2,-0.2 -0.4,-0.4 -0.5,-0.5c-0.1,-0.1 -0.3,-0.2 -0.5,-0.2c-0.1,0 -0.3,0 -0.5,0l0,-0.2l0.1,0Z" style="fill:#1a171b;fill-rule:nonzero;"/><path d="M293.5,29.3l0,0.2l-3.1,0l0,-0.2l0.3,0c0.3,0 0.5,-0.1 0.7,-0.3c0.1,-0.1 0.1,-0.4 0.1,-0.8l0,-4.7c0,-0.4 0,-0.6 -0.1,-0.7c0,-0.1 -0.1,-0.2 -0.2,-0.2c-0.2,-0.1 -0.3,-0.1 -0.5,-0.1l-0.3,0l0,-0.2l3.1,0l0,0.2l-0.3,0c-0.3,0 -0.5,0.1 -0.7,0.3c-0.1,0.1 -0.1,0.4 -0.1,0.8l0,4.7c0,0.4 0,0.6 0.1,0.7c0,0.1 0.1,0.2 0.2,0.2c0.2,0.1 0.3,0.1 0.5,0.1l0.3,0Z" style="fill:#1a171b;fill-rule:nonzero;"/><path d="M298.7,22.1l0,2.5l-0.2,0c-0.1,-0.5 -0.2,-0.9 -0.3,-1.2c-0.2,-0.3 -0.4,-0.5 -0.7,-0.7c-0.3,-0.2 -0.6,-0.3 -1,-0.3c-0.4,0 -0.7,0.1 -0.9,0.3c-0.2,0.2 -0.4,0.5 -0.4,0.8c0,0.2 0.1,0.4 0.2,0.6c0.2,0.3 0.8,0.6 1.6,1.1c0.7,0.4 1.1,0.6 1.4,0.8c0.3,0.2 0.4,0.4 0.6,0.7c0.1,0.3 0.2,0.5 0.2,0.8c0,0.6 -0.2,1 -0.6,1.4c-0.4,0.4 -1,0.6 -1.7,0.6c-0.2,0 -0.4,0 -0.6,0c-0.1,0 -0.3,-0.1 -0.7,-0.2c-0.3,-0.1 -0.6,-0.2 -0.7,-0.2c-0.1,0 -0.2,0 -0.2,0.1c-0.1,0.1 -0.1,0.2 -0.1,0.3l-0.2,0l0,-2.5l0.2,0c0.1,0.5 0.2,0.9 0.4,1.2c0.2,0.3 0.4,0.5 0.7,0.6c0.3,0.1 0.7,0.3 1.1,0.3c0.4,0 0.8,-0.1 1.1,-0.4c0.3,-0.3 0.4,-0.5 0.4,-0.8c0,-0.2 0,-0.4 -0.1,-0.5c-0.1,-0.2 -0.3,-0.4 -0.5,-0.5c-0.1,-0.1 -0.5,-0.3 -1.1,-0.7c-0.6,-0.3 -1.1,-0.6 -1.3,-0.8c-0.3,-0.2 -0.5,-0.4 -0.6,-0.7c-0.1,-0.3 -0.2,-0.5 -0.2,-0.8c0,-0.5 0.2,-1 0.6,-1.4c0.4,-0.4 0.9,-0.6 1.5,-0.6c0.4,0 0.8,0.1 1.2,0.3c0.2,0.1 0.3,0.1 0.4,0.1c0.1,0 0.2,0 0.2,-0.1c0.1,-0.1 0.1,-0.2 0.1,-0.3l0.2,0l0,0.2Z" style="fill:#1a171b;fill-rule:nonzero;"/><path d="M306.1,22.2l0.1,1.7l-0.2,0c0,-0.3 -0.1,-0.5 -0.2,-0.6c-0.1,-0.2 -0.3,-0.4 -0.4,-0.5c-0.2,-0.1 -0.4,-0.1 -0.7,-0.1l-1,0l0,5.6c0,0.4 0,0.7 0.1,0.8c0.1,0.2 0.3,0.2 0.6,0.2l0.3,0l0,0.2l-3.1,0l0,-0.2l0.3,0c0.3,0 0.5,-0.1 0.7,-0.3c0.1,-0.1 0.1,-0.4 0.1,-0.8l0,-5.6l-0.9,0c-0.3,0 -0.6,0 -0.7,0.1c-0.2,0.1 -0.3,0.2 -0.5,0.4c-0.2,0.2 -0.2,0.5 -0.2,0.8l-0.2,0l0.1,-1.7l5.8,0Z" style="fill:#1a171b;fill-rule:nonzero;"/><path d="M308.7,22.6l0,2.9l1.6,0c0.4,0 0.7,-0.1 0.8,-0.2c0.2,-0.2 0.3,-0.5 0.3,-0.9l0.2,0l0,2.6l-0.2,0c-0.1,-0.4 -0.1,-0.6 -0.2,-0.7c-0.1,-0.1 -0.2,-0.2 -0.3,-0.3c-0.1,-0.1 -0.4,-0.1 -0.7,-0.1l-1.6,0l0,3c0,0.1 0.1,0.1 0.2,0.2c0.1,0 0.2,0.1 0.4,0.1l1.2,0c0.4,0 0.7,0 0.9,-0.1c0.2,-0.1 0.4,-0.2 0.5,-0.3c0.2,-0.2 0.4,-0.6 0.7,-1l0.2,0l-0.6,1.8l-5.6,0l0,-0.2l0.3,0c0.2,0 0.3,0 0.5,-0.1c0.1,-0.1 0.2,-0.1 0.2,-0.3c0,-0.2 0.1,-0.3 0.1,-0.7l0,-4.7c0,-0.5 0,-0.7 -0.1,-0.9c-0.1,-0.1 -0.3,-0.2 -0.6,-0.2l-0.3,0l0,-0.2l5.6,0l0.1,1.6l-0.2,0c-0.1,-0.4 -0.2,-0.6 -0.3,-0.8c-0.1,-0.2 -0.2,-0.3 -0.4,-0.3c-0.1,-0.1 -0.4,-0.1 -0.8,-0.1l-1.9,0l0,-0.1Zm-0.1,-2.7l1.2,0l0.6,1.9l-0.2,0l-1.6,-1.9Z" style="fill:#1a171b;fill-rule:nonzero;"/><path d="M320.5,29.5l-1.9,0l-2.5,-3.4c-0.2,0 -0.3,0 -0.4,0c0,0 -0.1,0 -0.2,0c-0.1,0 -0.1,0 -0.2,0l0,2.1c0,0.5 0,0.7 0.2,0.9c0.1,0.2 0.3,0.2 0.6,0.2l0.3,0l0,0.2l-3.1,0l0,-0.2l0.3,0c0.3,0 0.5,-0.1 0.7,-0.3c0.1,-0.1 0.1,-0.4 0.1,-0.8l0,-4.7c0,-0.5 0,-0.7 -0.2,-0.9c-0.1,-0.2 -0.3,-0.2 -0.6,-0.2l-0.3,0l0,-0.2l2.7,0c0.8,0 1.3,0.1 1.7,0.2c0.4,0.1 0.7,0.3 0.9,0.6c0.2,0.3 0.4,0.7 0.4,1.1c0,0.4 -0.1,0.8 -0.4,1.2c-0.3,0.3 -0.7,0.6 -1.4,0.7l1.5,2.1c0.3,0.5 0.6,0.8 0.9,1c0.2,0.2 0.6,0.3 1,0.3l0,0.1l-0.1,0Zm-5.2,-3.7l0.3,0c0.7,0 1.2,-0.2 1.6,-0.5c0.4,-0.3 0.5,-0.7 0.5,-1.1c0,-0.5 -0.1,-0.8 -0.4,-1.1c-0.3,-0.3 -0.7,-0.4 -1.1,-0.4c-0.2,0 -0.5,0 -0.8,0.1l0,3l-0.1,0Z" style="fill:#1a171b;fill-rule:nonzero;"/><path d="M322.7,22.6l0,2.9l1.6,0c0.4,0 0.7,-0.1 0.8,-0.2c0.2,-0.2 0.3,-0.5 0.3,-0.9l0.2,0l0,2.6l-0.2,0c-0.1,-0.4 -0.1,-0.6 -0.2,-0.7c-0.1,-0.1 -0.2,-0.2 -0.3,-0.3c-0.1,-0.1 -0.4,-0.1 -0.7,-0.1l-1.6,0l0,3c0,0.1 0.1,0.1 0.2,0.2c0.1,0 0.2,0.1 0.4,0.1l1.2,0c0.4,0 0.7,0 0.9,-0.1c0.2,-0.1 0.4,-0.2 0.5,-0.3c0.2,-0.2 0.4,-0.6 0.7,-1l0.2,0l-0.6,1.8l-5.6,0l0,-0.2l0.3,0c0.2,0 0.3,0 0.5,-0.1c0.1,-0.1 0.2,-0.1 0.2,-0.3c0,-0.2 0.1,-0.3 0.1,-0.7l0,-4.7c0,-0.5 0,-0.7 -0.1,-0.9c-0.1,-0.1 -0.3,-0.2 -0.6,-0.2l-0.3,0l0,-0.2l5.6,0l0.1,1.6l-0.2,0c-0.1,-0.4 -0.2,-0.6 -0.3,-0.8c-0.1,-0.2 -0.2,-0.3 -0.4,-0.3c-0.1,-0.1 -0.4,-0.1 -0.8,-0.1l-1.9,0l0,-0.1Z" style="fill:#1a171b;fill-rule:nonzero;"/></g><g><path d="M255.6,42.1l0,-0.2l0.3,0c0.3,0 0.5,-0.1 0.7,-0.3c0.1,-0.1 0.1,-0.4 0.1,-0.8l0,-4.7c0,-0.5 -0.1,-0.7 -0.2,-0.9c-0.1,-0.2 -0.3,-0.2 -0.6,-0.2l-0.3,0l0,-0.2l3,0c1.1,0 1.9,0.1 2.5,0.4c0.6,0.2 1,0.7 1.4,1.2c0.3,0.6 0.5,1.2 0.5,2c0,1 -0.3,1.9 -0.9,2.5c-0.7,0.8 -1.7,1.1 -3.2,1.1l-3.3,0l0,0.1Zm2.1,-0.5c0.5,0.1 0.8,0.2 1.1,0.2c0.8,0 1.5,-0.3 2.1,-0.9c0.5,-0.6 0.8,-1.4 0.8,-2.4c0,-1 -0.3,-1.8 -0.8,-2.4c-0.5,-0.6 -1.3,-0.9 -2.1,-0.9c-0.3,0 -0.7,0.1 -1.1,0.2l0,6.2Z" style="fill:#1a171b;fill-rule:nonzero;"/><path d="M265.6,35.2l0,2.9l1.6,0c0.4,0 0.7,-0.1 0.8,-0.2c0.2,-0.2 0.3,-0.5 0.3,-0.9l0.2,0l0,2.5l-0.2,0c0,-0.4 -0.1,-0.6 -0.2,-0.7c-0.1,-0.1 -0.2,-0.2 -0.3,-0.3c-0.1,-0.1 -0.4,-0.1 -0.7,-0.1l-1.6,0l0,3c0,0.1 0.1,0.1 0.2,0.2c0.1,0 0.2,0.1 0.4,0.1l1.2,0c0.4,0 0.7,0 0.9,-0.1c0.2,-0.1 0.4,-0.2 0.5,-0.3c0.2,-0.2 0.4,-0.6 0.7,-1l0.2,0l-0.6,1.8l-5.6,0l0,-0.2l0.3,0c0.2,0 0.3,0 0.5,-0.1c0.1,-0.1 0.2,-0.1 0.2,-0.3c0,-0.1 0.1,-0.3 0.1,-0.7l0,-4.7c0,-0.5 0,-0.7 -0.1,-0.9c-0.1,-0.1 -0.3,-0.2 -0.6,-0.2l-0.3,0l0,-0.2l5.6,0l0.1,1.6l-0.2,0c-0.1,-0.4 -0.2,-0.6 -0.2,-0.8c-0.1,-0.1 -0.2,-0.3 -0.4,-0.3c-0.1,-0.1 -0.4,-0.1 -0.8,-0.1l-2,0Z" style="fill:#1a171b;fill-rule:nonzero;"/><path d="M279,40.1l0.2,0l-0.6,2l-5.6,0l0,-0.2l0.3,0c0.3,0 0.5,-0.1 0.7,-0.3c0.1,-0.1 0.1,-0.4 0.1,-0.8l0,-4.7c0,-0.5 0,-0.7 -0.2,-0.9c-0.1,-0.2 -0.3,-0.2 -0.6,-0.2l-0.3,0l0,-0.2l3.3,0l0,0.2c-0.4,0 -0.7,0 -0.8,0.1c-0.2,0.1 -0.3,0.2 -0.3,0.3c0,0.1 -0.1,0.4 -0.1,0.8l0,4.6c0,0.3 0,0.5 0.1,0.6c0,0.1 0.1,0.1 0.2,0.2c0.1,0 0.4,0.1 0.8,0.1l0.5,0c0.6,0 1,0 1.2,-0.1c0.2,-0.1 0.4,-0.2 0.6,-0.4c0.1,-0.3 0.3,-0.6 0.5,-1.1Z" style="fill:#1a171b;fill-rule:nonzero;"/><path d="M280.6,37.4l0,-0.3c0.4,-0.2 0.6,-0.4 0.8,-0.6c0.1,-0.1 0.1,-0.3 0.1,-0.5c0,-0.1 0,-0.2 -0.1,-0.2c0,-0.1 -0.1,-0.1 -0.1,-0.1c0,0 -0.1,0 -0.2,0c-0.1,0 -0.2,0 -0.2,0c-0.1,0 -0.3,-0.1 -0.4,-0.2c-0.1,-0.1 -0.2,-0.2 -0.2,-0.4c0,-0.2 0.1,-0.3 0.2,-0.4c0.2,-0.1 0.3,-0.2 0.5,-0.2c0.2,0 0.5,0.1 0.6,0.3c0.1,0.2 0.3,0.5 0.3,0.8c0,0.4 -0.2,0.8 -0.5,1.2c-0.1,0.3 -0.4,0.5 -0.8,0.6Z" style="fill:#1a171b;fill-rule:nonzero;"/><path d="M285.2,35.2l0,2.9l1.6,0c0.4,0 0.7,-0.1 0.8,-0.2c0.2,-0.2 0.3,-0.5 0.3,-0.9l0.2,0l0,2.5l-0.1,0c0,-0.4 -0.1,-0.6 -0.2,-0.7c-0.1,-0.1 -0.2,-0.2 -0.3,-0.3c-0.1,-0.1 -0.4,-0.1 -0.7,-0.1l-1.6,0l0,3c0,0.1 0.1,0.1 0.2,0.2c0.1,0.1 0.2,0.1 0.4,0.1l1.2,0c0.4,0 0.7,0 0.9,-0.1c0.2,-0.1 0.4,-0.2 0.5,-0.3c0.2,-0.2 0.4,-0.6 0.7,-1l0.2,0l-0.6,1.8l-5.6,0l0,-0.2l0.3,0c0.2,0 0.3,0 0.5,-0.1c0.1,-0.1 0.2,-0.1 0.2,-0.3c0,-0.1 0.1,-0.3 0.1,-0.7l0,-4.7c0,-0.5 0,-0.7 -0.1,-0.9c-0.1,-0.1 -0.3,-0.2 -0.6,-0.2l-0.3,0l0,-0.2l5.6,0l0.1,1.6l-0.2,0c-0.1,-0.4 -0.2,-0.6 -0.2,-0.8c-0.1,-0.1 -0.2,-0.3 -0.4,-0.3c-0.1,-0.1 -0.4,-0.1 -0.8,-0.1l-2.1,0Zm2.3,-2.7l-1.6,1.9l-0.2,0l0.6,-1.9l1.2,0Z" style="fill:#1a171b;fill-rule:nonzero;"/><path d="M296.2,34.7l0.2,2.5l-0.2,0c-0.2,-0.7 -0.5,-1.3 -1,-1.6c-0.5,-0.3 -0.9,-0.5 -1.5,-0.5c-0.5,0 -0.9,0.1 -1.3,0.4c-0.4,0.3 -0.7,0.6 -0.9,1.2c-0.2,0.6 -0.3,1.2 -0.3,2c0,0.7 0.1,1.2 0.3,1.7c0.2,0.5 0.5,0.9 1,1.1c0.4,0.3 0.9,0.4 1.5,0.4c0.5,0 0.9,-0.1 1.3,-0.3c0.4,-0.2 0.8,-0.6 1.2,-1.2l0.2,0.1c-0.4,0.6 -0.8,1.1 -1.3,1.4c-0.5,0.3 -1.1,0.5 -1.7,0.5c-1.2,0 -2.1,-0.4 -2.8,-1.3c-0.5,-0.7 -0.7,-1.5 -0.7,-2.4c0,-0.7 0.2,-1.4 0.5,-2c0.3,-0.6 0.8,-1.1 1.3,-1.4c0.5,-0.3 1.2,-0.5 1.9,-0.5c0.5,0 1,0.1 1.6,0.4c0.2,0.1 0.3,0.1 0.3,0.1c0.1,0 0.2,0 0.3,-0.1c0.1,-0.1 0.2,-0.2 0.2,-0.4l-0.1,0l0,-0.1Z" style="fill:#1a171b;fill-rule:nonzero;"/><path d="M300.9,34.7c0.9,0 1.8,0.4 2.5,1.1c0.7,0.7 1,1.6 1,2.7c0,1.1 -0.3,2 -1,2.8c-0.7,0.7 -1.5,1.1 -2.5,1.1c-1,0 -1.8,-0.4 -2.5,-1.1c-0.7,-0.7 -1,-1.6 -1,-2.8c0,-1.2 0.4,-2.1 1.2,-2.8c0.5,-0.7 1.3,-1 2.3,-1Zm-0.1,0.4c-0.7,0 -1.2,0.2 -1.6,0.7c-0.5,0.6 -0.7,1.5 -0.7,2.6c0,1.2 0.3,2.1 0.8,2.7c0.4,0.5 0.9,0.7 1.5,0.7c0.7,0 1.2,-0.3 1.7,-0.8c0.4,-0.5 0.7,-1.4 0.7,-2.5c0,-1.2 -0.2,-2.2 -0.7,-2.8c-0.5,-0.4 -1,-0.6 -1.7,-0.6Z" style="fill:#1a171b;fill-rule:nonzero;"/><path d="M304.6,34.8l2,0l4.5,5.5l0,-4.2c0,-0.4 0,-0.7 -0.2,-0.8c-0.1,-0.2 -0.3,-0.2 -0.6,-0.2l-0.3,0l0,-0.2l2.5,0l0,0.1l-0.3,0c-0.3,0 -0.5,0.1 -0.7,0.3c-0.1,0.1 -0.1,0.4 -0.1,0.8l0,6.1l-0.2,0l-4.8,-5.9l0,4.5c0,0.4 0,0.7 0.1,0.8c0.1,0.2 0.3,0.2 0.6,0.2l0.3,0l0,0.2l-2.4,0l0,-0.2l0.3,0c0.3,0 0.5,-0.1 0.7,-0.3c0.1,-0.1 0.1,-0.4 0.1,-0.8l0,-5.1c-0.2,-0.2 -0.4,-0.4 -0.5,-0.5c-0.1,-0.1 -0.3,-0.2 -0.5,-0.2c-0.1,0 -0.3,0 -0.5,0l0,-0.1Z" style="fill:#1a171b;fill-rule:nonzero;"/><path d="M316.7,34.7c0.9,0 1.8,0.4 2.5,1.1c0.7,0.7 1,1.6 1,2.7c0,1.1 -0.3,2 -1,2.8c-0.7,0.7 -1.5,1.1 -2.5,1.1c-1,0 -1.8,-0.4 -2.5,-1.1c-0.7,-0.7 -1,-1.6 -1,-2.8c0,-1.2 0.4,-2.1 1.2,-2.8c0.5,-0.7 1.3,-1 2.3,-1Zm-0.1,0.4c-0.7,0 -1.2,0.2 -1.6,0.7c-0.5,0.6 -0.7,1.5 -0.7,2.6c0,1.2 0.3,2.1 0.8,2.7c0.4,0.5 0.9,0.7 1.5,0.7c0.7,0 1.2,-0.3 1.7,-0.8c0.4,-0.5 0.7,-1.4 0.7,-2.5c0,-1.2 -0.2,-2.2 -0.7,-2.8c-0.5,-0.4 -1,-0.6 -1.7,-0.6Z" style="fill:#1a171b;fill-rule:nonzero;"/><path d="M325,42.1l-2.8,-6.1l0,4.9c0,0.4 0,0.7 0.1,0.8c0.1,0.2 0.3,0.2 0.6,0.2l0.3,0l0,0.2l-2.5,0l0,-0.2l0.3,0c0.3,0 0.5,-0.1 0.7,-0.3c0.1,-0.1 0.1,-0.4 0.1,-0.8l0,-4.8c0,-0.3 0,-0.6 -0.1,-0.7c0,-0.1 -0.1,-0.2 -0.3,-0.3c-0.1,-0.1 -0.4,-0.1 -0.6,-0.1l0,-0.2l2.1,0l2.6,5.7l2.6,-5.7l2.1,0l0,0.3l-0.3,0c-0.3,0 -0.5,0.1 -0.7,0.3c-0.1,0.1 -0.1,0.4 -0.1,0.8l0,4.8c0,0.4 0,0.7 0.2,0.8c0.1,0.2 0.3,0.2 0.6,0.2l0.3,0l0,0.2l-3.2,0l0,-0.2l0.3,0c0.3,0 0.5,-0.1 0.7,-0.3c0.1,-0.1 0.1,-0.4 0.1,-0.8l0,-4.8l-2.8,6.1l-0.3,0Z" style="fill:#1a171b;fill-rule:nonzero;"/><path d="M333.7,41.9l0,0.2l-3.1,0l0,-0.2l0.3,0c0.3,0 0.5,-0.1 0.7,-0.3c0.1,-0.1 0.1,-0.4 0.1,-0.8l0,-4.7c0,-0.4 0,-0.6 -0.1,-0.7c0,-0.1 -0.1,-0.2 -0.2,-0.2c-0.2,-0.1 -0.3,-0.1 -0.5,-0.1l-0.3,0l0,-0.2l3.1,0l0,0.1l-0.3,0c-0.3,0 -0.5,0.1 -0.6,0.3c-0.1,0.1 -0.1,0.4 -0.1,0.8l0,4.7c0,0.4 0,0.6 0.1,0.7c0,0.1 0.1,0.2 0.2,0.2c0.2,0.1 0.3,0.1 0.5,0.1l0.2,0l0,0.1Z" style="fill:#1a171b;fill-rule:nonzero;"/><path d="M336.2,35.2l0,2.9l1.6,0c0.4,0 0.7,-0.1 0.8,-0.2c0.2,-0.2 0.3,-0.5 0.3,-0.9l0.2,0l0,2.5l-0.2,0c0,-0.4 -0.1,-0.6 -0.2,-0.7c-0.1,-0.1 -0.2,-0.2 -0.3,-0.3c-0.1,-0.1 -0.4,-0.1 -0.7,-0.1l-1.6,0l0,3c0,0.1 0.1,0.1 0.2,0.2c0.1,0.1 0.2,0.1 0.4,0.1l1.2,0c0.4,0 0.7,0 0.9,-0.1c0.2,-0.1 0.4,-0.2 0.5,-0.3c0.2,-0.2 0.4,-0.6 0.7,-1l0.2,0l-0.6,1.8l-5.6,0l0,-0.2l0.3,0c0.2,0 0.3,0 0.5,-0.1c0.1,-0.1 0.2,-0.1 0.2,-0.3c0,-0.2 0.1,-0.3 0.1,-0.7l0,-4.7c0,-0.5 0,-0.7 -0.1,-0.9c-0.1,-0.1 -0.3,-0.2 -0.6,-0.2l-0.3,0l0,-0.2l5.6,0l0.1,1.6l-0.2,0c-0.1,-0.4 -0.2,-0.6 -0.2,-0.8c-0.1,-0.1 -0.2,-0.3 -0.4,-0.3c-0.1,-0.1 -0.4,-0.1 -0.8,-0.1l-2,0Z" style="fill:#1a171b;fill-rule:nonzero;"/></g><g><path d="M253.9,48.7l0,2.9l1.6,0c0.4,0 0.7,-0.1 0.8,-0.2c0.2,-0.2 0.3,-0.5 0.3,-0.9l0.2,0l0,2.5l-0.2,0c0,-0.4 -0.1,-0.6 -0.2,-0.7c-0.1,-0.1 -0.2,-0.2 -0.3,-0.3c-0.1,-0.1 -0.4,-0.1 -0.7,-0.1l-1.6,0l0,3c0,0.1 0.1,0.1 0.2,0.2c0.1,0 0.2,0.1 0.4,0.1l1.2,0c0.4,0 0.7,0 0.9,-0.1c0.2,-0.1 0.4,-0.2 0.5,-0.3c0.2,-0.2 0.4,-0.6 0.7,-1l0.2,0l-0.6,1.8l-5.6,0l0,-0.2l0.3,0c0.2,0 0.3,0 0.5,-0.1c0.1,-0.1 0.2,-0.1 0.2,-0.3c0,-0.1 0.1,-0.3 0.1,-0.7l0,-4.7c0,-0.5 0,-0.7 -0.1,-0.9c-0.1,-0.1 -0.3,-0.2 -0.6,-0.2l-0.3,0l0,-0.2l5.6,0l0.1,1.6l-0.2,0c-0.1,-0.4 -0.2,-0.6 -0.2,-0.8c-0.1,-0.1 -0.2,-0.3 -0.4,-0.3c-0.1,-0.1 -0.4,-0.1 -0.8,-0.1l-2,0Z" style="fill:#1a171b;fill-rule:nonzero;"/><path d="M264.7,48.3l0.1,1.7l-0.2,0c0,-0.3 -0.1,-0.5 -0.2,-0.6c-0.1,-0.2 -0.3,-0.4 -0.4,-0.5c-0.2,-0.1 -0.4,-0.1 -0.7,-0.1l-1,0l0,5.6c0,0.4 0,0.7 0.1,0.8c0.1,0.2 0.3,0.2 0.6,0.2l0.3,0l0,0.2l-3.1,0l0,-0.2l0.3,0c0.3,0 0.5,-0.1 0.7,-0.3c0.1,-0.1 0.1,-0.4 0.1,-0.8l0,-5.6l-0.9,0c-0.3,0 -0.6,0 -0.7,0.1c-0.2,0.1 -0.3,0.2 -0.5,0.4c-0.1,0.2 -0.2,0.5 -0.2,0.8l-0.2,0l0.1,-1.7l5.8,0Z" style="fill:#1a171b;fill-rule:nonzero;"/><path d="M267.8,55.6l0,-0.2l0.3,0c0.3,0 0.5,-0.1 0.7,-0.3c0.1,-0.1 0.1,-0.4 0.1,-0.8l0,-4.7c0,-0.5 -0.1,-0.7 -0.2,-0.9c-0.1,-0.2 -0.3,-0.2 -0.6,-0.2l-0.3,0l0,-0.2l3,0c1.1,0 1.9,0.1 2.5,0.4c0.6,0.2 1,0.7 1.4,1.2c0.3,0.6 0.5,1.2 0.5,2c0,1 -0.3,1.9 -0.9,2.5c-0.7,0.8 -1.7,1.1 -3.2,1.1l-3.3,0l0,0.1Zm2.1,-0.5c0.5,0.1 0.8,0.2 1.1,0.2c0.8,0 1.5,-0.3 2.1,-0.9c0.5,-0.6 0.8,-1.4 0.8,-2.4c0,-1 -0.3,-1.8 -0.8,-2.4c-0.5,-0.6 -1.3,-0.9 -2.1,-0.9c-0.3,0 -0.7,0.1 -1.1,0.2l0,6.2Z" style="fill:#1a171b;fill-rule:nonzero;"/><path d="M277.8,48.7l0,2.9l1.6,0c0.4,0 0.7,-0.1 0.8,-0.2c0.2,-0.2 0.3,-0.5 0.3,-0.9l0.2,0l0,2.5l-0.2,0c0,-0.4 -0.1,-0.6 -0.2,-0.7c-0.1,-0.1 -0.2,-0.2 -0.3,-0.3c-0.1,-0.1 -0.4,-0.1 -0.7,-0.1l-1.6,0l0,3c0,0.1 0.1,0.1 0.2,0.2c0.1,0 0.2,0.1 0.4,0.1l1.2,0c0.4,0 0.7,0 0.9,-0.1c0.2,-0.1 0.4,-0.2 0.5,-0.3c0.2,-0.2 0.4,-0.6 0.7,-1l0.2,0l-0.6,1.8l-5.6,0l0,-0.2l0.3,0c0.2,0 0.3,0 0.5,-0.1c0.1,-0.1 0.2,-0.1 0.2,-0.3c0,-0.1 0.1,-0.3 0.1,-0.7l0,-4.7c0,-0.5 0,-0.7 -0.1,-0.9c-0.1,-0.1 -0.3,-0.2 -0.6,-0.2l-0.3,0l0,-0.2l5.6,0l0.1,1.6l-0.2,0c-0.1,-0.4 -0.2,-0.6 -0.2,-0.8c-0.1,-0.1 -0.2,-0.3 -0.4,-0.3c-0.1,-0.1 -0.4,-0.1 -0.8,-0.1l-2,0Z" style="fill:#1a171b;fill-rule:nonzero;"/><path d="M287.2,48.2l0,2.5l-0.2,0c-0.1,-0.5 -0.2,-0.9 -0.3,-1.2c-0.2,-0.3 -0.4,-0.5 -0.7,-0.7c-0.3,-0.2 -0.6,-0.3 -1,-0.3c-0.4,0 -0.7,0.1 -0.9,0.3c-0.2,0.2 -0.4,0.5 -0.4,0.8c0,0.2 0.1,0.4 0.2,0.6c0.2,0.3 0.8,0.6 1.6,1.1c0.7,0.4 1.1,0.6 1.4,0.8c0.2,0.2 0.4,0.4 0.6,0.7c0.1,0.3 0.2,0.5 0.2,0.8c0,0.6 -0.2,1 -0.6,1.4c-0.4,0.4 -1,0.6 -1.7,0.6c-0.2,0 -0.4,0 -0.6,0c-0.1,0 -0.3,-0.1 -0.7,-0.2c-0.3,-0.1 -0.6,-0.2 -0.7,-0.2c-0.1,0 -0.2,0 -0.2,0.1c-0.1,0.1 -0.1,0.2 -0.1,0.3l-0.1,0l0,-2.5l0.2,0c0.1,0.5 0.2,0.9 0.4,1.2c0.2,0.3 0.4,0.5 0.7,0.6c0.3,0.2 0.7,0.3 1.1,0.3c0.4,0 0.8,-0.1 1.1,-0.4c0.3,-0.2 0.4,-0.5 0.4,-0.8c0,-0.2 0,-0.4 -0.1,-0.5c-0.1,-0.2 -0.3,-0.4 -0.5,-0.5c-0.1,-0.1 -0.5,-0.3 -1.1,-0.7c-0.6,-0.3 -1.1,-0.6 -1.3,-0.8c-0.3,-0.2 -0.5,-0.4 -0.6,-0.7c-0.1,-0.3 -0.2,-0.5 -0.2,-0.8c0,-0.5 0.2,-1 0.6,-1.4c0.4,-0.4 0.9,-0.6 1.5,-0.6c0.4,0 0.8,0.1 1.2,0.3c0.2,0.1 0.3,0.1 0.4,0.1c0.1,0 0.2,0 0.2,-0.1c0.1,-0.1 0.1,-0.2 0.1,-0.3l0.1,0l0,0.2Z" style="fill:#1a171b;fill-rule:nonzero;"/><path d="M293.2,48.7l0,2.9l1.3,0c0.3,0 0.5,-0.1 0.7,-0.2c0.1,-0.1 0.2,-0.4 0.3,-0.8l0.2,0l0,2.5l-0.2,0c0,-0.3 0,-0.5 -0.1,-0.6c-0.1,-0.1 -0.2,-0.2 -0.3,-0.3c-0.1,-0.1 -0.3,-0.1 -0.6,-0.1l-1.3,0l0,2.3c0,0.4 0,0.6 0.1,0.7c0,0.1 0.1,0.2 0.2,0.2c0.2,0.1 0.3,0.1 0.5,0.1l0.3,0l0,0.2l-3.1,0l0,-0.2l0.3,0c0.3,0 0.5,-0.1 0.7,-0.3c0.1,-0.1 0.1,-0.4 0.1,-0.8l0,-4.7c0,-0.4 0,-0.6 -0.1,-0.7c0,-0.1 -0.1,-0.2 -0.2,-0.2c-0.2,-0.1 -0.3,-0.1 -0.5,-0.1l-0.3,0l0,-0.2l5.4,0l0.1,1.6l-0.2,0c-0.1,-0.3 -0.2,-0.6 -0.3,-0.7c-0.1,-0.2 -0.3,-0.3 -0.5,-0.3c-0.2,0 -0.5,-0.1 -0.8,-0.1l-1.7,0l0,-0.2Z" style="fill:#1a171b;fill-rule:nonzero;"/><path d="M300.4,55.4l0,0.2l-3.1,0l0,-0.2l0.3,0c0.3,0 0.5,-0.1 0.7,-0.3c0.1,-0.1 0.1,-0.4 0.1,-0.8l0,-4.7c0,-0.4 0,-0.6 -0.1,-0.7c0,-0.1 -0.1,-0.2 -0.2,-0.2c-0.2,-0.1 -0.3,-0.1 -0.5,-0.1l-0.3,0l0,-0.2l3.1,0l0,0.2l-0.3,0c-0.3,0 -0.5,0.1 -0.7,0.3c-0.1,0.1 -0.1,0.4 -0.1,0.8l0,4.7c0,0.4 0,0.6 0.1,0.7c0,0.1 0.1,0.2 0.2,0.2c0.2,0.1 0.3,0.1 0.5,0.1l0.3,0Z" style="fill:#1a171b;fill-rule:nonzero;"/><path d="M300.5,48.3l2,0l4.5,5.5l0,-4.2c0,-0.4 -0.1,-0.7 -0.2,-0.8c-0.1,-0.2 -0.3,-0.2 -0.6,-0.2l-0.3,0l0,-0.2l2.5,0l0,0.2l-0.3,0c-0.3,0 -0.5,0.1 -0.7,0.3c-0.1,0.1 -0.1,0.4 -0.1,0.8l0,6.1l-0.2,0l-4.8,-5.9l0,4.5c0,0.4 0,0.7 0.1,0.8c0.1,0.2 0.3,0.2 0.6,0.2l0.3,0l0,0.2l-2.5,0l0,-0.2l0.3,0c0.3,0 0.5,-0.1 0.7,-0.3c0.1,-0.1 0.1,-0.4 0.1,-0.8l0,-5.1c-0.2,-0.2 -0.4,-0.4 -0.5,-0.5c-0.1,-0.1 -0.3,-0.2 -0.5,-0.2c-0.1,0 -0.3,0 -0.5,0l0,-0.2l0.1,0Z" style="fill:#1a171b;fill-rule:nonzero;"/><path d="M313.6,53.2l-2.8,0l-0.5,1.1c-0.1,0.3 -0.2,0.5 -0.2,0.6c0,0.1 0.1,0.2 0.2,0.3c0.1,0.1 0.3,0.1 0.7,0.2l0,0.2l-2.3,0l0,-0.2c0.3,-0.1 0.5,-0.1 0.6,-0.2c0.2,-0.2 0.4,-0.5 0.6,-1l2.6,-6l0.2,0l2.5,6.1c0.2,0.5 0.4,0.8 0.6,0.9c0.2,0.1 0.4,0.2 0.7,0.2l0,0.2l-2.9,0l0,-0.2c0.3,0 0.5,-0.1 0.6,-0.1c0.1,-0.1 0.2,-0.2 0.2,-0.3c0,-0.2 -0.1,-0.4 -0.2,-0.7l-0.6,-1.1Zm-0.2,-0.4l-1.2,-2.9l-1.3,2.9l2.5,0Z" style="fill:#1a171b;fill-rule:nonzero;"/><path d="M316.3,48.3l2,0l4.5,5.5l0,-4.2c0,-0.4 0,-0.7 -0.2,-0.8c-0.1,-0.2 -0.3,-0.2 -0.6,-0.2l-0.3,0l0,-0.2l2.5,0l0,0.2l-0.3,0c-0.3,0 -0.5,0.1 -0.7,0.3c-0.1,0.1 -0.1,0.4 -0.1,0.8l0,6.1l-0.1,0l-4.8,-5.9l0,4.5c0,0.4 0,0.7 0.1,0.8c0.1,0.2 0.3,0.2 0.6,0.2l0.3,0l0,0.2l-2.5,0l0,-0.2l0.3,0c0.3,0 0.5,-0.1 0.7,-0.3c0.1,-0.1 0.1,-0.4 0.1,-0.8l0,-5.1c-0.2,-0.2 -0.4,-0.4 -0.5,-0.5c-0.1,-0.1 -0.3,-0.2 -0.5,-0.2c-0.1,0 -0.3,0 -0.5,0l0,-0.2Z" style="fill:#1a171b;fill-rule:nonzero;"/><path d="M330.9,48.2l0.2,2.5l-0.2,0c-0.2,-0.7 -0.5,-1.3 -1,-1.6c-0.5,-0.3 -0.9,-0.5 -1.5,-0.5c-0.5,0 -0.9,0.1 -1.3,0.4c-0.4,0.3 -0.7,0.6 -0.9,1.2c-0.2,0.6 -0.3,1.2 -0.3,2c0,0.7 0.1,1.2 0.3,1.7c0.2,0.5 0.5,0.9 1,1.1c0.4,0.3 0.9,0.4 1.5,0.4c0.5,0 0.9,-0.1 1.3,-0.3c0.4,-0.2 0.8,-0.6 1.2,-1.2l0.2,0.1c-0.4,0.6 -0.8,1.1 -1.3,1.4c-0.5,0.3 -1.1,0.5 -1.7,0.5c-1.2,0 -2.1,-0.4 -2.8,-1.3c-0.5,-0.7 -0.7,-1.5 -0.7,-2.4c0,-0.7 0.2,-1.4 0.5,-2c0.3,-0.6 0.8,-1.1 1.3,-1.4c0.5,-0.3 1.2,-0.5 1.9,-0.5c0.5,0 1,0.1 1.6,0.4c0.2,0.1 0.3,0.1 0.3,0.1c0.1,0 0.2,0 0.3,-0.1c0.1,-0.1 0.2,-0.2 0.2,-0.4l-0.1,0l0,-0.1Z" style="fill:#1a171b;fill-rule:nonzero;"/><path d="M333.9,48.7l0,2.9l1.6,0c0.4,0 0.7,-0.1 0.8,-0.2c0.2,-0.2 0.3,-0.5 0.3,-0.9l0.2,0l0,2.5l-0.2,0c0,-0.4 -0.1,-0.6 -0.2,-0.7c-0.1,-0.1 -0.2,-0.2 -0.3,-0.3c-0.1,-0.1 -0.4,-0.1 -0.7,-0.1l-1.6,0l0,3c0,0.1 0.1,0.1 0.2,0.2c0.1,0.1 0.2,0.1 0.4,0.1l1.2,0c0.4,0 0.7,0 0.9,-0.1c0.2,-0.1 0.4,-0.2 0.5,-0.3c0.2,-0.2 0.4,-0.6 0.7,-1l0.2,0l-0.6,1.8l-5.6,0l0,-0.2l0.3,0c0.2,0 0.3,0 0.5,-0.1c0.1,-0.1 0.2,-0.1 0.2,-0.3c0,-0.2 0.1,-0.3 0.1,-0.7l0,-4.7c0,-0.5 0,-0.7 -0.1,-0.9c-0.1,-0.1 -0.3,-0.2 -0.6,-0.2l-0.3,0l0,-0.2l5.6,0l0.1,1.6l-0.2,0c-0.1,-0.4 -0.2,-0.6 -0.2,-0.8c-0.1,-0.1 -0.2,-0.3 -0.4,-0.3c-0.1,-0.1 -0.4,-0.1 -0.8,-0.1l-2,0Z" style="fill:#1a171b;fill-rule:nonzero;"/><path d="M343.3,48.2l0,2.5l-0.2,0c-0.1,-0.5 -0.2,-0.9 -0.3,-1.2c-0.2,-0.3 -0.4,-0.5 -0.7,-0.7c-0.3,-0.2 -0.6,-0.3 -1,-0.3c-0.4,0 -0.7,0.1 -0.9,0.3c-0.2,0.2 -0.4,0.5 -0.4,0.8c0,0.2 0.1,0.4 0.2,0.6c0.2,0.3 0.8,0.6 1.6,1.1c0.7,0.4 1.1,0.6 1.4,0.8c0.3,0.2 0.4,0.4 0.6,0.7c0.1,0.3 0.2,0.5 0.2,0.8c0,0.6 -0.2,1 -0.6,1.4c-0.4,0.4 -1,0.6 -1.7,0.6c-0.2,0 -0.4,0 -0.6,0c-0.1,0 -0.3,-0.1 -0.7,-0.2c-0.3,-0.1 -0.6,-0.2 -0.7,-0.2c-0.1,0 -0.2,0 -0.2,0.1c-0.1,0.1 -0.1,0.2 -0.1,0.3l-0.2,0l0,-2.5l0.2,0c0.1,0.5 0.2,0.9 0.4,1.2c0.2,0.3 0.4,0.5 0.7,0.6c0.3,0.1 0.7,0.3 1.1,0.3c0.4,0 0.8,-0.1 1.1,-0.4c0.3,-0.3 0.4,-0.5 0.4,-0.8c0,-0.2 0,-0.4 -0.1,-0.5c-0.1,-0.1 -0.3,-0.4 -0.5,-0.5c-0.1,-0.1 -0.5,-0.3 -1.1,-0.7c-0.6,-0.3 -1.1,-0.6 -1.3,-0.8c-0.3,-0.2 -0.5,-0.4 -0.6,-0.7c-0.1,-0.3 -0.2,-0.5 -0.2,-0.8c0,-0.5 0.2,-1 0.6,-1.4c0.4,-0.4 0.9,-0.6 1.5,-0.6c0.4,0 0.8,0.1 1.2,0.3c0.2,0.1 0.3,0.1 0.4,0.1c0.1,0 0.2,0 0.2,-0.1c0.1,-0.1 0.1,-0.2 0.1,-0.3l0.2,0l0,0.2Z" style="fill:#1a171b;fill-rule:nonzero;"/></g></g><rect id="Cadre_1_" x="119.5" y="-0.3" width="119" height="79" style="fill:none;stroke:#1a171b;stroke-width:1px;"/><g><g><path d="M154.8,24.1l-2.8,-6.1l0,4.9c0,0.4 0,0.7 0.1,0.8c0.1,0.2 0.3,0.2 0.6,0.2l0.3,0l0,0.2l-2.5,0l0,-0.2l0.3,0c0.3,0 0.5,-0.1 0.7,-0.3c0.1,-0.1 0.1,-0.4 0.1,-0.8l0,-4.8c0,-0.3 0,-0.6 -0.1,-0.7c0,-0.1 -0.1,-0.2 -0.3,-0.3c-0.1,-0.1 -0.3,-0.1 -0.6,-0.1l0,-0.2l2.1,0l2.6,5.7l2.6,-5.7l2.1,0l0,0.2l-0.3,0c-0.3,0 -0.5,0.1 -0.7,0.3c-0.1,0.1 -0.1,0.4 -0.1,0.8l0,4.8c0,0.4 0,0.7 0.2,0.8c0.1,0.2 0.3,0.2 0.6,0.2l0.3,0l0,0.2l-3.1,0l0,-0.2l0.3,0c0.3,0 0.5,-0.1 0.7,-0.3c0.1,-0.1 0.1,-0.4 0.1,-0.8l0,-4.7l-2.8,6.1l-0.4,0Z" style="fill:#1a171b;fill-rule:nonzero;"/><path d="M163.4,23.9l0,0.2l-3.1,0l0,-0.2l0.3,0c0.3,0 0.5,-0.1 0.7,-0.3c0.1,-0.1 0.1,-0.4 0.1,-0.8l0,-4.7c0,-0.4 0,-0.6 -0.1,-0.7c0,-0.1 -0.1,-0.2 -0.2,-0.2c-0.2,-0.1 -0.3,-0.1 -0.5,-0.1l-0.3,0l0,-0.2l3.1,0l0,0.2l-0.3,0c-0.3,0 -0.5,0.1 -0.7,0.3c-0.1,0.1 -0.1,0.4 -0.1,0.8l0,4.7c0,0.4 0,0.6 0.1,0.7c0,0.1 0.1,0.2 0.2,0.2c0.2,0.1 0.3,0.1 0.5,0.1l0.3,0Z" style="fill:#1a171b;fill-rule:nonzero;"/><path d="M163.5,16.9l2,0l4.5,5.5l0,-4.2c0,-0.4 0,-0.7 -0.2,-0.8c-0.1,-0.2 -0.3,-0.2 -0.6,-0.2l-0.3,0l0,-0.2l2.5,0l0,0.2l-0.3,0c-0.3,0 -0.5,0.1 -0.7,0.3c-0.1,0.1 -0.1,0.4 -0.1,0.8l0,6.1l-0.2,0l-4.8,-5.9l0,4.5c0,0.4 0,0.7 0.1,0.8c0.1,0.2 0.3,0.2 0.6,0.2l0.3,0l0,0.2l-2.5,0l0,-0.2l0.3,0c0.3,0 0.5,-0.1 0.7,-0.3c0.1,-0.1 0.1,-0.4 0.1,-0.8l0,-5.1c-0.2,-0.2 -0.4,-0.4 -0.5,-0.5c-0.1,-0.1 -0.3,-0.2 -0.5,-0.2c-0.1,0 -0.3,0 -0.5,0l0,-0.2l0.1,0Z" style="fill:#1a171b;fill-rule:nonzero;"/><path d="M174.9,23.9l0,0.2l-3.1,0l0,-0.2l0.3,0c0.3,0 0.5,-0.1 0.7,-0.3c0.1,-0.1 0.1,-0.4 0.1,-0.8l0,-4.7c0,-0.4 0,-0.6 -0.1,-0.7c0,-0.1 -0.1,-0.2 -0.2,-0.2c-0.2,-0.1 -0.3,-0.1 -0.5,-0.1l-0.3,0l0,-0.2l3.1,0l0,0.2l-0.3,0c-0.3,0 -0.5,0.1 -0.6,0.3c-0.1,0.1 -0.1,0.4 -0.1,0.8l0,4.7c0,0.4 0,0.6 0.1,0.7c0,0.1 0.1,0.2 0.2,0.2c0.2,0.1 0.3,0.1 0.5,0.1l0.2,0Z" style="fill:#1a171b;fill-rule:nonzero;"/><path d="M180.2,16.7l0,2.5l-0.2,0c-0.1,-0.5 -0.2,-0.9 -0.3,-1.2c-0.2,-0.3 -0.4,-0.5 -0.7,-0.7c-0.3,-0.2 -0.6,-0.3 -1,-0.3c-0.4,0 -0.7,0.1 -0.9,0.3c-0.2,0.2 -0.4,0.5 -0.4,0.8c0,0.2 0.1,0.4 0.2,0.6c0.2,0.3 0.8,0.6 1.6,1.1c0.7,0.4 1.1,0.6 1.4,0.8c0.3,0.2 0.4,0.4 0.6,0.7c0.1,0.3 0.2,0.5 0.2,0.8c0,0.6 -0.2,1 -0.6,1.4c-0.4,0.4 -1,0.6 -1.7,0.6c-0.2,0 -0.4,0 -0.6,0c-0.1,0 -0.3,-0.1 -0.7,-0.2c-0.3,-0.1 -0.6,-0.2 -0.7,-0.2c-0.1,0 -0.2,0 -0.2,0.1c-0.1,0.1 -0.1,0.2 -0.1,0.3l-0.2,0l0,-2.5l0.2,0c0.1,0.5 0.2,0.9 0.4,1.2c0.2,0.3 0.4,0.5 0.7,0.6c0.3,0.1 0.7,0.3 1.1,0.3c0.4,0 0.8,-0.1 1.1,-0.4c0.3,-0.3 0.4,-0.5 0.4,-0.8c0,-0.2 0,-0.4 -0.1,-0.5c-0.1,-0.2 -0.3,-0.4 -0.5,-0.5c-0.1,-0.1 -0.5,-0.3 -1.1,-0.7c-0.6,-0.3 -1.1,-0.6 -1.3,-0.8c-0.3,-0.2 -0.5,-0.4 -0.6,-0.7c-0.1,-0.3 -0.2,-0.5 -0.2,-0.8c0,-0.5 0.2,-1 0.6,-1.4c0.4,-0.4 0.9,-0.6 1.5,-0.6c0.4,0 0.8,0.1 1.2,0.3c0.2,0.1 0.3,0.1 0.4,0.1c0.1,0 0.2,0 0.2,-0.1c0.1,-0.1 0.1,-0.2 0.1,-0.3l0.2,0l0,0.2Z" style="fill:#1a171b;fill-rule:nonzero;"/><path d="M187.5,16.9l0.1,1.7l-0.2,0c0,-0.3 -0.1,-0.5 -0.2,-0.6c-0.1,-0.2 -0.3,-0.4 -0.4,-0.5c-0.1,-0.1 -0.4,-0.1 -0.7,-0.1l-1,0l0,5.6c0,0.4 0,0.7 0.1,0.8c0.1,0.2 0.3,0.2 0.6,0.2l0.3,0l0,0.2l-3.1,0l0,-0.2l0.3,0c0.3,0 0.5,-0.1 0.7,-0.3c0.1,-0.1 0.1,-0.4 0.1,-0.8l0,-5.6l-0.9,0c-0.3,0 -0.6,0 -0.7,0.1c-0.2,0.1 -0.3,0.2 -0.5,0.4c-0.2,0.2 -0.2,0.5 -0.2,0.8l-0.2,0l0.1,-1.7l5.8,0Z" style="fill:#1a171b;fill-rule:nonzero;"/><path d="M190.2,17.2l0,2.9l1.6,0c0.4,0 0.7,-0.1 0.8,-0.2c0.2,-0.2 0.3,-0.5 0.3,-0.9l0.2,0l0,2.5l-0.2,0c0,-0.4 -0.1,-0.6 -0.2,-0.7c-0.1,-0.1 -0.2,-0.2 -0.3,-0.3c-0.1,-0.1 -0.4,-0.1 -0.7,-0.1l-1.6,0l0,3c0,0.1 0.1,0.1 0.2,0.2c0.1,0.1 0.2,0.1 0.4,0.1l1.2,0c0.4,0 0.7,0 0.9,-0.1c0.2,-0.1 0.4,-0.2 0.5,-0.3c0.2,-0.2 0.4,-0.6 0.7,-1l0.2,0l-0.6,1.8l-5.6,0l0,-0.2l0.3,0c0.2,0 0.3,0 0.5,-0.1c0.1,-0.1 0.2,-0.1 0.2,-0.3c0,-0.2 0.1,-0.3 0.1,-0.7l0,-4.7c0,-0.5 0,-0.7 -0.1,-0.9c-0.1,-0.1 -0.3,-0.2 -0.6,-0.2l-0.3,0l0,-0.2l5.6,0l0.1,1.6l-0.2,0c-0.1,-0.4 -0.2,-0.6 -0.2,-0.8c-0.1,-0.1 -0.2,-0.3 -0.4,-0.3c-0.1,-0.1 -0.4,-0.1 -0.8,-0.1l-2,0Zm-0.2,-2.7l1.2,0l0.6,1.9l-0.2,0l-1.6,-1.9Z" style="fill:#1a171b;fill-rule:nonzero;"/><path d="M202,24.1l-2,0l-2.5,-3.4c-0.2,0 -0.3,0 -0.4,0c0,0 -0.1,0 -0.2,0c-0.1,0 -0.1,0 -0.2,0l0,2.1c0,0.5 0,0.7 0.2,0.9c0.1,0.2 0.3,0.2 0.6,0.2l0.3,0l0,0.2l-3.1,0l0,-0.2l0.3,0c0.3,0 0.5,-0.1 0.7,-0.3c0.1,-0.1 0.1,-0.4 0.1,-0.8l0,-4.7c0,-0.5 0,-0.7 -0.2,-0.9c-0.1,-0.2 -0.3,-0.2 -0.6,-0.2l-0.3,0l0,-0.2l2.7,0c0.8,0 1.3,0.1 1.7,0.2c0.4,0.1 0.7,0.3 0.9,0.6c0.2,0.3 0.4,0.7 0.4,1.1c0,0.4 -0.1,0.8 -0.4,1.2c-0.3,0.4 -0.7,0.6 -1.4,0.7l1.5,2.1c0.3,0.5 0.6,0.8 0.9,1c0.2,0.2 0.6,0.3 1,0.3l0,0.1Zm-5.2,-3.7l0.3,0c0.7,0 1.2,-0.2 1.6,-0.5c0.4,-0.3 0.5,-0.7 0.5,-1.1c0,-0.5 -0.1,-0.8 -0.4,-1.1c-0.3,-0.3 -0.7,-0.4 -1.1,-0.4c-0.2,0 -0.5,0 -0.8,0.1l0,3l-0.1,0Z" style="fill:#1a171b;fill-rule:nonzero;"/><path d="M204.1,17.2l0,2.9l1.6,0c0.4,0 0.7,-0.1 0.8,-0.2c0.2,-0.2 0.3,-0.5 0.3,-0.9l0.2,0l0,2.5l-0.2,0c0,-0.4 -0.1,-0.6 -0.2,-0.7c-0.1,-0.1 -0.2,-0.2 -0.3,-0.3c-0.1,-0.1 -0.4,-0.1 -0.7,-0.1l-1.6,0l0,3c0,0.1 0.1,0.1 0.2,0.2c0.1,0.1 0.2,0.1 0.4,0.1l1.2,0c0.4,0 0.7,0 0.9,-0.1c0.2,-0.1 0.4,-0.2 0.5,-0.3c0.2,-0.2 0.4,-0.6 0.7,-1l0.2,0l-0.6,1.8l-5.6,0l0,-0.2l0.3,0c0.2,0 0.3,0 0.5,-0.1c0.1,-0.1 0.2,-0.1 0.2,-0.3c0,-0.2 0.1,-0.3 0.1,-0.7l0,-4.7c0,-0.5 0,-0.7 -0.1,-0.9c-0.1,-0.1 -0.3,-0.2 -0.6,-0.2l-0.3,0l0,-0.2l5.6,0l0.1,1.6l-0.2,0c-0.1,-0.4 -0.2,-0.6 -0.2,-0.8c-0.1,-0.1 -0.2,-0.3 -0.4,-0.3c-0.1,-0.1 -0.4,-0.1 -0.8,-0.1l-2,0Z" style="fill:#1a171b;fill-rule:nonzero;"/></g><g><path d="M130,36.7l0,-0.2l0.3,0c0.3,0 0.5,-0.1 0.7,-0.3c0.1,-0.1 0.1,-0.4 0.1,-0.8l0,-4.7c0,-0.5 -0.1,-0.7 -0.2,-0.9c-0.1,-0.2 -0.3,-0.2 -0.6,-0.2l-0.3,0l0,-0.2l3,0c1.1,0 1.9,0.1 2.5,0.4c0.6,0.2 1,0.7 1.4,1.2c0.3,0.6 0.5,1.2 0.5,2c0,1 -0.3,1.9 -0.9,2.5c-0.7,0.8 -1.7,1.1 -3.2,1.1l-3.3,0l0,0.1Zm2.1,-0.5c0.5,0.1 0.8,0.2 1.1,0.2c0.8,0 1.5,-0.3 2.1,-0.9c0.5,-0.6 0.8,-1.4 0.8,-2.4c0,-1 -0.3,-1.8 -0.8,-2.4c-0.5,-0.6 -1.3,-0.9 -2.1,-0.9c-0.3,0 -0.7,0.1 -1.1,0.2l0,6.2Z" style="fill:#1a171b;fill-rule:nonzero;"/><path d="M140,29.8l0,2.9l1.6,0c0.4,0 0.7,-0.1 0.8,-0.2c0.2,-0.2 0.3,-0.5 0.3,-0.9l0.2,0l0,2.5l-0.2,0c0,-0.4 -0.1,-0.6 -0.2,-0.7c-0.1,-0.1 -0.2,-0.2 -0.3,-0.3c-0.1,-0.1 -0.4,-0.1 -0.7,-0.1l-1.5,0l0,3c0,0.1 0.1,0.1 0.2,0.2c0.1,0 0.2,0.1 0.4,0.1l1.2,0c0.4,0 0.7,0 0.9,-0.1c0.2,-0.1 0.4,-0.2 0.5,-0.3c0.2,-0.2 0.4,-0.6 0.7,-1l0.2,0l-0.6,1.8l-5.6,0l0,-0.2l0.3,0c0.2,0 0.3,0 0.5,-0.1c0.1,-0.1 0.2,-0.1 0.2,-0.3c0,-0.1 0.1,-0.3 0.1,-0.7l0,-4.7c0,-0.5 0,-0.7 -0.1,-0.9c-0.1,-0.1 -0.3,-0.2 -0.6,-0.2l-0.3,0l0,-0.2l5.6,0l0.1,1.6l-0.2,0c-0.1,-0.4 -0.2,-0.6 -0.2,-0.8c-0.1,-0.1 -0.2,-0.3 -0.4,-0.3c-0.1,-0.1 -0.4,-0.1 -0.8,-0.1l-2.1,0Z" style="fill:#1a171b;fill-rule:nonzero;"/><path d="M153.4,34.7l0.2,0l-0.6,2l-5.6,0l0,-0.2l0.3,0c0.3,0 0.5,-0.1 0.7,-0.3c0.1,-0.1 0.1,-0.4 0.1,-0.8l0,-4.7c0,-0.5 0,-0.7 -0.2,-0.9c-0.1,-0.2 -0.3,-0.2 -0.6,-0.2l-0.3,0l0,-0.2l3.3,0l0,0.2c-0.4,0 -0.7,0 -0.8,0.1c-0.2,0.1 -0.3,0.2 -0.3,0.3c0,0.1 -0.1,0.4 -0.1,0.8l0,4.6c0,0.3 0,0.5 0.1,0.6c0,0.1 0.1,0.1 0.2,0.2c0.1,0 0.4,0.1 0.8,0.1l0.5,0c0.6,0 1,0 1.2,-0.1c0.2,-0.1 0.4,-0.2 0.6,-0.4c0.1,-0.3 0.3,-0.6 0.5,-1.1Z" style="fill:#1a171b;fill-rule:nonzero;"/><path d="M158.8,34.3l-2.8,0l-0.5,1.1c-0.1,0.3 -0.2,0.5 -0.2,0.6c0,0.1 0.1,0.2 0.2,0.3c0.1,0.1 0.3,0.1 0.7,0.2l0,0.2l-2.3,0l0,-0.2c0.3,-0.1 0.5,-0.1 0.6,-0.2c0.2,-0.2 0.4,-0.5 0.6,-1l2.6,-6l0.2,0l2.5,6.1c0.2,0.5 0.4,0.8 0.6,0.9c0.2,0.1 0.4,0.2 0.7,0.2l0,0.2l-2.9,0l0,-0.2c0.3,0 0.5,-0.1 0.6,-0.1c0.1,0 0.2,-0.2 0.2,-0.3c0,-0.2 -0.1,-0.4 -0.2,-0.7l-0.6,-1.1Zm-0.2,-0.4l-1.2,-2.9l-1.3,2.9l2.5,0Z" style="fill:#1a171b;fill-rule:nonzero;"/><path d="M169.9,29.4l0.1,1.7l-0.2,0c0,-0.3 -0.1,-0.5 -0.2,-0.6c-0.1,-0.2 -0.3,-0.4 -0.4,-0.5c-0.2,-0.1 -0.4,-0.1 -0.7,-0.1l-1,0l0,5.6c0,0.4 0,0.7 0.1,0.8c0.1,0.2 0.3,0.2 0.6,0.2l0.3,0l0,0.2l-3.1,0l0,-0.2l0.3,0c0.3,0 0.5,-0.1 0.7,-0.3c0.1,-0.1 0.1,-0.4 0.1,-0.8l0,-5.6l-0.9,0c-0.3,0 -0.6,0 -0.7,0.1c-0.2,0.1 -0.3,0.2 -0.5,0.4c-0.1,0.2 -0.2,0.5 -0.2,0.8l-0.2,0l0.1,-1.7l5.8,0Z" style="fill:#1a171b;fill-rule:nonzero;"/><path d="M177.7,36.7l-1.9,0l-2.5,-3.4c-0.2,0 -0.3,0 -0.4,0c0,0 -0.1,0 -0.2,0c-0.1,0 -0.1,0 -0.2,0l0,2.1c0,0.5 0.1,0.7 0.2,0.9c0.1,0.2 0.3,0.2 0.6,0.2l0.3,0l0,0.2l-3.1,0l0,-0.2l0.3,0c0.3,0 0.5,-0.1 0.7,-0.3c0.1,-0.1 0.1,-0.4 0.1,-0.8l0,-4.7c0,-0.5 -0.1,-0.7 -0.2,-0.9c-0.1,-0.2 -0.3,-0.2 -0.6,-0.2l-0.3,0l0,-0.2l2.7,0c0.8,0 1.3,0.1 1.7,0.2c0.4,0.1 0.7,0.3 0.9,0.6c0.3,0.3 0.4,0.7 0.4,1.1c0,0.4 -0.1,0.8 -0.4,1.2c-0.3,0.3 -0.7,0.6 -1.4,0.7l1.5,2.1c0.3,0.5 0.6,0.8 0.9,1c0.2,0.2 0.6,0.3 1,0.3l0,0.1l-0.1,0Zm-5.2,-3.7l0.3,0c0.7,0 1.2,-0.2 1.6,-0.5c0.4,-0.3 0.5,-0.7 0.5,-1.1c0,-0.5 -0.1,-0.8 -0.4,-1.1c-0.3,-0.3 -0.7,-0.4 -1.1,-0.4c-0.2,0 -0.5,0 -0.8,0.1l0,3l-0.1,0Z" style="fill:#1a171b;fill-rule:nonzero;"/><path d="M182.5,34.3l-2.8,0l-0.5,1.1c-0.1,0.3 -0.2,0.5 -0.2,0.6c0,0.1 0.1,0.2 0.2,0.3c0.1,0.1 0.3,0.1 0.7,0.2l0,0.2l-2.3,0l0,-0.2c0.3,-0.1 0.5,-0.1 0.6,-0.2c0.2,-0.2 0.4,-0.5 0.6,-1l2.6,-6l0.2,0l2.5,6.1c0.2,0.5 0.4,0.8 0.6,0.9c0.2,0.1 0.4,0.2 0.7,0.2l0,0.2l-2.9,0l0,-0.2c0.3,0 0.5,-0.1 0.6,-0.1c0.1,-0.1 0.2,-0.2 0.2,-0.3c0,-0.2 -0.1,-0.4 -0.2,-0.7l-0.6,-1.1Zm-0.1,-0.4l-1.2,-2.9l-1.3,2.9l2.5,0Z" style="fill:#1a171b;fill-rule:nonzero;"/><path d="M185.3,29.4l2,0l4.5,5.5l0,-4.2c0,-0.4 0,-0.7 -0.2,-0.8c-0.1,-0.2 -0.3,-0.2 -0.6,-0.2l-0.3,0l0,-0.2l2.5,0l0,0.2l-0.3,0c-0.3,0 -0.5,0.1 -0.7,0.3c-0.1,0.1 -0.1,0.4 -0.1,0.8l0,6.1l-0.1,0l-4.8,-5.9l0,4.5c0,0.4 0,0.7 0.1,0.8c0.1,0.2 0.3,0.2 0.6,0.2l0.3,0l0,0.2l-2.5,0l0,-0.2l0.3,0c0.3,0 0.5,-0.1 0.7,-0.3c0.1,-0.1 0.1,-0.4 0.1,-0.8l0,-5.1c-0.2,-0.2 -0.4,-0.4 -0.5,-0.5c-0.1,-0.1 -0.3,-0.2 -0.5,-0.2c-0.1,0 -0.3,0 -0.5,0l0,-0.2Z" style="fill:#1a171b;fill-rule:nonzero;"/><path d="M198.3,29.3l0,2.5l-0.2,0c-0.1,-0.5 -0.2,-0.9 -0.3,-1.2c-0.2,-0.3 -0.4,-0.5 -0.7,-0.7c-0.3,-0.2 -0.6,-0.3 -1,-0.3c-0.4,0 -0.7,0.1 -0.9,0.3c-0.2,0.2 -0.4,0.5 -0.4,0.8c0,0.2 0.1,0.4 0.2,0.6c0.2,0.3 0.8,0.6 1.6,1.1c0.7,0.4 1.1,0.6 1.4,0.8c0.3,0.2 0.4,0.4 0.6,0.7c0.1,0.3 0.2,0.5 0.2,0.8c0,0.6 -0.2,1 -0.6,1.4c-0.4,0.4 -1,0.6 -1.7,0.6c-0.2,0 -0.4,0 -0.6,0c-0.1,0 -0.3,-0.1 -0.7,-0.2c-0.3,-0.1 -0.6,-0.2 -0.7,-0.2c-0.1,0 -0.2,0 -0.2,0.1c-0.1,0.1 -0.1,0.2 -0.1,0.3l-0.2,0l0,-2.5l0.2,0c0.1,0.5 0.2,0.9 0.4,1.2c0.2,0.3 0.4,0.5 0.7,0.6c0.3,0.1 0.7,0.3 1.1,0.3c0.4,0 0.8,-0.1 1.1,-0.4c0.3,-0.3 0.4,-0.5 0.4,-0.8c0,-0.2 0,-0.4 -0.1,-0.5c-0.1,-0.1 -0.3,-0.4 -0.5,-0.5c-0.1,-0.1 -0.5,-0.3 -1.1,-0.7c-0.6,-0.3 -1.1,-0.6 -1.3,-0.8c-0.3,-0.2 -0.5,-0.4 -0.6,-0.7c-0.1,-0.3 -0.2,-0.5 -0.2,-0.8c0,-0.5 0.2,-1 0.6,-1.4c0.4,-0.4 0.9,-0.6 1.5,-0.6c0.4,0 0.8,0.1 1.2,0.3c0.2,0.1 0.3,0.1 0.4,0.1c0.1,0 0.2,0 0.2,-0.1c0.1,-0.1 0.1,-0.2 0.1,-0.3l0.2,0l0,0.2Z" style="fill:#1a171b;fill-rule:nonzero;"/><path d="M202.7,36.5l0,0.2l-3.1,0l0,-0.2l0.3,0c0.3,0 0.5,-0.1 0.7,-0.3c0.1,-0.1 0.1,-0.4 0.1,-0.8l0,-4.7c0,-0.4 0,-0.6 -0.1,-0.7c0,-0.1 -0.1,-0.2 -0.2,-0.2c-0.2,-0.1 -0.3,-0.1 -0.5,-0.1l-0.3,0l0,-0.2l3.1,0l0,0.2l-0.3,0c-0.3,0 -0.5,0.1 -0.6,0.3c-0.1,0.1 -0.1,0.4 -0.1,0.8l0,4.7c0,0.4 0,0.6 0.1,0.7c0,0.1 0.1,0.2 0.2,0.2c0.2,0.1 0.3,0.1 0.5,0.1l0.2,0Z" style="fill:#1a171b;fill-rule:nonzero;"/><path d="M209.3,29.4l0.1,1.7l-0.2,0c0,-0.3 -0.1,-0.5 -0.2,-0.6c-0.1,-0.2 -0.3,-0.4 -0.4,-0.5c-0.1,-0.1 -0.4,-0.1 -0.7,-0.1l-1,0l0,5.6c0,0.4 0,0.7 0.1,0.8c0.1,0.2 0.3,0.2 0.6,0.2l0.3,0l0,0.2l-3.1,0l0,-0.2l0.3,0c0.3,0 0.5,-0.1 0.7,-0.3c0.1,-0.1 0.1,-0.4 0.1,-0.8l0,-5.6l-0.9,0c-0.3,0 -0.6,0 -0.7,0.1c-0.2,0.1 -0.3,0.2 -0.5,0.4c-0.2,0.2 -0.2,0.5 -0.2,0.8l-0.2,0l0.1,-1.7l5.8,0Z" style="fill:#1a171b;fill-rule:nonzero;"/><path d="M213,36.5l0,0.2l-3.1,0l0,-0.2l0.3,0c0.3,0 0.5,-0.1 0.7,-0.3c0.1,-0.1 0.1,-0.4 0.1,-0.8l0,-4.7c0,-0.4 0,-0.6 -0.1,-0.7c0,-0.1 -0.1,-0.2 -0.2,-0.2c-0.2,-0.1 -0.3,-0.1 -0.5,-0.1l-0.3,0l0,-0.2l3.1,0l0,0.2l-0.3,0c-0.3,0 -0.5,0.1 -0.6,0.3c-0.1,0.1 -0.1,0.4 -0.1,0.8l0,4.7c0,0.4 0,0.6 0.1,0.7c0,0.1 0.1,0.2 0.2,0.2c0.2,0.1 0.3,0.1 0.5,0.1l0.2,0Z" style="fill:#1a171b;fill-rule:nonzero;"/><path d="M217.3,29.3c0.9,0 1.8,0.4 2.5,1.1c0.7,0.7 1,1.6 1,2.7c0,1.1 -0.3,2 -1,2.8c-0.7,0.7 -1.5,1.1 -2.5,1.1c-1,0 -1.8,-0.4 -2.5,-1.1c-0.7,-0.7 -1,-1.6 -1,-2.8c0,-1.2 0.4,-2.1 1.2,-2.8c0.5,-0.7 1.3,-1 2.3,-1Zm-0.1,0.4c-0.7,0 -1.2,0.2 -1.6,0.7c-0.5,0.6 -0.7,1.5 -0.7,2.6c0,1.2 0.3,2.1 0.8,2.7c0.4,0.5 0.9,0.7 1.5,0.7c0.7,0 1.2,-0.3 1.7,-0.8c0.4,-0.5 0.7,-1.4 0.7,-2.5c0,-1.2 -0.2,-2.2 -0.7,-2.8c-0.5,-0.4 -1,-0.6 -1.7,-0.6Z" style="fill:#1a171b;fill-rule:nonzero;"/><path d="M221,29.4l2,0l4.5,5.5l0,-4.2c0,-0.4 0,-0.7 -0.2,-0.8c-0.1,-0.2 -0.3,-0.2 -0.6,-0.2l-0.3,0l0,-0.2l2.5,0l0,0.2l-0.3,0c-0.3,0 -0.5,0.1 -0.7,0.3c-0.1,0.1 -0.1,0.4 -0.1,0.8l0,6.1l-0.2,0l-4.8,-5.9l0,4.5c0,0.4 0,0.7 0.1,0.8c0.1,0.2 0.3,0.2 0.6,0.2l0.3,0l0,0.2l-2.5,0l0,-0.2l0.3,0c0.3,0 0.5,-0.1 0.7,-0.3c0.1,-0.1 0.1,-0.4 0.1,-0.8l0,-5.1c-0.2,-0.2 -0.4,-0.4 -0.5,-0.5c-0.1,-0.1 -0.3,-0.2 -0.5,-0.2c-0.1,0 -0.3,0 -0.5,0l0,-0.2l0.1,0Z" style="fill:#1a171b;fill-rule:nonzero;"/></g><g><path d="M146.5,42.4l0,2.9l1.6,0c0.4,0 0.7,-0.1 0.8,-0.2c0.2,-0.2 0.3,-0.5 0.3,-0.9l0.2,0l0,2.5l-0.2,0c-0.1,-0.4 -0.1,-0.6 -0.2,-0.7c-0.1,-0.1 -0.2,-0.2 -0.3,-0.3c-0.1,-0.1 -0.4,-0.1 -0.7,-0.1l-1.6,0l0,3c0,0.1 0.1,0.1 0.2,0.2c0.1,0.1 0.2,0.1 0.4,0.1l1.2,0c0.4,0 0.7,0 0.9,-0.1c0.2,-0.1 0.4,-0.2 0.5,-0.3c0.2,-0.2 0.4,-0.6 0.7,-1l0.2,0l-0.6,1.8l-5.6,0l0,-0.2l0.3,0c0.2,0 0.3,0 0.5,-0.1c0.1,-0.1 0.2,-0.1 0.2,-0.3c0,-0.2 0.1,-0.3 0.1,-0.7l0,-4.7c0,-0.5 0,-0.7 -0.1,-0.9c-0.1,-0.1 -0.3,-0.2 -0.6,-0.2l-0.3,0l0,-0.2l5.6,0l0.1,1.6l-0.2,0c-0.1,-0.4 -0.2,-0.6 -0.3,-0.8c-0.1,-0.1 -0.2,-0.3 -0.4,-0.3c-0.1,-0.1 -0.4,-0.1 -0.8,-0.1l-1.9,0Zm2.3,-2.7l-1.6,1.9l-0.2,0l0.6,-1.9l1.2,0Z" style="fill:#1a171b;fill-rule:nonzero;"/><path d="M157.5,41.9l0.2,2.5l-0.2,0c-0.2,-0.7 -0.5,-1.3 -1,-1.6c-0.4,-0.3 -0.9,-0.5 -1.5,-0.5c-0.5,0 -0.9,0.1 -1.3,0.4c-0.4,0.2 -0.7,0.6 -0.9,1.2c-0.2,0.5 -0.3,1.2 -0.3,2c0,0.7 0.1,1.2 0.3,1.7c0.2,0.5 0.5,0.9 1,1.1c0.5,0.2 0.9,0.4 1.5,0.4c0.5,0 0.9,-0.1 1.3,-0.3c0.4,-0.2 0.8,-0.6 1.2,-1.2l0.2,0.1c-0.4,0.6 -0.8,1.1 -1.3,1.4c-0.5,0.3 -1.1,0.5 -1.7,0.5c-1.2,0 -2.1,-0.4 -2.8,-1.3c-0.5,-0.7 -0.7,-1.5 -0.7,-2.4c0,-0.7 0.2,-1.4 0.5,-2c0.3,-0.6 0.8,-1.1 1.3,-1.4c0.6,-0.3 1.2,-0.5 1.9,-0.5c0.5,0 1,0.1 1.6,0.4c0.2,0.1 0.3,0.1 0.3,0.1c0.1,0 0.2,0 0.3,-0.1c0.1,-0.1 0.2,-0.2 0.2,-0.4l-0.1,0l0,-0.1Z" style="fill:#1a171b;fill-rule:nonzero;"/><path d="M162.2,41.9c0.9,0 1.8,0.4 2.5,1.1c0.7,0.7 1,1.6 1,2.7c0,1.1 -0.3,2 -1,2.8c-0.7,0.8 -1.5,1.1 -2.5,1.1c-1,0 -1.8,-0.4 -2.5,-1.1c-0.7,-0.7 -1,-1.6 -1,-2.8c0,-1.2 0.4,-2.1 1.2,-2.8c0.5,-0.7 1.3,-1 2.3,-1Zm-0.1,0.4c-0.7,0 -1.2,0.2 -1.6,0.7c-0.5,0.6 -0.7,1.5 -0.7,2.6c0,1.2 0.3,2.1 0.8,2.7c0.4,0.5 0.9,0.7 1.5,0.7c0.7,0 1.2,-0.3 1.7,-0.8c0.4,-0.5 0.7,-1.4 0.7,-2.5c0,-1.2 -0.2,-2.2 -0.7,-2.8c-0.5,-0.4 -1,-0.6 -1.7,-0.6Z" style="fill:#1a171b;fill-rule:nonzero;"/><path d="M172.4,47.3l0.2,0l-0.6,2l-5.6,0l0,-0.2l0.3,0c0.3,0 0.5,-0.1 0.7,-0.3c0.1,-0.1 0.1,-0.4 0.1,-0.8l0,-4.7c0,-0.5 0,-0.7 -0.2,-0.9c-0.1,-0.2 -0.3,-0.2 -0.6,-0.2l-0.3,0l0,-0.2l3.3,0l0,0.2c-0.4,0 -0.7,0 -0.8,0.1c-0.2,0.1 -0.3,0.2 -0.3,0.3c-0.1,0.1 -0.1,0.4 -0.1,0.8l0,4.6c0,0.3 0,0.5 0.1,0.6c0,0.1 0.1,0.1 0.2,0.2c0.1,0.1 0.4,0.1 0.8,0.1l0.5,0c0.6,0 1,0 1.2,-0.1c0.2,-0.1 0.4,-0.2 0.6,-0.4c0.1,-0.3 0.3,-0.6 0.5,-1.1Z" style="fill:#1a171b;fill-rule:nonzero;"/><path d="M176.8,41.9c0.9,0 1.8,0.4 2.5,1.1c0.7,0.7 1,1.6 1,2.7c0,1.1 -0.3,2 -1,2.8c-0.7,0.8 -1.5,1.1 -2.5,1.1c-1,0 -1.8,-0.4 -2.5,-1.1c-0.7,-0.7 -1,-1.6 -1,-2.8c0,-1.2 0.4,-2.1 1.2,-2.8c0.5,-0.7 1.3,-1 2.3,-1Zm-0.1,0.4c-0.7,0 -1.2,0.2 -1.6,0.7c-0.5,0.6 -0.7,1.5 -0.7,2.6c0,1.2 0.3,2.1 0.8,2.7c0.4,0.5 0.9,0.7 1.5,0.7c0.7,0 1.2,-0.3 1.7,-0.8c0.4,-0.5 0.7,-1.4 0.7,-2.5c0,-1.2 -0.2,-2.2 -0.7,-2.8c-0.5,-0.4 -1,-0.6 -1.7,-0.6Z" style="fill:#1a171b;fill-rule:nonzero;"/><path d="M187.4,41.9l0.2,2.3l-0.2,0c-0.2,-0.6 -0.4,-1 -0.7,-1.3c-0.4,-0.4 -1,-0.6 -1.7,-0.6c-0.9,0 -1.6,0.4 -2.1,1.1c-0.4,0.6 -0.6,1.4 -0.6,2.2c0,0.7 0.1,1.3 0.4,1.9c0.3,0.6 0.6,1 1.1,1.3c0.4,0.3 0.9,0.4 1.3,0.4c0.3,0 0.5,0 0.8,-0.1c0.3,-0.1 0.5,-0.2 0.7,-0.3l0,-2.1c0,-0.4 0,-0.6 -0.1,-0.7c-0.1,-0.1 -0.1,-0.2 -0.3,-0.3c-0.1,-0.1 -0.3,-0.1 -0.6,-0.1l0,-0.2l2.8,0l0,0.2l-0.1,0c-0.3,0 -0.5,0.1 -0.6,0.3c-0.1,0.1 -0.1,0.4 -0.1,0.8l0,2.2c-0.4,0.2 -0.8,0.4 -1.2,0.5c-0.4,0.1 -0.8,0.2 -1.3,0.2c-1.4,0 -2.5,-0.5 -3.2,-1.4c-0.5,-0.7 -0.8,-1.5 -0.8,-2.3c0,-0.6 0.2,-1.3 0.5,-1.8c0.4,-0.7 0.9,-1.2 1.5,-1.6c0.5,-0.3 1.2,-0.5 1.9,-0.5c0.3,0 0.5,0 0.7,0.1c0.2,0.1 0.5,0.1 0.9,0.3c0.2,0.1 0.3,0.1 0.4,0.1c0.1,0 0.1,0 0.2,-0.1c0,-0.1 0.1,-0.2 0.1,-0.4l0.1,0l0,-0.1Z" style="fill:#1a171b;fill-rule:nonzero;"/><path d="M191.9,49.1l0,0.2l-3.1,0l0,-0.2l0.3,0c0.3,0 0.5,-0.1 0.7,-0.3c0.1,-0.1 0.1,-0.4 0.1,-0.8l0,-4.7c0,-0.4 0,-0.6 -0.1,-0.7c0,-0.1 -0.1,-0.2 -0.2,-0.2c-0.2,-0.1 -0.3,-0.1 -0.5,-0.1l-0.3,0l0,-0.3l3.1,0l0,0.2l-0.3,0c-0.3,0 -0.5,0.1 -0.6,0.3c-0.1,0.1 -0.1,0.4 -0.1,0.8l0,4.7c0,0.4 0,0.6 0.1,0.7c0,0.1 0.1,0.2 0.2,0.2c0.2,0.1 0.3,0.1 0.5,0.1l0.2,0l0,0.1Z" style="fill:#1a171b;fill-rule:nonzero;"/><path d="M197,49.4c0.4,0.6 0.8,1.1 1.2,1.4c0.4,0.3 0.9,0.5 1.4,0.5l0,0.2c-0.5,0 -1,-0.1 -1.6,-0.3c-0.6,-0.2 -1.1,-0.4 -1.6,-0.8c-0.5,-0.4 -0.9,-0.7 -1.3,-1c-0.5,-0.2 -0.9,-0.4 -1.2,-0.7c-0.4,-0.3 -0.8,-0.8 -1,-1.3c-0.2,-0.5 -0.4,-1.1 -0.4,-1.8c0,-1.1 0.4,-2 1.1,-2.7c0.7,-0.7 1.6,-1.1 2.6,-1.1c1,0 1.8,0.4 2.5,1.1c0.7,0.7 1,1.6 1,2.7c0,0.9 -0.2,1.7 -0.7,2.3c-0.5,0.6 -1.2,1.3 -2,1.5Zm-0.9,-7.1c-0.7,0 -1.2,0.2 -1.6,0.7c-0.5,0.6 -0.8,1.5 -0.8,2.7c0,1.2 0.3,2.1 0.8,2.7c0.4,0.5 0.9,0.7 1.6,0.7c0.7,0 1.2,-0.2 1.6,-0.7c0.5,-0.6 0.7,-1.4 0.7,-2.6c0,-0.9 -0.1,-1.6 -0.4,-2.2c-0.2,-0.5 -0.5,-0.8 -0.8,-1c-0.3,-0.2 -0.7,-0.3 -1.1,-0.3Z" style="fill:#1a171b;fill-rule:nonzero;"/><path d="M205.3,42.2l0,-0.2l2.6,0l0,0.2l-0.3,0c-0.3,0 -0.5,0.1 -0.7,0.4c-0.1,0.1 -0.1,0.4 -0.1,0.8l0,3c0,0.7 -0.1,1.3 -0.2,1.7c-0.1,0.4 -0.4,0.7 -0.9,1c-0.4,0.3 -1,0.4 -1.7,0.4c-0.8,0 -1.4,-0.1 -1.8,-0.4c-0.4,-0.3 -0.7,-0.6 -0.9,-1.1c-0.1,-0.3 -0.2,-0.9 -0.2,-1.8l0,-2.8c0,-0.4 -0.1,-0.7 -0.2,-0.9c-0.1,-0.1 -0.3,-0.2 -0.6,-0.2l-0.3,0l0,-0.3l3.1,0l0,0.2l-0.3,0c-0.3,0 -0.5,0.1 -0.6,0.3c-0.1,0.1 -0.1,0.4 -0.1,0.8l0,3.2c0,0.3 0,0.6 0.1,1c0.1,0.4 0.1,0.7 0.3,0.9c0.1,0.2 0.3,0.4 0.6,0.5c0.3,0.1 0.6,0.2 0.9,0.2c0.5,0 0.9,-0.1 1.3,-0.3c0.4,-0.2 0.6,-0.5 0.8,-0.8c0.2,-0.3 0.2,-0.9 0.2,-1.6l0,-2.9c0,-0.5 0,-0.7 -0.2,-0.9c-0.1,-0.2 -0.3,-0.2 -0.6,-0.2l-0.2,0l0,-0.2Z" style="fill:#1a171b;fill-rule:nonzero;"/><path d="M210.2,42.4l0,2.9l1.6,0c0.4,0 0.7,-0.1 0.8,-0.2c0.2,-0.2 0.3,-0.5 0.3,-0.9l0.2,0l0,2.5l-0.2,0c0,-0.4 -0.1,-0.6 -0.2,-0.7c-0.1,-0.1 -0.2,-0.2 -0.3,-0.3c-0.1,-0.1 -0.4,-0.1 -0.7,-0.1l-1.6,0l0,3c0,0.1 0.1,0.1 0.2,0.2c0.1,0.1 0.2,0.1 0.4,0.1l1.2,0c0.4,0 0.7,0 0.9,-0.1c0.2,-0.1 0.4,-0.2 0.5,-0.3c0.2,-0.2 0.4,-0.6 0.7,-1l0.2,0l-0.6,1.8l-5.6,0l0,-0.2l0.3,0c0.2,0 0.3,0 0.5,-0.1c0.1,-0.1 0.2,-0.1 0.2,-0.3c0,-0.2 0.1,-0.3 0.1,-0.7l0,-4.7c0,-0.5 0,-0.7 -0.1,-0.9c-0.1,-0.1 -0.3,-0.2 -0.6,-0.2l-0.3,0l0,-0.2l5.6,0l0.1,1.6l-0.2,0c-0.1,-0.4 -0.2,-0.6 -0.2,-0.8c-0.1,-0.1 -0.2,-0.3 -0.4,-0.3c-0.1,-0.1 -0.4,-0.1 -0.8,-0.1l-2,0Z" style="fill:#1a171b;fill-rule:nonzero;"/></g><g><path d="M145,55l0,2.9l1.6,0c0.4,0 0.7,-0.1 0.8,-0.2c0.2,-0.2 0.3,-0.5 0.3,-0.9l0.2,0l0,2.5l-0.2,0c-0.1,-0.4 -0.1,-0.6 -0.2,-0.7c-0.1,-0.1 -0.2,-0.2 -0.3,-0.3c-0.1,-0.1 -0.4,-0.1 -0.7,-0.1l-1.5,0l0,3c0,0.1 0.1,0.1 0.2,0.2c0.1,0 0.2,0.1 0.4,0.1l1.2,0c0.4,0 0.7,0 0.9,-0.1c0.2,-0.1 0.4,-0.2 0.5,-0.3c0.2,-0.2 0.4,-0.6 0.7,-1l0.2,0l-0.6,1.8l-5.6,0l0,-0.2l0.3,0c0.2,0 0.3,0 0.5,-0.1c0.1,-0.1 0.2,-0.1 0.2,-0.3c0,-0.2 0.1,-0.3 0.1,-0.7l0,-4.7c0,-0.5 0,-0.7 -0.1,-0.9c-0.1,-0.1 -0.3,-0.2 -0.6,-0.2l-0.3,0l0,-0.2l5.6,0l0.1,1.6l-0.2,0c-0.1,-0.4 -0.2,-0.6 -0.3,-0.8c-0.1,-0.2 -0.2,-0.3 -0.4,-0.3c-0.1,-0.1 -0.4,-0.1 -0.8,-0.1l-2,0Z" style="fill:#1a171b;fill-rule:nonzero;"/><path d="M155.7,54.6l0.1,1.7l-0.2,0c0,-0.3 -0.1,-0.5 -0.2,-0.6c-0.1,-0.2 -0.3,-0.4 -0.4,-0.5c-0.1,-0.1 -0.4,-0.1 -0.7,-0.1l-1,0l0,5.6c0,0.4 0,0.7 0.1,0.8c0.1,0.2 0.3,0.2 0.6,0.2l0.3,0l0,0.2l-3.1,0l0,-0.2l0.3,0c0.3,0 0.5,-0.1 0.7,-0.3c0.1,-0.1 0.1,-0.4 0.1,-0.8l0,-5.6l-0.9,0c-0.3,0 -0.6,0 -0.7,0.1c-0.2,0.1 -0.3,0.2 -0.5,0.4c-0.2,0.2 -0.2,0.5 -0.2,0.8l-0.2,0l0.1,-1.7l5.8,0Z" style="fill:#1a171b;fill-rule:nonzero;"/><path d="M163.6,54.5l0,2.5l-0.2,0c-0.1,-0.5 -0.2,-0.9 -0.3,-1.2c-0.2,-0.3 -0.4,-0.5 -0.7,-0.7c-0.3,-0.2 -0.6,-0.3 -1,-0.3c-0.4,0 -0.7,0.1 -0.9,0.3c-0.2,0.2 -0.4,0.5 -0.4,0.8c0,0.2 0.1,0.4 0.2,0.6c0.2,0.3 0.8,0.6 1.6,1.1c0.7,0.4 1.1,0.6 1.4,0.8c0.3,0.2 0.4,0.4 0.6,0.7c0.1,0.3 0.2,0.5 0.2,0.8c0,0.6 -0.2,1 -0.6,1.4c-0.4,0.4 -1,0.6 -1.7,0.6c-0.2,0 -0.4,0 -0.6,0c-0.1,0 -0.3,-0.1 -0.7,-0.2c-0.3,-0.1 -0.6,-0.2 -0.7,-0.2c-0.1,0 -0.2,0 -0.2,0.1c-0.1,0.1 -0.1,0.2 -0.1,0.3l-0.2,0l0,-2.5l0.2,0c0.1,0.5 0.2,0.9 0.4,1.2c0.2,0.3 0.4,0.5 0.7,0.6c0.3,0.1 0.7,0.3 1.1,0.3c0.4,0 0.8,-0.1 1.1,-0.4c0.3,-0.3 0.4,-0.5 0.4,-0.8c0,-0.2 0,-0.4 -0.1,-0.5c-0.1,-0.1 -0.3,-0.4 -0.5,-0.5c-0.1,-0.1 -0.5,-0.3 -1.1,-0.7c-0.6,-0.3 -1.1,-0.6 -1.3,-0.8c-0.3,-0.2 -0.5,-0.4 -0.6,-0.7c-0.1,-0.3 -0.2,-0.5 -0.2,-0.8c0,-0.5 0.2,-1 0.6,-1.4c0.4,-0.4 0.9,-0.6 1.5,-0.6c0.4,0 0.8,0.1 1.2,0.3c0.2,0.1 0.3,0.1 0.4,0.1c0.1,0 0.2,0 0.2,-0.1c0.1,-0.1 0.1,-0.2 0.1,-0.3l0.2,0l0,0.2Z" style="fill:#1a171b;fill-rule:nonzero;"/><path d="M168.6,54.5c0.9,0 1.8,0.4 2.5,1.1c0.7,0.7 1,1.6 1,2.7c0,1.1 -0.3,2 -1,2.8c-0.7,0.7 -1.5,1.1 -2.5,1.1c-1,0 -1.8,-0.4 -2.5,-1.1c-0.7,-0.7 -1,-1.6 -1,-2.8c0,-1.2 0.4,-2.1 1.2,-2.8c0.5,-0.7 1.3,-1 2.3,-1Zm-0.1,0.4c-0.7,0 -1.2,0.2 -1.6,0.7c-0.5,0.6 -0.7,1.5 -0.7,2.6c0,1.2 0.3,2.1 0.8,2.7c0.4,0.5 0.9,0.7 1.5,0.7c0.7,0 1.2,-0.3 1.7,-0.8c0.4,-0.5 0.7,-1.4 0.7,-2.5c0,-1.2 -0.2,-2.2 -0.7,-2.8c-0.5,-0.4 -1,-0.6 -1.7,-0.6Z" style="fill:#1a171b;fill-rule:nonzero;"/><path d="M178.8,59.9l0.2,0l-0.6,2l-5.6,0l0,-0.2l0.3,0c0.3,0 0.5,-0.1 0.7,-0.3c0.1,-0.1 0.1,-0.4 0.1,-0.8l0,-4.7c0,-0.5 0,-0.7 -0.2,-0.9c-0.1,-0.2 -0.3,-0.2 -0.6,-0.2l-0.3,0l0,-0.2l3.3,0l0,0.2c-0.4,0 -0.7,0 -0.8,0.1c-0.2,0.1 -0.3,0.2 -0.3,0.3c-0.1,0.1 -0.1,0.4 -0.1,0.8l0,4.6c0,0.3 0,0.5 0.1,0.6c0,0.1 0.1,0.1 0.2,0.2c0.1,0.1 0.4,0.1 0.8,0.1l0.5,0c0.6,0 1,0 1.2,-0.1c0.2,-0.1 0.4,-0.2 0.6,-0.4c0.1,-0.3 0.3,-0.6 0.5,-1.1Z" style="fill:#1a171b;fill-rule:nonzero;"/><path d="M182.5,61.7l0,0.2l-3.1,0l0,-0.2l0.3,0c0.3,0 0.5,-0.1 0.7,-0.3c0.1,-0.1 0.1,-0.4 0.1,-0.8l0,-4.7c0,-0.4 0,-0.6 -0.1,-0.7c0,-0.1 -0.1,-0.2 -0.2,-0.2c-0.2,-0.1 -0.3,-0.1 -0.5,-0.1l-0.3,0l0,-0.2l3.1,0l0,0.2l-0.3,0c-0.3,0 -0.5,0.1 -0.6,0.3c-0.1,0.1 -0.1,0.4 -0.1,0.8l0,4.7c0,0.4 0,0.6 0.1,0.7c0,0.1 0.1,0.2 0.2,0.2c0.2,0.1 0.3,0.1 0.5,0.1l0.2,0Z" style="fill:#1a171b;fill-rule:nonzero;"/><path d="M182.9,61.9l0,-0.2l0.3,0c0.3,0 0.5,-0.1 0.7,-0.3c0.1,-0.1 0.1,-0.4 0.1,-0.8l0,-4.7c0,-0.5 0,-0.7 -0.2,-0.9c-0.1,-0.2 -0.3,-0.2 -0.6,-0.2l-0.3,0l0,-0.2l3,0c1.1,0 1.9,0.1 2.5,0.4c0.6,0.2 1,0.7 1.4,1.2c0.3,0.6 0.5,1.2 0.5,2c0,1 -0.3,1.9 -0.9,2.5c-0.7,0.8 -1.7,1.1 -3.2,1.1l-3.3,0l0,0.1Zm2.1,-0.5c0.5,0.1 0.8,0.2 1.1,0.2c0.8,0 1.5,-0.3 2.1,-0.9c0.5,-0.6 0.8,-1.4 0.8,-2.4c0,-1 -0.3,-1.8 -0.8,-2.4c-0.5,-0.6 -1.2,-0.9 -2.1,-0.9c-0.3,0 -0.7,0.1 -1.1,0.2l0,6.2Z" style="fill:#1a171b;fill-rule:nonzero;"/><path d="M195.7,59.5l-2.8,0l-0.5,1.1c-0.1,0.3 -0.2,0.5 -0.2,0.6c0,0.1 0.1,0.2 0.2,0.3c0.1,0.1 0.3,0.1 0.7,0.2l0,0.2l-2.3,0l0,-0.2c0.3,-0.1 0.5,-0.1 0.6,-0.2c0.2,-0.2 0.4,-0.5 0.6,-1l2.6,-6l0.2,0l2.5,6.1c0.2,0.5 0.4,0.8 0.6,0.9c0.2,0.1 0.4,0.2 0.7,0.2l0,0.2l-2.9,0l0,-0.2c0.3,0 0.5,-0.1 0.6,-0.1c0.1,-0.1 0.2,-0.2 0.2,-0.3c0,-0.2 -0.1,-0.4 -0.2,-0.7l-0.6,-1.1Zm-0.2,-0.4l-1.2,-2.9l-1.3,2.9l2.5,0Z" style="fill:#1a171b;fill-rule:nonzero;"/><path d="M201.9,61.7l0,0.2l-3.1,0l0,-0.2l0.3,0c0.3,0 0.5,-0.1 0.7,-0.3c0.1,-0.1 0.1,-0.4 0.1,-0.8l0,-4.7c0,-0.4 0,-0.6 -0.1,-0.7c0,-0.1 -0.1,-0.2 -0.2,-0.2c-0.2,-0.1 -0.3,-0.1 -0.5,-0.1l-0.3,0l0,-0.2l3.1,0l0,0.2l-0.3,0c-0.3,0 -0.5,0.1 -0.6,0.3c-0.1,0.1 -0.1,0.4 -0.1,0.8l0,4.7c0,0.4 0,0.6 0.1,0.7c0,0.1 0.1,0.2 0.2,0.2c0.2,0.1 0.3,0.1 0.5,0.1l0.2,0Z" style="fill:#1a171b;fill-rule:nonzero;"/><path d="M209.6,61.9l-1.9,0l-2.5,-3.4c-0.2,0 -0.3,0 -0.4,0c0,0 -0.1,0 -0.2,0c-0.1,0 -0.1,0 -0.2,0l0,2.1c0,0.5 0,0.7 0.2,0.9c0.1,0.2 0.3,0.2 0.6,0.2l0.3,0l0,0.2l-3.1,0l0,-0.2l0.3,0c0.3,0 0.5,-0.1 0.7,-0.3c0.1,-0.1 0.1,-0.4 0.1,-0.8l0,-4.7c0,-0.5 0,-0.7 -0.2,-0.9c-0.1,-0.2 -0.3,-0.2 -0.6,-0.2l-0.3,0l0,-0.2l2.7,0c0.8,0 1.3,0.1 1.7,0.2c0.4,0.1 0.7,0.3 0.9,0.6c0.2,0.3 0.4,0.7 0.4,1.1c0,0.4 -0.1,0.8 -0.4,1.2c-0.3,0.4 -0.7,0.6 -1.4,0.7l1.5,2.1c0.3,0.5 0.6,0.8 0.9,1c0.2,0.2 0.6,0.3 1,0.3l0,0.1l-0.1,0Zm-5.2,-3.7l0.3,0c0.7,0 1.2,-0.2 1.6,-0.5c0.4,-0.3 0.5,-0.7 0.5,-1.1c0,-0.5 -0.1,-0.8 -0.4,-1.1c-0.3,-0.3 -0.7,-0.4 -1.1,-0.4c-0.2,0 -0.5,0 -0.8,0.1l0,3l-0.1,0Z" style="fill:#1a171b;fill-rule:nonzero;"/><path d="M211.7,55l0,2.9l1.6,0c0.4,0 0.7,-0.1 0.8,-0.2c0.2,-0.2 0.3,-0.5 0.3,-0.9l0.2,0l0,2.5l-0.2,0c0,-0.4 -0.1,-0.6 -0.2,-0.7c-0.1,-0.1 -0.2,-0.2 -0.3,-0.3c-0.1,-0.1 -0.4,-0.1 -0.7,-0.1l-1.6,0l0,3c0,0.1 0.1,0.1 0.2,0.2c0.1,0.1 0.2,0.1 0.4,0.1l1.2,0c0.4,0 0.7,0 0.9,-0.1c0.2,-0.1 0.4,-0.2 0.5,-0.3c0.2,-0.2 0.4,-0.6 0.7,-1l0.2,0l-0.6,1.8l-5.6,0l0,-0.2l0.3,0c0.2,0 0.3,0 0.5,-0.1c0.1,-0.1 0.2,-0.1 0.2,-0.3c0,-0.2 0.1,-0.3 0.1,-0.7l0,-4.7c0,-0.5 0,-0.7 -0.1,-0.9c-0.1,-0.1 -0.3,-0.2 -0.6,-0.2l-0.3,0l0,-0.2l5.6,0l0.1,1.6l-0.2,0c-0.1,-0.4 -0.2,-0.6 -0.2,-0.8c-0.1,-0.1 -0.2,-0.3 -0.4,-0.3c-0.1,-0.1 -0.4,-0.1 -0.8,-0.1l-2,0Z" style="fill:#1a171b;fill-rule:nonzero;"/></g></g><rect id="Cadre_3_" x="0" y="-0.3" width="119.5" height="79" style="fill:none;stroke:#1a171b;stroke-width:1px;"/></g><g id="Calque_2"><rect x="17.4" y="14.2" width="85" height="28.5" style="fill:#fff;"/><g><path d="M17.2,42.9c0.1,-7.1 0,-14.1 0.2,-21.2c0.1,-2.5 -0.1,-5.1 -0.1,-7.6c1.8,-0.3 3.5,-0.1 5.3,-0.1c11.2,0 22.4,0 33.6,0c-0.8,0.4 -1.7,0.7 -2.3,1.4c-0.5,0.6 -1,1.3 -1.2,2.1c-0.8,0.5 -1.4,1.3 -1.8,2.1c-0.6,1.1 -1.4,2.1 -1.3,3.3c0.1,1 0.4,2 0.6,3.1c0.1,0.4 0.1,0.7 0.3,1.1c0.1,0.4 0,0.8 0.2,1.2c0.1,0.2 0.1,0.5 0.3,0.6l0,0.3c0.1,0.1 0.1,0.1 0.2,0.1l0,0.3c0.5,0.6 1.2,1.2 1.5,1.9c0.1,0.4 -0.6,0.2 -1,0.1c-0.7,-0.3 -1,-0.8 -1.6,-1.3l-0.1,0.1c0.3,0.5 1.2,1 0.7,1.4c-0.3,0.1 -0.6,-0.2 -0.8,0.1c-0.1,0.1 0,0.3 0,0.4c-0.4,-0.3 -0.8,-0.1 -1.2,-0.3c-0.3,-0.1 -0.3,-0.6 -0.6,-0.6c-0.8,-0.2 -1.6,-0.4 -2.5,-0.5c-1.2,-0.1 -2.3,-0.3 -3.4,-0.1c-1,0.1 -1.8,0.8 -2.5,1.6l0,0.2c0.5,0.1 0.6,-0.3 1,-0.5c0.6,-0.1 1.2,-0.4 1.9,-0.5c1,-0.2 1.9,-0.5 2.8,-0.4c0.2,0 0.5,-0.1 0.6,0c-1.2,-0.1 -2.2,0.3 -3.3,0.6c-0.8,0.2 -1.6,0.3 -2.3,0.7c1.7,-0.1 3.4,0.2 5,0.7c0.6,0.2 1.1,0.5 1.6,0.8c0.3,0.2 0.4,0.4 0.6,0.5c0.3,0.2 0.8,0.2 1.1,0.1l0.3,0c1,-0.3 2,-0.5 2.7,-1.2c0,0.1 0.1,0.1 0.1,0.1c-0.2,0.5 -0.2,1.1 -0.6,1.6c0,0.1 -0.1,0.2 0.1,0.3l0.1,0c-0.1,0 -0.1,0 -0.1,0.1c0,0.1 0.2,0 0.3,0.1c-0.3,0.1 -0.7,0.1 -0.8,0.4c0,0.1 0.1,0.1 0.2,0.1c-0.1,0.1 -0.3,0.1 -0.4,0.2l0.1,0.1c-0.1,0 -0.1,0 -0.1,0.1l0,0.2c-0.2,0 -0.3,0.1 -0.4,0.2c0.3,0.2 0.5,0 0.7,0c-0.7,0.3 -1.3,0.6 -2,0.8c-0.1,0 0,0.2 -0.1,0.2c0.2,0.1 0.3,-0.1 0.5,-0.1c-0.9,0.5 -1.8,1 -2.8,1.6c0,0 -0.1,0.1 -0.1,0.3l-0.3,0c-0.1,0.1 -0.1,0.3 -0.2,0.4c0.3,0.2 0.7,-0.3 0.9,0c0.1,0 -0.1,0.1 -0.3,0.1c-0.1,0 -0.1,0.1 -0.1,0.1l-0.2,0c-0.1,0.1 -0.3,0.2 -0.3,0.4c-0.1,0 -0.3,0 -0.3,0.1c1.4,-0.2 2.9,-0.1 4.3,-0.8c1,-0.5 2,-1.2 2.9,-2.1l0.1,0.1c-0.2,0.6 -0.6,1.1 -1.1,1.5c-0.4,0.2 -0.6,0.5 -1,0.6c-0.2,0.1 -0.4,0.3 -0.6,0.4c-2.4,0.8 -5.3,0.5 -7.3,2.1c0,-0.1 -0.1,-0.1 -0.1,-0.1c-0.1,0.1 -0.3,0.2 -0.4,0.3c0,0.1 0.2,0.1 0.3,0.1c0.4,-0.3 0.8,-0.5 1.2,-0.6c-0.5,0.3 -1,0.6 -1.6,0.8c-1.1,0.2 -2.1,0.1 -3.2,0c0.7,-0.4 1.3,-0.8 2,-1.2c-0.2,-0.1 -0.4,-0.1 -0.6,-0.1c-0.3,0.1 -0.7,-0.1 -1,0c-1,0.5 -2.3,0.3 -2.8,1.4" style="fill:#004493;fill-rule:nonzero;"/><path d="M39.1,35c-0.2,0.1 -0.4,0.2 -0.3,0.3c0.2,0.3 0.6,-0.1 0.9,-0.1c-0.4,0.1 -0.8,0.1 -1.2,0.4c0.3,0.2 0.5,0.1 0.8,0.1c0,0.1 0.1,0.1 0.2,0.2c-0.3,0.1 -0.6,0.4 -0.6,0.6c-0.1,0.3 -0.5,0.5 -0.7,0.7l0,0.2c-0.6,0.6 -1.4,1 -1.9,1.7c0.1,0 0.1,0.1 0.1,0.1c-0.1,0.2 -0.4,0.3 -0.5,0.5c0,0.1 0,0.1 0.1,0.1c0.8,-0.3 1.4,-0.8 2.1,-1.1c0.5,-0.1 0.9,-0.5 1.4,-0.6c0.3,-0.1 0.7,-0.2 1,-0.3c0,0.1 0,0.1 0.1,0.1l0.5,0c-0.1,0.1 -0.3,0.1 -0.3,0.1c0.2,0.2 0.6,0.1 0.8,0c0.2,0 0.4,0 0.7,0c0.1,0 0.1,-0.1 0.1,-0.2c0.2,0.1 0.3,0.1 0.5,0.1c1.6,-0.3 3.1,-0.6 4.5,-1.4c-1.7,-1.3 -3.8,-1.8 -5.8,-2.3c0.2,0 0.4,0.2 0.6,0c-0.3,-0.3 -0.7,-0.1 -1,-0.3c0.1,0 0.2,0.1 0.3,-0.1c-0.5,-0.3 -1,-0.3 -1.6,-0.4c0.3,-0.1 0.5,-0.3 0.5,-0.6c0,-0.1 -0.1,-0.1 -0.2,-0.1c-0.8,0.4 -1.3,1.1 -1.6,1.9c0.5,0.3 1,0.1 1.4,0.1c-0.3,0.2 -0.6,0.2 -0.9,0.3" style="fill:#fff;fill-rule:nonzero;"/><path d="M36.5,32.5c-0.7,0.7 -1.4,1.4 -2.2,1.8c-0.6,1.2 -1.2,2.2 -2.1,3.3c0,0.1 0.1,0.1 0.1,0.1c1.6,-1.8 3,-3.2 5,-4.5c0.1,-0.1 -0.2,0.2 0.1,0.1c0.8,-0.2 1.1,-1 1.5,-1.7c0.5,-0.8 1.4,-1.2 2.1,-1.9c0,0.1 0,0.1 -0.1,0.2c0.1,0.1 0.1,0.1 0.2,0.1c0.3,-0.2 0.6,-0.1 0.8,-0.4c-0.5,-0.2 -1.2,-0.3 -1.7,-0.1c-1.5,0.8 -2.6,1.8 -3.7,3" style="fill:#fff;fill-rule:nonzero;"/><path d="M37.4,33.7c0.1,-0.1 0.1,-0.1 0.2,-0.3c0,-0.1 0,-0.1 -0.1,-0.1c-0.3,0.1 -0.5,0.3 -0.5,0.6c0,0.1 0.1,0.1 0.1,0.1c0.2,-0.1 0.3,-0.2 0.3,-0.3" style="fill:#fff;fill-rule:nonzero;"/><path d="M42.6,38.7c-0.3,0.1 -0.7,0.1 -0.8,0.5c-0.1,0.1 0.2,0.1 0.3,0.1c0.5,-0.2 1,0 1.4,-0.4c-0.1,-0.1 -0.3,-0.1 -0.5,-0.3c-0.1,-0.1 -0.2,0 -0.4,0.1" style="fill:#fff;fill-rule:nonzero;"/><path d="M49.7,42.2c0.4,-0.1 0.8,-0.3 1.2,-0.5l0,0.1c1,-0.4 1.7,-1.2 2.7,-1.6c0.1,0 0.2,0.1 0.3,0.1c0.6,-0.5 1.2,-1.1 2.1,-1c0,0.1 0,0.1 0.1,0.1c0.1,0 0.1,0 0.1,-0.1c-0.3,0.2 -0.5,0.4 -0.8,0.6c-0.1,0.1 0,0.1 0.1,0.1c0.3,-0.1 0.5,-0.4 0.8,-0.5c-0.1,0.1 -0.1,0.2 -0.1,0.3c-1.2,0.9 -2.1,1.9 -3.1,3.1l-2,0c0,-0.1 0,-0.1 -0.1,-0.1c-2.3,0.2 -4.5,0.1 -6.8,0.1c1.3,-0.2 2.6,-0.6 3.9,-0.7c0.5,0 1,0.1 1.6,0" style="fill:#004c98;fill-rule:nonzero;"/><path d="M75.3,38.8c0.2,-0.5 0.3,-1 0.1,-1.4c-0.4,-0.6 0.4,-0.8 0.6,-1.2c0.2,-0.3 -0.1,-0.5 -0.2,-0.8c-0.1,-0.1 -0.3,-0.1 -0.5,-0.3c0.5,-0.2 1.2,-0.6 0.8,-1.2c-0.2,-0.3 -0.5,-0.8 -0.1,-1.2c0.5,-0.3 1.2,-0.2 1.4,-0.7c0.3,-0.8 -0.4,-1.4 -0.8,-2.1c-0.2,-0.4 -0.5,-0.7 -0.7,-1c-0.3,-0.5 -0.6,-0.8 -0.7,-1.4c-0.2,-0.5 0.1,-1 0.1,-1.5c0.1,-1 -0.2,-1.9 -0.5,-2.9c-0.2,-0.5 -0.3,-1 -0.5,-1.4c-0.1,-0.3 -0.1,-0.5 -0.3,-0.8c-0.1,-0.1 -0.1,-0.3 0,-0.5c0.3,-0.2 0.5,-0.4 0.8,-0.6c0.2,-0.3 0.1,-0.8 -0.3,-1c-0.5,-0.2 -0.4,0.5 -0.7,0.6l-0.2,0c-0.1,-0.2 0.1,-0.3 0.2,-0.4c0,-0.1 0,-0.2 -0.1,-0.2c-0.3,0 -0.5,-0.1 -0.6,-0.2c-0.6,-0.9 -1.6,-1.4 -2.5,-1.8c0.3,0.1 0.5,0.1 0.8,0.1c0.5,0.1 1,0.1 1.4,-0.1c0.3,-0.1 0.4,-0.6 0.5,-1c0.1,-0.3 -0.1,-0.7 -0.2,-0.8c-0.3,-0.5 -0.8,-0.8 -1.4,-1.1l30.8,0c0.1,9.6 -0.1,19.2 -0.1,28.8c-12.1,0.2 -24.3,0 -36.4,0c0.4,-1.3 1.1,-2.5 2.3,-3.4c0.3,-0.1 0.6,-0.2 0.9,-0.3c1.1,0 2.2,0.3 3.3,0.5c0.1,0 0.3,0.1 0.4,0.1c0.4,0.1 0.8,0.1 1.2,-0.1c0.5,0.2 1,-0.1 1.2,-0.7" style="fill:#e1001a;fill-rule:nonzero;"/><path d="M72.8,26.1c-0.4,-0.1 -0.7,0 -1.1,0c-0.5,0.1 -1,0.2 -1.4,0.4c0.4,-0.3 0.8,-0.5 1.2,-0.6c0.3,-0.1 0.6,-0.3 1,-0.3c0.4,-0.1 0.8,-0.2 1.1,-0.1c0.3,0.1 0.8,0.1 0.9,0.3c0.1,0.4 -0.2,0.8 -0.6,1c-0.1,0.1 0.2,0.2 0.2,0.3c-0.1,0.1 -0.3,0.2 -0.4,0.2c-0.1,0.1 -0.3,0.3 -0.4,0.4c0.1,0 0,0.2 0.1,0.2c-0.3,0.3 0.1,1 -0.3,1.1c-0.5,0.1 -1,0.1 -1.5,0c0.3,-0.1 0.6,0.1 0.8,-0.2l0,-0.3c0,-0.1 -0.1,-0.1 -0.1,-0.1l-0.1,0.1c0,-0.1 -0.1,-0.3 -0.2,-0.3c-0.4,0.1 -0.7,-0.1 -1,-0.4c0.2,-0.1 0.4,-0.1 0.6,-0.1c0.2,0 0.1,-0.3 0.3,-0.5l0.2,0c0.4,-0.5 1.2,-0.6 1.3,-1.2c0.1,0.1 -0.3,0.1 -0.6,0.1" style="fill:#9b9c9e;fill-rule:nonzero;"/></g><path d="M57.7,58.8c-0.1,0.1 -0.1,0.2 -0.1,0.5l0,2.1c0,0.5 -0.1,0.8 -0.3,1.1c-0.3,0.5 -0.9,0.7 -1.6,0.7c-0.4,0 -0.8,-0.1 -1.1,-0.3c-0.5,-0.3 -0.7,-0.7 -0.7,-1.5l0,-2.4c0,-0.2 -0.2,-0.4 -0.5,-0.4l0,-0.2l2,0l0,0.2c-0.2,0 -0.3,0.1 -0.4,0.2c-0.1,0.1 -0.1,0.2 -0.1,0.6c0,0.4 0,0.9 0,1.3c0,1.2 0,1.4 0.2,1.7c0.2,0.2 0.5,0.3 0.8,0.3c0.5,0 0.9,-0.2 1.1,-0.7c0.1,-0.3 0.1,-0.5 0.1,-1.3l0,-0.7c0,-0.8 0,-1 -0.1,-1.2c-0.1,-0.1 -0.2,-0.2 -0.4,-0.2l0,-0.2l1.4,0l0,0.2c-0.1,0 -0.2,0.1 -0.3,0.2" style="fill:#1a171b;fill-rule:nonzero;"/><path d="M62,63c-0.1,0.1 -0.1,0.1 -0.5,0.1l-2.7,0l0,-0.2c0.3,0 0.5,-0.2 0.5,-0.5c0,-0.2 0,-0.4 0,-0.8l0,-2c0,-0.4 0,-0.5 -0.1,-0.7c-0.1,-0.2 -0.2,-0.3 -0.4,-0.3l0,-0.2l3.2,0l0,1.1l-0.3,0c0,-0.5 -0.3,-0.7 -1.1,-0.7c-0.2,0 -0.4,0 -0.5,0l0,1.6c0.1,0 0.2,0 0.3,0c0.7,0 1,-0.1 1,-0.5l0.3,0l0,1.4l-0.3,0c0,-0.4 -0.2,-0.5 -0.9,-0.5c-0.1,0 -0.3,0 -0.4,0c0,0.4 0,0.9 0,1.3c0,0.3 0.1,0.4 0.2,0.4c0.1,0 0.3,0 0.5,0c0.8,0 1,-0.2 1.2,-0.7l0.3,0.1c-0.1,0.5 -0.3,0.9 -0.3,1.1" style="fill:#1a171b;fill-rule:nonzero;"/><path d="M68.4,58.8c0,-0.6 -0.4,-0.8 -1.3,-0.8c-0.2,0 -0.4,0 -0.6,0c0,0.6 0,1 0,1.9c0.2,0 0.3,0 0.5,0c0.8,0 1,-0.1 1.1,-0.6l0.3,0l0,1.7l-0.4,0c-0.1,-0.5 -0.3,-0.6 -1.1,-0.6c-0.2,0 -0.2,0 -0.4,0l0,1.5c0,0.5 0,0.9 0.6,0.9l0,0.2l-0.2,0l-1.8,0l-0.2,0l0,-0.2c0.4,0 0.5,-0.3 0.6,-0.6c0,-0.3 0,-0.4 0,-1.2l0,-2.1c0,-0.5 0,-0.7 -0.1,-0.8c-0.1,-0.2 -0.2,-0.3 -0.5,-0.4l0,-0.2l3.9,0l0,1.4l-0.4,0l0,-0.1Z" style="fill:#1a171b;fill-rule:nonzero;"/><path d="M73.1,63.1c-0.3,0 -0.4,0 -0.6,-0.1c-0.2,-0.2 -0.5,-0.6 -0.6,-0.8c-0.2,-0.4 -0.5,-0.9 -0.8,-1.2l-0.1,0c-0.1,0 -0.1,0 -0.2,0l0,1c0,0.4 0,0.5 0.1,0.7c0.1,0.2 0.2,0.3 0.4,0.3l0,0.2l-0.2,0l-1.6,0l-0.2,0l0,-0.2c0.2,0 0.3,0 0.3,-0.1c0.1,-0.1 0.1,-0.2 0.1,-0.4c0,-0.2 0,-0.3 0,-1l0,-1.2c0,-0.9 0,-1.1 -0.1,-1.3c0,-0.2 -0.2,-0.3 -0.4,-0.3l0,-0.2l2.1,0c0.5,0 0.8,0.1 1,0.2c0.3,0.2 0.4,0.6 0.4,0.9c0,0.6 -0.4,1 -1,1.3c0.3,0.3 0.5,0.7 0.7,1.1c0.2,0.4 0.4,0.7 0.6,0.8c0.1,0.1 0.2,0.1 0.3,0.2l0,0.2c0.2,-0.1 0,-0.1 -0.2,-0.1m-1.8,-4.3c-0.1,0 -0.3,0 -0.4,0.1c0,0.4 0,1.2 0,1.7c0.1,0 0.2,0 0.3,0c0.6,0 1,-0.4 1,-0.9c0,-0.6 -0.4,-0.9 -0.9,-0.9" style="fill:#1a171b;fill-rule:nonzero;"/><path d="M78.2,63.1l-1.5,0l-0.2,0l0,-0.2c0.2,0 0.4,-0.1 0.4,-0.3c0,-0.1 0,-0.2 -0.1,-0.4c-0.1,-0.3 -0.1,-0.4 -0.2,-0.7l-1.3,0l-0.1,0.4c-0.1,0.3 -0.2,0.5 -0.2,0.7c0,0.2 0.1,0.3 0.3,0.3l0,0.2l-1.4,0l0,-0.2c0.1,0 0.1,0 0.2,-0.1c0.1,-0.1 0.3,-0.4 0.5,-0.9l0.7,-1.7c0.2,-0.5 0.5,-1.2 0.6,-1.8l0.5,0c0.1,0.2 0.2,0.6 0.3,0.8l1,2.5c0.2,0.4 0.3,0.7 0.4,0.8c0.1,0.2 0.2,0.3 0.4,0.3l0,0.2l-0.3,0.1Zm-2.3,-3.5c-0.2,0.5 -0.4,1.1 -0.5,1.4l1,0l-0.5,-1.4Z" style="fill:#1a171b;fill-rule:nonzero;"/><path d="M83.2,58.8c-0.1,0.1 -0.1,0.2 -0.1,0.6l0,3.7l-0.5,0c-0.5,-0.6 -1.4,-1.7 -1.4,-1.7c-0.1,-0.1 -1,-1.2 -1.4,-1.8l0,2.6c0,0.3 0,0.4 0.1,0.6c0.1,0.1 0.2,0.2 0.4,0.2l0,0.2l-1.5,0l0,-0.2c0.5,0 0.5,-0.4 0.5,-0.8c0,-0.3 0,-0.5 0,-1l0,-1.5c0,-0.6 0,-0.7 -0.1,-0.9c-0.1,-0.1 -0.2,-0.2 -0.4,-0.2l0,-0.2l1.2,0c0.1,0.2 0.2,0.3 0.7,0.9c0.7,0.8 1.3,1.5 1.9,2.3l0,-1.6c0,-0.7 0,-0.9 -0.1,-1.1c-0.1,-0.2 -0.2,-0.3 -0.4,-0.4l0,-0.2l1.4,0l0,0.2c-0.1,0.1 -0.3,0.1 -0.3,0.3" style="fill:#1a171b;fill-rule:nonzero;"/><path d="M88,62.9c-0.5,0.2 -0.9,0.3 -1.4,0.3l-0.1,0.3l0.1,0c0.3,0 0.4,0.2 0.4,0.4c0,0.4 -0.3,0.6 -0.8,0.6c-0.1,0 -0.3,0 -0.4,-0.1l0.1,-0.3c0.1,0 0.2,0.1 0.3,0.1c0.2,0 0.3,-0.1 0.3,-0.3c0,-0.1 -0.1,-0.2 -0.2,-0.2c-0.1,0 -0.1,0 -0.2,0.1l-0.2,0l0.1,-0.6c-0.6,-0.1 -1.1,-0.3 -1.4,-0.7c-0.4,-0.4 -0.7,-1 -0.7,-1.8c0,-1.5 1,-2.4 2.6,-2.4c0.5,0 1,0.1 1.4,0.2l0,1l-0.3,0c-0.1,-0.5 -0.5,-0.8 -1.1,-0.8c-1,0 -1.6,0.7 -1.6,1.7c0,1.3 0.7,2.2 1.7,2.2c0.6,0 1,-0.3 1.1,-0.9l0.3,0.1c0.1,0.3 0.1,0.7 0,1.1" style="fill:#1a171b;fill-rule:nonzero;"/><path d="M92.9,63.1l-1.5,0l-0.2,0l0,-0.2c0.2,0 0.4,-0.1 0.4,-0.3c0,-0.1 0,-0.2 -0.1,-0.4c-0.1,-0.3 -0.1,-0.4 -0.2,-0.7l-1.3,0l-0.1,0.4c-0.1,0.3 -0.2,0.5 -0.2,0.7c0,0.2 0.1,0.3 0.3,0.3l0,0.2l-1.4,0l0,-0.2c0.1,0 0.1,0 0.2,-0.1c0.1,-0.1 0.3,-0.4 0.5,-0.9l0.7,-1.7c0.2,-0.5 0.5,-1.2 0.6,-1.8l0.4,0c0.1,0.2 0.2,0.6 0.3,0.8l1,2.5c0.2,0.4 0.3,0.7 0.4,0.8c0.1,0.2 0.2,0.3 0.4,0.3l0,0.2l-0.2,0.1Zm-2.3,-3.5c-0.2,0.5 -0.4,1.1 -0.5,1.4l1,0l-0.5,-1.4Z" style="fill:#1a171b;fill-rule:nonzero;"/><path d="M95.2,63.1l-1.6,0l-0.2,0l0,-0.2c0.3,0 0.5,-0.2 0.5,-0.5c0,-0.2 0,-0.3 0,-1l0,-1.2c0,-0.2 0,-0.4 0,-0.6c0,-0.4 0,-0.5 -0.1,-0.7c-0.1,-0.2 -0.2,-0.3 -0.4,-0.3l0,-0.2l2,0l0,0.2c-0.3,0 -0.5,0.2 -0.5,0.5l0,2.2c0,0.9 0,1.1 0.1,1.3c0.1,0.2 0.2,0.3 0.4,0.3l0,0.2l-0.2,0Z" style="fill:#1a171b;fill-rule:nonzero;"/><path d="M97.3,63.2c-0.4,0 -0.7,-0.1 -1.2,-0.2c0,-0.3 -0.1,-0.7 -0.1,-1l0.3,0c0.2,0.6 0.5,0.9 1.1,0.9c0.5,0 0.8,-0.3 0.8,-0.7c0,-0.3 -0.2,-0.5 -0.5,-0.7l-0.7,-0.6c-0.5,-0.3 -0.8,-0.7 -0.8,-1.3c0,-0.8 0.6,-1.3 1.5,-1.3c0.4,0 0.8,0.1 1.1,0.3l0,0.9l-0.3,0c-0.1,-0.5 -0.4,-0.8 -0.9,-0.8c-0.4,0 -0.7,0.3 -0.7,0.7c0,0.3 0.2,0.6 0.6,0.8l0.6,0.4c0.6,0.4 0.9,0.7 0.9,1.3c0,0.7 -0.7,1.3 -1.7,1.3" style="fill:#1a171b;fill-rule:nonzero;"/><path d="M103,63c-0.1,0.1 -0.1,0.1 -0.5,0.1l-2.7,0l0,-0.2c0.3,0 0.5,-0.2 0.5,-0.5c0,-0.2 0,-0.4 0,-0.8l0,-2c0,-0.4 0,-0.5 -0.1,-0.7c-0.1,-0.2 -0.2,-0.3 -0.4,-0.3l0,-0.2l3.3,0l0,1.1l-0.3,0c-0.1,-0.5 -0.3,-0.7 -1.1,-0.7c-0.2,0 -0.4,0 -0.5,0l0,1.6c0.1,0 0.2,0 0.3,0c0.7,0 1,-0.1 1,-0.5l0.3,0l0,1.4l-0.3,0c0,-0.4 -0.2,-0.5 -0.9,-0.5c-0.1,0 -0.3,0 -0.4,0c0,0.4 0,0.9 0,1.3c0,0.3 0,0.4 0.2,0.4c0.1,0 0.3,0 0.5,0c0.8,0 1,-0.2 1.2,-0.7l0.3,0.1c-0.2,0.5 -0.4,0.9 -0.4,1.1" style="fill:#1a171b;fill-rule:nonzero;"/><path d="M55.3,51.3c-0.1,0 -0.2,-0.1 -0.2,-0.4c-0.5,0.3 -0.9,0.4 -1.2,0.4c-0.4,0 -0.6,-0.2 -0.6,-0.6c0,-0.4 0.2,-0.9 0.5,-1.3c0.4,-0.6 0.8,-0.9 1.5,-0.9c0.3,0 0.6,0.1 0.9,0.1l0,0.1c-0.2,0.8 -0.4,1.6 -0.4,1.9c0,0.2 0,0.3 0.1,0.3c0.1,0 0.2,0 0.4,-0.1l0,0.2c-0.5,0.2 -0.8,0.3 -1,0.3m-0.3,-2.6c-0.3,0 -0.5,0.2 -0.8,0.6c-0.3,0.4 -0.4,1 -0.4,1.3c0,0.2 0.1,0.3 0.3,0.3c0.3,0 0.7,-0.2 0.9,-0.4c0.1,-0.1 0.2,-0.2 0.2,-0.5c0.1,-0.4 0.2,-0.8 0.3,-1.3c-0.2,0.1 -0.4,0 -0.5,0" style="fill:#1a171b;fill-rule:nonzero;"/><path d="M58.4,47.3c-0.2,0.9 -0.5,1.9 -0.7,2.9c-0.1,0.3 -0.1,0.5 -0.1,0.6c0,0.1 0,0.1 0.2,0.1c0.1,0 0.2,0 0.4,-0.1l0,0.2c-0.4,0.1 -0.8,0.3 -1,0.3c-0.1,0 -0.2,-0.1 -0.2,-0.2c0,-0.1 0,-0.2 0.1,-0.6c0.2,-0.9 0.4,-1.9 0.6,-2.7c0.1,-0.4 0.1,-0.6 0.1,-0.7c0,-0.1 0,-0.1 -0.1,-0.1c-0.1,0 -0.2,0 -0.3,0.1l0,-0.2c0.3,-0.1 0.7,-0.2 0.9,-0.2c0.1,0 0.1,0 0.1,0.1c0.1,0 0.1,0.1 0,0.5" style="fill:#1a171b;fill-rule:nonzero;"/><path d="M60.1,47.8c-0.2,0 -0.3,-0.1 -0.3,-0.3c0,-0.2 0.2,-0.4 0.4,-0.4c0.2,0 0.3,0.1 0.3,0.3c0,0.2 -0.2,0.4 -0.4,0.4m-0.8,3.5c-0.1,0 -0.2,-0.1 -0.2,-0.2c0,-0.1 0,-0.2 0.1,-0.3c0.1,-0.4 0.2,-0.9 0.3,-1.1c0.1,-0.4 0.1,-0.6 0.1,-0.7c0,-0.1 0,-0.1 -0.1,-0.1c-0.1,0 -0.1,0 -0.3,0.1l0,-0.2c0.4,-0.1 0.7,-0.2 0.9,-0.2c0.1,0 0.1,0 0.1,0.1c0,0.1 0,0.3 -0.2,0.8l-0.1,0.4c-0.2,0.7 -0.2,0.9 -0.2,1c0,0.1 0.1,0.2 0.2,0.2c0.1,0 0.2,0 0.4,-0.1l0,0.2c-0.4,0 -0.8,0.1 -1,0.1" style="fill:#1a171b;fill-rule:nonzero;"/><path d="M62.7,48.9l-0.6,0l-0.3,1.4c-0.1,0.4 -0.1,0.5 -0.1,0.5c0,0.1 0.1,0.1 0.1,0.1c0,0 0.1,0 0.3,-0.1l0.1,0l0,0.2c-0.4,0.1 -0.7,0.2 -0.9,0.2c-0.1,0 -0.2,-0.1 -0.2,-0.2c0,-0.1 0,-0.3 0.1,-0.5c0.1,-0.2 0.1,-0.4 0.2,-0.7l0.2,-1l-0.4,0l0,-0.2c0.5,-0.1 0.6,-0.5 0.8,-0.8l0.3,-0.1l-0.2,0.8l0.6,0l0,0.4Z" style="fill:#1a171b;fill-rule:nonzero;"/><path d="M64.8,48l-0.2,-0.2l0.8,-0.9l0.6,0.1l-1.2,1Zm-0.7,2.1c0,0 -0.1,0 -0.2,0c0,0.1 0,0.2 0,0.3c0,0.3 0.1,0.5 0.4,0.5c0.2,0 0.5,-0.1 0.9,-0.4l0.1,0.2c-0.5,0.3 -0.9,0.5 -1.2,0.5c-0.4,0 -0.7,-0.3 -0.7,-0.7c0,-1.1 0.8,-2.1 1.6,-2.1c0.4,0 0.7,0.2 0.7,0.5c-0.1,0.7 -0.8,1.2 -1.6,1.2m0.7,-1.4c-0.3,0 -0.7,0.5 -0.8,1.1c0.6,0 1.1,-0.3 1.1,-0.8c0,-0.1 -0.1,-0.3 -0.3,-0.3" style="fill:#1a171b;fill-rule:nonzero;"/><path d="M77.7,47.6l-0.2,0c0,-0.1 0,-0.1 0,-0.2c0,-0.1 0,-0.2 -0.1,-0.3c-0.1,-0.1 -0.4,-0.1 -0.9,-0.1c-0.1,0 -0.3,0 -0.5,0c-0.1,0.6 -0.2,1.1 -0.4,1.7c0.1,0 0.3,0 0.4,0c0.8,0 0.9,-0.1 1,-0.5l0.2,0c-0.1,0.4 -0.2,0.9 -0.3,1.3l-0.2,0l0,-0.1c0,-0.1 0,-0.2 -0.1,-0.3c0,-0.1 -0.1,-0.1 -0.5,-0.1c-0.2,0 -0.3,0 -0.5,0l-0.1,0.5c-0.1,0.7 -0.2,1 -0.2,1.2c0,0.3 0.1,0.4 0.4,0.4l0,0.1l-0.1,0l-1.5,0l-0.1,0l0,-0.1c0.2,0 0.3,-0.1 0.4,-0.2c0.1,-0.1 0.2,-0.3 0.3,-0.7c0.1,-0.4 0.1,-0.6 0.3,-1.3l0.1,-0.5c0.1,-0.5 0.1,-0.9 0.1,-1c0,-0.3 -0.1,-0.4 -0.4,-0.5l0,-0.1l3,0c0.1,0.2 0,0.5 -0.1,0.8" style="fill:#1a171b;fill-rule:nonzero;"/><path d="M80,49.3l-0.2,0c0,-0.1 0,-0.2 0,-0.3c0,-0.1 -0.1,-0.2 -0.3,-0.2c-0.1,0 -0.2,0.1 -0.3,0.2c-0.3,0.3 -0.4,0.8 -0.5,1.5l-0.1,0.7c-0.3,0 -0.3,0 -0.6,0.1c0.1,-0.3 0.1,-0.5 0.2,-0.7l0.2,-0.6c0.1,-0.4 0.1,-0.7 0.1,-0.8c0,-0.2 0,-0.2 -0.1,-0.2c0,0 -0.1,0 -0.2,0l-0.2,-0.1l0,-0.2c0.3,-0.1 0.7,-0.2 0.9,-0.2c0.1,0 0.1,0 0.1,0.1c0,0.1 0,0.2 0,0.3c0.3,-0.3 0.6,-0.4 0.8,-0.4c0.1,0 0.3,0.1 0.5,0.2c-0.1,0.2 -0.2,0.4 -0.3,0.6" style="fill:#1a171b;fill-rule:nonzero;"/><path d="M82.7,51.3c-0.1,0 -0.2,-0.1 -0.2,-0.4c-0.5,0.3 -0.9,0.4 -1.2,0.4c-0.4,0 -0.6,-0.2 -0.6,-0.6c0,-0.4 0.2,-0.9 0.5,-1.3c0.4,-0.6 0.8,-0.9 1.5,-0.9c0.3,0 0.6,0.1 0.9,0.1l0,0.1c-0.2,0.8 -0.4,1.6 -0.4,1.9c0,0.2 0,0.3 0.1,0.3c0.1,0 0.2,0 0.4,-0.1l0,0.2c-0.5,0.2 -0.8,0.3 -1,0.3m-0.3,-2.6c-0.3,0 -0.5,0.2 -0.8,0.6c-0.3,0.4 -0.4,1 -0.4,1.3c0,0.2 0.1,0.3 0.3,0.3c0.3,0 0.7,-0.2 0.9,-0.4c0.1,-0.1 0.1,-0.2 0.2,-0.5c0.1,-0.4 0.2,-0.8 0.3,-1.3c-0.2,0.1 -0.4,0 -0.5,0" style="fill:#1a171b;fill-rule:nonzero;"/><path d="M86,48.9l-0.6,0l-0.3,1.4c-0.1,0.4 -0.1,0.5 -0.1,0.5c0,0.1 0,0.1 0.1,0.1c0,0 0.2,0 0.3,-0.1l0.1,0l0,0.2c-0.4,0.1 -0.7,0.2 -0.9,0.2c-0.1,0 -0.2,-0.1 -0.2,-0.2c0,-0.1 0,-0.3 0.1,-0.5c0.1,-0.2 0.1,-0.4 0.2,-0.7l0.2,-1l-0.4,0l0,-0.2c0.5,-0.1 0.6,-0.5 0.8,-0.8l0.3,-0.1l-0.2,0.8l0.6,0l0,0.4Z" style="fill:#1a171b;fill-rule:nonzero;"/><path d="M87.3,50.1c0,0 -0.1,0 -0.2,0c0,0.1 0,0.2 0,0.3c0,0.3 0.1,0.5 0.4,0.5c0.2,0 0.5,-0.1 0.9,-0.4l0.1,0.2c-0.5,0.3 -0.9,0.5 -1.2,0.5c-0.4,0 -0.7,-0.3 -0.7,-0.7c0,-1.1 0.8,-2.1 1.6,-2.1c0.4,0 0.7,0.2 0.7,0.5c0,0.7 -0.7,1.2 -1.6,1.2m0.7,-1.4c-0.3,0 -0.7,0.5 -0.8,1.1l0.1,0c0.6,0 1.1,-0.3 1.1,-0.8c0,-0.1 -0.2,-0.3 -0.4,-0.3" style="fill:#1a171b;fill-rule:nonzero;"/><path d="M91.6,49.3l-0.2,0c0,-0.1 0,-0.2 0,-0.3c0,-0.1 -0.1,-0.2 -0.3,-0.2c-0.1,0 -0.2,0.1 -0.3,0.2c-0.3,0.3 -0.4,0.8 -0.5,1.5l-0.1,0.7c-0.3,0 -0.3,0 -0.6,0.1c0.1,-0.3 0.1,-0.5 0.2,-0.7l0.1,-0.6c0.1,-0.4 0.1,-0.7 0.1,-0.8c0,-0.2 0,-0.2 -0.1,-0.2c0,0 -0.1,0 -0.2,0l-0.2,0.1l0,-0.2c0.3,-0.1 0.7,-0.2 0.9,-0.2c0.1,0 0.1,0 0.1,0.1c0,0.1 0,0.2 0,0.3c0.3,-0.3 0.6,-0.4 0.8,-0.4c0.1,0 0.3,0.1 0.4,0.2c0,0 -0.1,0.2 -0.1,0.4" style="fill:#1a171b;fill-rule:nonzero;"/><path d="M94.3,51.3c-0.1,0 -0.2,-0.1 -0.2,-0.2c0,-0.1 0,-0.2 0.1,-0.6l0.1,-0.3c0.2,-0.9 0.3,-1.1 0.3,-1.3c0,-0.1 0,-0.2 -0.1,-0.2c-0.1,0 -0.3,0.1 -0.5,0.2c-0.2,0.1 -0.4,0.3 -0.5,0.4c-0.1,0.1 -0.1,0.3 -0.2,0.6c-0.1,0.5 -0.2,0.8 -0.2,1.2c-0.3,0 -0.3,0 -0.6,0.1c0.1,-0.5 0.2,-0.9 0.3,-1.4c0.1,-0.5 0.1,-0.7 0.1,-0.8c0,-0.2 0,-0.2 -0.2,-0.2c-0.1,0 -0.2,0 -0.3,0.1l0,-0.2c0.3,-0.1 0.7,-0.2 0.8,-0.2c0.1,0 0.2,0.1 0.2,0.4l0,0.1c0.5,-0.3 1,-0.5 1.4,-0.5c0.2,0 0.3,0.1 0.3,0.2c0,0.1 0,0.4 -0.2,0.9c-0.1,0.3 -0.2,0.6 -0.2,0.8c0,0.2 -0.1,0.3 -0.1,0.4c0,0.1 0.1,0.2 0.1,0.2c0.1,0 0.2,0 0.4,-0.1l0,0.2c-0.2,0.1 -0.6,0.2 -0.8,0.2" style="fill:#1a171b;fill-rule:nonzero;"/><path d="M97.2,47.8c-0.2,0 -0.3,-0.1 -0.3,-0.3c0,-0.2 0.2,-0.4 0.4,-0.4c0.2,0 0.3,0.1 0.3,0.3c0,0.2 -0.2,0.4 -0.4,0.4m-0.8,3.5c-0.1,0 -0.2,-0.1 -0.2,-0.2c0,-0.1 0,-0.2 0.1,-0.3c0.1,-0.4 0.2,-0.9 0.3,-1.1c0.1,-0.4 0.1,-0.6 0.1,-0.7c0,-0.1 0,-0.1 -0.1,-0.1c-0.1,0 -0.1,0 -0.3,0.1l0,-0.2c0.4,-0.1 0.7,-0.2 0.9,-0.2c0.1,0 0.1,0 0.1,0.1c0,0.1 0,0.3 -0.2,0.8l-0.1,0.3c-0.2,0.7 -0.2,0.9 -0.2,1c0,0.1 0.1,0.2 0.2,0.2c0.1,0 0.2,0 0.4,-0.1l0,0.2c-0.4,0.1 -0.8,0.2 -1,0.2" style="fill:#1a171b;fill-rule:nonzero;"/><path d="M99.9,48.9l-0.6,0l-0.3,1.4c-0.1,0.4 -0.1,0.5 -0.1,0.5c0,0.1 0,0.1 0.1,0.1c0,0 0.1,0 0.3,-0.1l0.1,0l0,0.2c-0.4,0.1 -0.7,0.2 -0.9,0.2c-0.1,0 -0.2,-0.1 -0.2,-0.2c0,-0.1 0,-0.3 0.1,-0.5c0.1,-0.2 0.1,-0.4 0.2,-0.7l0.2,-1l-0.4,0l0,-0.2c0.5,-0.1 0.6,-0.5 0.8,-0.8l0.3,-0.1l-0.2,0.8l0.6,0l0,0.4Z" style="fill:#1a171b;fill-rule:nonzero;"/><path d="M101.9,48l-0.2,-0.2l0.8,-0.9l0.6,0.1l-1.2,1Zm-0.7,2.1c-0.1,0 -0.1,0 -0.2,0c0,0.1 0,0.2 0,0.3c0,0.3 0.1,0.5 0.4,0.5c0.2,0 0.5,-0.1 0.9,-0.4l0.1,0.2c-0.5,0.3 -0.9,0.5 -1.2,0.5c-0.4,0 -0.7,-0.3 -0.7,-0.7c0,-1.1 0.8,-2.1 1.6,-2.1c0.4,0 0.7,0.2 0.7,0.5c-0.1,0.7 -0.7,1.2 -1.6,1.2m0.7,-1.4c-0.3,0 -0.7,0.5 -0.8,1.1l0.1,0c0.6,0 1.1,-0.3 1.1,-0.8c-0.1,-0.1 -0.2,-0.3 -0.4,-0.3" style="fill:#1a171b;fill-rule:nonzero;"/><path d="M70,50c0.5,0 0.8,-0.4 0.8,-0.8c0,-0.4 -0.4,-0.8 -0.8,-0.8c-0.5,0 -0.8,0.4 -0.8,0.8c0,0.4 0.4,0.8 0.8,0.8" style="fill:#1a171b;fill-rule:nonzero;"/><path d="M21.7,63.1c-0.3,0 -0.5,0 -0.7,-0.2c-0.3,-0.2 -0.6,-0.7 -0.7,-1c-0.3,-0.5 -0.6,-1 -0.9,-1.5l-0.1,0c-0.1,0 -0.2,0 -0.2,0l0,1.3c0,0.5 0,0.7 0.1,0.8c0.1,0.2 0.2,0.3 0.5,0.4l0,0.2l-0.2,0l-1.8,0l-0.2,0l0,-0.2c0.2,0 0.3,-0.1 0.4,-0.2c0.1,-0.1 0.2,-0.3 0.2,-0.5c0,-0.3 0,-0.4 0,-1.2l0,-1.4c0,-1 0,-1.3 -0.1,-1.5c-0.1,-0.2 -0.2,-0.3 -0.5,-0.4l0,-0.2l2.5,0c0.6,0 0.9,0.1 1.2,0.3c0.3,0.2 0.5,0.7 0.5,1.1c0,0.7 -0.5,1.3 -1.2,1.6c0.3,0.4 0.6,0.8 0.9,1.3c0.3,0.4 0.5,0.8 0.8,1c0.1,0.1 0.2,0.2 0.4,0.2l0,0.2c-0.4,-0.1 -0.6,-0.1 -0.9,-0.1m-2.1,-5.3c-0.2,0 -0.3,0 -0.5,0.1c0,0.5 0,1.4 0,2.1c0.1,0 0.3,0 0.4,0c0.7,0 1.2,-0.4 1.2,-1.1c-0.1,-0.6 -0.6,-1.1 -1.1,-1.1" style="fill:#1a171b;fill-rule:nonzero;"/><path d="M24.5,58l-0.3,-0.2l0.7,-1l0.8,0.1l-1.2,1.1Zm1.6,5c-0.1,0.1 -0.1,0.1 -0.5,0.1l-2.7,0l0,-0.2c0.3,0 0.5,-0.2 0.5,-0.5c0,-0.2 0,-0.4 0,-0.8l0,-2c0,-0.4 0,-0.5 -0.1,-0.7c-0.1,-0.2 -0.2,-0.3 -0.4,-0.3l0,-0.2l3.3,0l0,1.1l-0.3,0c0,-0.5 -0.3,-0.7 -1.1,-0.7c-0.2,0 -0.4,0 -0.5,0l0,1.6c0.1,0 0.2,0 0.3,0c0.7,0 1,-0.1 1,-0.5l0.3,0l0,1.4l-0.3,0c0,-0.4 -0.2,-0.5 -0.9,-0.5c-0.1,0 -0.3,0 -0.4,0c0,0.4 0,0.9 0,1.3c0,0.3 0,0.4 0.2,0.4c0.1,0 0.3,0 0.5,0c0.8,0 1,-0.2 1.2,-0.7l0.3,0.1c-0.2,0.5 -0.3,0.9 -0.4,1.1" style="fill:#1a171b;fill-rule:nonzero;"/><path d="M29,61c-0.1,0 -0.1,0 -0.2,0l-0.2,-0.4c0.7,0 1,-0.4 1,-0.9c0,-0.6 -0.4,-1 -0.9,-1c-0.1,0 -0.2,0 -0.3,0l0,2.5c0,0.9 0,1.1 0.1,1.3c0.1,0.2 0.2,0.3 0.4,0.3l0,0.2l-0.2,0l-1.6,0l-0.2,0l0,-0.2c0.3,0 0.5,-0.2 0.5,-0.5c0,-0.2 0,-0.3 0,-1l0,-1.8c0,-0.4 0,-0.5 -0.1,-0.7c-0.1,-0.2 -0.2,-0.3 -0.4,-0.3l0,-0.2c0.1,0 0,0 0.3,0l1.6,0c1,0 1.6,0.5 1.6,1.3c0.2,0.8 -0.5,1.4 -1.4,1.4" style="fill:#1a171b;fill-rule:nonzero;"/><path d="M35.4,58.8c-0.1,0.1 -0.1,0.2 -0.1,0.5l0,2.1c0,0.5 -0.1,0.8 -0.3,1.1c-0.3,0.5 -0.9,0.7 -1.6,0.7c-0.4,0 -0.8,-0.1 -1.1,-0.3c-0.5,-0.3 -0.7,-0.7 -0.7,-1.5l0,-2.4c0,-0.2 -0.2,-0.4 -0.5,-0.4l0,-0.2l2,0l0,0.2c-0.2,0 -0.3,0.1 -0.4,0.2c-0.1,0.1 -0.1,0.2 -0.1,0.6c0,0.4 0,0.9 0,1.3c0,1.2 0,1.4 0.2,1.7c0.2,0.2 0.5,0.3 0.8,0.3c0.5,0 0.9,-0.2 1.1,-0.7c0.1,-0.3 0.1,-0.5 0.1,-1.3l0,-0.7c0,-0.8 0,-1 -0.1,-1.2c-0.1,-0.1 -0.2,-0.2 -0.4,-0.2l0,-0.2l1.4,0l0,0.2c-0.2,0 -0.3,0.1 -0.3,0.2" style="fill:#1a171b;fill-rule:nonzero;"/><path d="M39.7,62.7c-0.3,0.3 -0.7,0.3 -1.4,0.3l-1.7,0l-0.1,0l0,-0.2c0.3,0 0.5,-0.2 0.5,-0.5c0,-0.2 0,-0.3 0,-1l0,-1.3c0,-0.6 0,-0.9 -0.1,-1.1c-0.1,-0.2 -0.2,-0.3 -0.4,-0.3l0,-0.2l2.4,0c0.6,0 1.2,0.3 1.2,1c0,0.5 -0.3,0.9 -1,1.1c0.7,0.1 1.1,0.6 1.1,1.3c-0.1,0.4 -0.2,0.7 -0.5,0.9m-1.6,-3.9c-0.1,0 -0.3,0 -0.4,0c0,0.5 0,1.2 0,1.5c0.1,0 0.2,0 0.3,0c0.7,0 1.1,-0.3 1.1,-0.8c0,-0.4 -0.4,-0.7 -1,-0.7m0.1,1.9c-0.1,0 -0.2,0 -0.4,0l0,0.9c0,0.4 0,0.6 0.1,0.7c0.1,0.2 0.2,0.3 0.5,0.3c0.6,0 0.9,-0.3 0.9,-0.9c-0.1,-0.6 -0.5,-1 -1.1,-1" style="fill:#1a171b;fill-rule:nonzero;"/><path d="M44.1,63c-0.1,0.1 -0.1,0.1 -0.5,0.1l-2.6,0l0,-0.2c0.2,0 0.3,0 0.3,-0.1c0.1,-0.1 0.2,-0.3 0.2,-0.8c0,-0.4 0,-0.6 0,-1l0,-0.7c0,-0.9 0,-1.1 -0.1,-1.3c-0.1,-0.2 -0.2,-0.3 -0.4,-0.3l0,-0.2l2,0l0,0.2c-0.4,0 -0.5,0.2 -0.6,0.5l0,2.2c0,1 0,1.1 0.1,1.2c0.1,0.1 0.2,0.1 0.5,0.1c0.4,0 0.6,0 0.8,-0.1c0.2,-0.1 0.3,-0.3 0.4,-0.6l0.3,0.1c-0.2,0.3 -0.3,0.8 -0.4,0.9" style="fill:#1a171b;fill-rule:nonzero;"/><path d="M46.5,63.1l-1.6,0l-0.2,0l0,-0.2c0.3,0 0.5,-0.2 0.5,-0.5c0,-0.2 0,-0.3 0,-1l0,-1.2c0,-0.2 0,-0.4 0,-0.6c0,-0.4 0,-0.5 -0.1,-0.7c-0.1,-0.2 -0.2,-0.3 -0.4,-0.3l0,-0.2l2,0l0,0.2c-0.3,0 -0.5,0.2 -0.5,0.5l0,2.2c0,0.9 0,1.1 0.1,1.3c0.1,0.2 0.2,0.3 0.4,0.3l0,0.2l-0.2,0Z" style="fill:#1a171b;fill-rule:nonzero;"/><path d="M53.1,64.3c-0.5,0 -1.1,-0.2 -1.7,-0.5c-0.3,-0.2 -0.8,-0.5 -1.1,-0.7c-0.2,0 -0.3,0 -0.6,0c-1.4,0 -2.4,-0.9 -2.4,-2.3c0,-1.5 1,-2.5 2.5,-2.5c1.4,0 2.4,0.9 2.4,2.3c0,1 -0.5,1.9 -1.3,2.3c0.3,0.1 0.5,0.3 0.7,0.4c0.7,0.4 1.2,0.6 1.7,0.6c0.3,0 0.5,-0.1 0.8,-0.2l0.1,0.2c-0.2,0.3 -0.7,0.4 -1.1,0.4m-3.3,-5.5c-0.9,0 -1.5,0.7 -1.5,1.7c0,1.2 0.7,2.2 1.6,2.2c0.9,0 1.5,-0.7 1.5,-1.7c0,-1.3 -0.7,-2.2 -1.6,-2.2" style="fill:#1a171b;fill-rule:nonzero;"/><path d="M19.8,51.1c-0.1,0.1 -0.2,0.1 -0.4,0.1l-2.5,0l-0.1,0l0,-0.1c0.2,0 0.3,-0.1 0.4,-0.2c0.1,-0.1 0.2,-0.3 0.3,-0.7c0.1,-0.4 0.1,-0.6 0.3,-1.3l0.1,-0.5c0.1,-0.5 0.2,-0.9 0.2,-1c0,-0.3 -0.1,-0.4 -0.4,-0.5l0,-0.1l1.8,0l0,0.1c-0.2,0 -0.3,0.1 -0.4,0.2c-0.2,0.2 -0.3,0.5 -0.5,1.8l-0.1,0.5c-0.1,0.6 -0.1,0.8 -0.2,1c0,0.1 0,0.2 0,0.2c0,0.3 0.1,0.3 0.6,0.3c0.8,0 1.1,-0.2 1.3,-0.7l0.2,0.1c-0.3,0.3 -0.5,0.7 -0.6,0.8" style="fill:#1a171b;fill-rule:nonzero;"/><path d="M21.8,47.8c-0.2,0 -0.3,-0.1 -0.3,-0.3c0,-0.2 0.2,-0.4 0.4,-0.4c0.2,0 0.3,0.1 0.3,0.3c0,0.2 -0.1,0.4 -0.4,0.4m-0.7,3.5c-0.1,0 -0.2,-0.1 -0.2,-0.2c0,-0.1 0,-0.2 0.1,-0.3c0.1,-0.4 0.2,-0.9 0.3,-1.1c0.1,-0.4 0.1,-0.6 0.1,-0.7c0,-0.1 0,-0.1 -0.1,-0.1c-0.1,0 -0.1,0 -0.3,0.1l0,-0.2c0.4,-0.1 0.7,-0.2 0.9,-0.2c0.1,0 0.1,0 0.1,0.1c0,0.1 0,0.3 -0.2,0.8l-0.1,0.4c-0.2,0.7 -0.2,0.9 -0.2,1c0,0.1 0.1,0.2 0.2,0.2c0.1,0 0.2,0 0.4,-0.1l0,0.2c-0.4,0 -0.8,0.1 -1,0.1" style="fill:#1a171b;fill-rule:nonzero;"/><path d="M24.8,50.9c-0.3,0.2 -0.6,0.3 -1.1,0.3c-0.5,0 -0.8,-0.1 -0.8,-0.2c0,-0.1 0,-0.1 0.1,-0.4l0.4,-1.5c0.1,-0.5 0.2,-0.9 0.3,-1.4c0.1,-0.3 0.1,-0.5 0.1,-0.6c0,-0.1 0,-0.1 -0.1,-0.1c0,0 -0.2,0 -0.3,0.1l0,-0.2l0.1,0c0.4,-0.1 0.7,-0.2 0.8,-0.2c0.1,0 0.1,0 0.1,0.1c0,0.1 0,0.2 -0.1,0.8l-0.2,0.9c-0.1,0.3 -0.1,0.4 -0.1,0.5c0.4,-0.3 0.8,-0.4 1.1,-0.4c0.4,0 0.6,0.2 0.6,0.6c0,0.5 -0.4,1.3 -0.9,1.7m0,-2.1c-0.1,0 -0.3,0 -0.5,0.2c-0.1,0 -0.3,0.1 -0.3,0.2c-0.1,0.1 -0.2,0.3 -0.3,0.8c-0.1,0.4 -0.1,0.7 -0.1,0.8c0,0.1 0.1,0.2 0.4,0.2c0.3,0 0.5,-0.1 0.7,-0.4c0.3,-0.4 0.5,-1 0.5,-1.5c-0.1,-0.2 -0.2,-0.3 -0.4,-0.3" style="fill:#1a171b;fill-rule:nonzero;"/><path d="M27.2,50.1c0,0 -0.1,0 -0.2,0c0,0.1 0,0.2 0,0.3c0,0.3 0.1,0.5 0.4,0.5c0.2,0 0.5,-0.1 0.9,-0.4l0.1,0.2c-0.5,0.3 -0.9,0.5 -1.2,0.5c-0.4,0 -0.7,-0.3 -0.7,-0.7c0,-1.1 0.8,-2.1 1.6,-2.1c0.4,0 0.7,0.2 0.7,0.5c-0.1,0.7 -0.7,1.2 -1.6,1.2m0.7,-1.4c-0.3,0 -0.7,0.5 -0.8,1.1l0.1,0c0.6,0 1.1,-0.3 1.1,-0.8c-0.1,-0.1 -0.2,-0.3 -0.4,-0.3" style="fill:#1a171b;fill-rule:nonzero;"/><path d="M31.5,49.3l-0.2,0c0,-0.1 0,-0.2 0,-0.3c0,-0.1 -0.1,-0.2 -0.3,-0.2c-0.1,0 -0.2,0.1 -0.3,0.2c-0.3,0.3 -0.4,0.8 -0.5,1.5l-0.2,0.7c-0.3,0 -0.3,0 -0.6,0.1c0.1,-0.3 0.1,-0.5 0.2,-0.7l0.2,-0.6c0.1,-0.4 0.2,-0.7 0.2,-0.8c0,-0.2 0,-0.2 -0.1,-0.2c0,0 -0.1,0 -0.2,0l-0.2,0.1l0,-0.2c0.3,-0.1 0.7,-0.2 0.9,-0.2c0.1,0 0.1,0 0.1,0.1c0,0.1 0,0.2 0,0.3c0.3,-0.3 0.6,-0.4 0.8,-0.4c0.1,0 0.3,0.1 0.5,0.2c-0.2,0 -0.3,0.2 -0.3,0.4" style="fill:#1a171b;fill-rule:nonzero;"/><path d="M33.8,48.9l-0.6,0l-0.3,1.4c-0.1,0.4 -0.1,0.5 -0.1,0.5c0,0.1 0,0.1 0.1,0.1c0,0 0.2,0 0.3,-0.1l0.1,0l0,0.2c-0.4,0.1 -0.7,0.2 -0.9,0.2c-0.1,0 -0.2,-0.1 -0.2,-0.2c0,-0.1 0,-0.3 0.1,-0.5c0.1,-0.2 0.1,-0.4 0.2,-0.7l0.2,-1l-0.4,0l0,-0.2c0.5,-0.1 0.6,-0.5 0.8,-0.8l0.3,-0.1l-0.2,0.8l0.6,0l0,0.4Z" style="fill:#1a171b;fill-rule:nonzero;"/><path d="M35.9,48l-0.2,-0.2l0.8,-0.9l0.6,0.1l-1.2,1Zm-0.8,2.1c0,0 -0.1,0 -0.2,0c0,0.1 0,0.2 0,0.3c0,0.3 0.1,0.5 0.4,0.5c0.2,0 0.5,-0.1 0.9,-0.4l0.1,0.2c-0.5,0.3 -0.9,0.5 -1.2,0.5c-0.4,0 -0.7,-0.3 -0.7,-0.7c0,-1.1 0.8,-2.1 1.6,-2.1c0.4,0 0.7,0.2 0.7,0.5c-0.1,0.7 -0.7,1.2 -1.6,1.2m0.7,-1.4c-0.3,0 -0.7,0.5 -0.8,1.1c0.6,0 1.1,-0.3 1.1,-0.8c0,-0.1 -0.1,-0.3 -0.3,-0.3" style="fill:#1a171b;fill-rule:nonzero;"/><path d="M47.6,46.2l-0.3,-0.2l0.8,-0.9l0.6,0.1l-1.1,1Zm1.3,1.4l-0.2,0l0,-0.1c0,-0.4 -0.2,-0.5 -0.9,-0.5c-0.2,0 -0.4,0 -0.7,0c-0.1,0.6 -0.2,1.1 -0.4,1.7l1.1,0c0.3,0 0.4,-0.2 0.5,-0.5l0.2,0c-0.1,0.4 -0.2,1 -0.3,1.3l-0.2,0l0,-0.1c0,-0.3 -0.2,-0.4 -0.7,-0.4c-0.3,0 -0.5,0 -0.6,0c0,0.2 0,0 -0.2,0.8c-0.1,0.4 -0.1,0.6 -0.1,0.7c0,0.2 0.1,0.3 0.6,0.3c0.9,0 1.1,-0.1 1.4,-0.7l0.2,0.1c-0.2,0.4 -0.3,0.8 -0.4,0.9c-0.1,0.1 -0.2,0.1 -0.4,0.1l-2.6,0l0,-0.1c0.2,0 0.3,-0.1 0.4,-0.2c0.1,-0.1 0.2,-0.3 0.3,-0.7c0.1,-0.4 0.1,-0.5 0.3,-1.3l0.1,-0.5c0.1,-0.5 0.1,-0.9 0.1,-1c0,-0.3 -0.1,-0.4 -0.4,-0.5l0,-0.1l3,0c0,0.2 -0.1,0.5 -0.1,0.8" style="fill:#1a171b;fill-rule:nonzero;"/><path d="M52.2,48.9l-0.5,0c0.1,0.1 0.1,0.3 0.1,0.4c0,0.6 -0.5,1.1 -1.2,1.1c-0.1,0 -0.2,0 -0.4,-0.1c-0.2,0.1 -0.2,0.1 -0.2,0.2c0,0.1 0.1,0.1 0.4,0.2l0.5,0.2c0.5,0.2 0.8,0.3 0.8,0.7c0,0.7 -0.7,1.3 -1.6,1.3c-0.7,0 -1.2,-0.4 -1.2,-0.9c0,-0.5 0.3,-0.8 0.9,-0.9c-0.3,-0.1 -0.4,-0.2 -0.4,-0.3c0,-0.2 0.2,-0.3 0.6,-0.6c-0.2,-0.2 -0.3,-0.3 -0.3,-0.6c0,-0.6 0.5,-1.1 1.2,-1.1c0.2,0 0.3,0 0.5,0.1l0.9,0l-0.1,0.3Zm-1.3,-0.2c-0.4,0 -0.7,0.4 -0.7,0.9c0,0.3 0.2,0.5 0.4,0.5c0.4,0 0.7,-0.4 0.7,-0.8c0.1,-0.4 -0.1,-0.6 -0.4,-0.6m0.1,2.8c-0.2,-0.1 -0.5,-0.2 -0.8,-0.3c-0.5,0.1 -0.8,0.5 -0.8,0.9c0,0.4 0.3,0.6 0.8,0.6c0.6,0 1.1,-0.4 1.1,-0.8c0.1,-0.2 0,-0.3 -0.3,-0.4" style="fill:#1a171b;fill-rule:nonzero;"/><path d="M41.1,50c0.5,0 0.8,-0.4 0.8,-0.8c0,-0.4 -0.4,-0.8 -0.8,-0.8c-0.5,0 -0.8,0.4 -0.8,0.8c0,0.4 0.3,0.8 0.8,0.8" style="fill:#1a171b;fill-rule:nonzero;"/><rect x="17.3" y="54.1" width="84.9" height="0.3" style="fill:#1a171b;"/></g></svg>