<svg viewBox="0 0 620 128" xmlns="http://www.w3.org/2000/svg" fill-rule="evenodd" clip-rule="evenodd" stroke-linejoin="round" stroke-miterlimit="1.414">
    <path d="M620 13.28C620 5.951 614.049 0 606.72 0H13.28C5.951 0 0 5.951 0 13.28v101.44C0 122.049 5.951 128 13.28 128h593.44c7.329 0 13.28-5.951 13.28-13.28V13.28z" fill="#fff"/>
    <g fill-rule="nonzero">
        <path d="M261.642 77.933V42.244h6.823v11.397c2.189-2.061 4.721-3.188 7.594-3.381.376-.032.786-.048 1.231-.048 4.31 0 7.85 1.481 10.621 4.443 2.462 2.672 3.694 5.908 3.694 9.707 0 3.638-1.112 6.809-3.335 9.514-2.6 3.123-6.105 4.684-10.518 4.684-3.318 0-6.088-.885-8.312-2.656-.537-.44-1.05-.907-1.539-1.4v3.429h-6.259zm14.674-21.829c-2.942 0-5.183 1.094-6.721 3.284-1.026 1.417-1.54 3.074-1.54 4.974 0 3.058 1.163 5.36 3.489 6.906 1.402.934 3.044 1.401 4.926 1.401 3.078 0 5.37-1.143 6.875-3.429.923-1.385 1.385-2.995 1.385-4.83 0-2.929-1.129-5.199-3.386-6.81-1.437-.997-3.113-1.496-5.028-1.496zm49.921 11.301h-22.011c.616 2.382 2.189 3.976 4.72 4.78.958.323 2.002.484 3.13.484 2.326 0 4.207-.677 5.644-2.029.205-.193.41-.402.615-.627h7.44c-.41 1.19-1.162 2.43-2.257 3.718-2.976 3.22-6.739 4.829-11.287 4.829-4.516 0-8.278-1.448-11.288-4.346-2.737-2.64-4.105-5.828-4.105-9.562 0-4.057 1.523-7.454 4.566-10.19 2.874-2.608 6.346-3.912 10.416-3.912 4.515 0 8.175 1.513 10.979 4.54 2.463 2.672 3.694 5.956 3.694 9.852 0 .869-.085 1.69-.256 2.463zm-22.216-5.651h15.751c-.786-3.155-2.975-4.91-6.567-5.264a16.16 16.16 0 0 0-1.283-.048c-3.933 0-6.498 1.594-7.696 4.781-.068.161-.136.338-.205.531zm30.373 16.179V57.022h-3.335v-5.844h3.335v-8.934h6.825v8.934h4.104v5.844h-4.104v20.911h-6.825zm45.304-26.755v26.755h-6.259v-3.477c-2.258 2.415-4.891 3.766-7.902 4.056-.478.032-.991.048-1.538.048-4.481 0-8.09-1.496-10.826-4.491-2.326-2.575-3.489-5.715-3.489-9.417 0-4.444 1.573-8.017 4.721-10.722 2.667-2.253 5.917-3.38 9.747-3.38 3.729 0 6.687 1.223 8.876 3.671.137.16.274.337.411.53v-3.573h6.259zm-14.827 5.264c-3.011 0-5.285 1.127-6.824 3.38-.992 1.417-1.488 3.075-1.488 4.975 0 2.994 1.197 5.199 3.591 6.616 1.368.837 2.976 1.256 4.823 1.256 2.703 0 4.772-.806 6.208-2.415 1.266-1.61 1.95-3.445 2.052-5.505 0-3.06-1.163-5.361-3.488-6.906-1.402-.934-3.027-1.401-4.874-1.401zm26.114 16.661c-1.538 0-2.821 1.208-2.821 2.753 0 1.4 1.283 2.608 2.771 2.608 1.59 0 2.924-1.159 2.924-2.608 0-1.497-1.334-2.753-2.874-2.753zm33.812-21.925h6.515v21.684c0 4.893-.957 8.515-2.872 10.866-2.737 3.252-6.687 4.878-11.852 4.878-5.439 0-9.612-1.707-12.519-5.12a13.35 13.35 0 0 1-2.103-3.38h7.747c1.642 1.706 3.608 2.64 5.9 2.8.376.033.787.049 1.232.049 5.062 0 7.712-2.849 7.952-8.548-2.19 2.414-4.72 3.767-7.593 4.057-.548.064-1.13.096-1.745.096-4.378 0-7.901-1.529-10.569-4.588-2.257-2.608-3.386-5.811-3.386-9.61 0-4.282 1.521-7.759 4.566-10.432 2.599-2.253 5.747-3.38 9.44-3.38 4.105 0 7.201 1.336 9.287 4.008v-3.38zm-8.517 5.264c-3.112 0-5.371 1.208-6.772 3.622-.753 1.32-1.129 2.85-1.129 4.588 0 3.316 1.266 5.667 3.796 7.051 1.198.644 2.6.966 4.208.966 3.215 0 5.54-1.192 6.977-3.574.752-1.256 1.129-2.737 1.129-4.443 0-3.156-1.198-5.473-3.592-6.954-1.163-.741-2.497-1.16-4.002-1.256h-.615zm36.685-5.892c4.446 0 8.14 1.465 11.082 4.394 2.736 2.706 4.104 5.973 4.104 9.805 0 3.766-1.505 7.018-4.515 9.755-2.976 2.704-6.516 4.056-10.621 4.056-4.207 0-7.798-1.4-10.774-4.201-2.873-2.737-4.309-6.005-4.309-9.804 0-3.895 1.505-7.211 4.514-9.948 2.942-2.705 6.448-4.057 10.519-4.057zm.05 5.892c-2.565 0-4.686.982-6.361 2.946-1.232 1.481-1.847 3.171-1.847 5.07 0 2.737 1.077 4.927 3.232 6.569 1.471 1.094 3.146 1.642 5.028 1.642 2.634 0 4.771-1.014 6.413-3.043 1.197-1.481 1.796-3.171 1.796-5.071 0-2.608-1.044-4.733-3.13-6.375-1.505-1.158-3.215-1.738-5.131-1.738zm46.843-5.264v26.755h-6.311v-2.56c-1.983 1.835-4.138 2.866-6.464 3.091l-1.693.096c-3.831 0-6.721-1.32-8.671-3.96-1.299-1.803-2.001-4.25-2.103-7.34a25.905 25.905 0 0 1-.052-1.739V51.178h6.824v13.087c0 3.381.461 5.618 1.385 6.713.89 1.127 2.224 1.691 4.003 1.691 2.427 0 4.155-.821 5.181-2.463.718-1.031 1.078-3.172 1.078-6.423V51.178h6.823zm16.778 26.755l-11.442-26.755h7.594l6.567 17.723 6.465-17.723h7.696l-11.441 26.755h-5.439zm20.708-4.828c-1.449 0-2.656 1.207-2.656 2.751 0 1.4 1.207 2.608 2.607 2.608 1.497 0 2.752-1.159 2.752-2.608 0-1.496-1.255-2.751-2.703-2.751zm11.544-18.656h5.316l-5.374 24.886c-1.402 6.426-3.33 9.638-5.842 9.638-.701 0-1.169-.409-1.169-.993 0-.175.059-.292.234-.584.234-.408.292-.643.292-.993 0-1.285-1.051-2.278-2.337-2.278-1.226 0-2.161 1.109-2.161 2.512 0 1.986 2.045 3.563 4.615 3.563 5.316 0 9.464-5.842 12.034-16.765l4.381-18.986h6.485l.35-1.87h-6.367c1.752-9.346 4.031-13.494 7.302-13.494.818 0 1.285.292 1.285.759 0 .117-.058.292-.234.584-.292.468-.35.76-.35 1.227 0 1.403.876 2.337 2.161 2.337 1.344 0 2.512-1.11 2.512-2.395 0-2.161-2.161-3.797-5.082-3.797-2.863 0-5.199 1.285-7.361 4.031-1.752 2.336-2.979 5.024-4.79 10.748h-5.491l-.409 1.87zm23.835 23.484c3.212-10.223 4.206-12.618 6.893-17.116 2.044-3.33 3.68-5.141 4.673-5.141.409 0 .701.233.993.817.467.994.935 1.286 2.103 1.286 1.753 0 2.746-1.052 2.746-2.922 0-1.868-1.111-3.037-2.746-3.037-1.344 0-2.979.877-4.498 2.512-2.454 2.453-4.907 6.017-5.842 8.296l-.876 2.16 3.271-12.851-.175-.117c-4.264.759-4.907.877-9.172 1.577v.993c1.286-.233 1.519-.292 1.987-.292 1.285 0 2.044.584 2.044 1.636 0 .759-.467 3.154-.934 4.907l-4.966 17.292h4.499z" fill="#373c42"/>
        <path fill="#fff" d="M8.462 8h210.696v64.282H8.462z"/>
        <path d="M176.713 119.928c-.115-.043-.123-.158-.025-.41.122-.319.181-.345.657-.288.429.053.556.016.73-.217.348-.446.081-.768-.556-.662-.488.082-.488.077-.395-.257.29-1.061.314-1.002-.556-1.159a5.323 5.323 0 0 1-2.82-1.489c-1.16-1.16-1.555-2.332-1.439-4.218.059-.96.139-1.335.476-2.003 1.021-2.044 3.365-3.085 6.52-2.899.685.04 1.543.146 1.926.233l.684.158.07 2.273h-.418c-.243 0-.417-.068-.417-.157 0-.327-.847-1.069-1.439-1.272-.766-.27-2.251-.203-3.005.123-1.705.744-2.483 2.668-1.961 4.875.244 1.012.639 1.699 1.393 2.408.719.664 1.45.935 2.54.935 1.15 0 1.95-.417 2.46-1.284.348-.585.464-.663.8-.472.151.089.151.292.012 1.227l-.174 1.125-.626.191c-.348.102-1.137.226-1.752.271-1.079.067-1.137.09-1.137.36 0 .213.081.293.313.293.452 0 .882.315.986.731.116.484-.267 1.193-.765 1.429-.36.169-1.775.237-2.135.102l.053.053zm-81.506-.52c-1.183-.315-2.204-.792-3.434-1.599l-1.055-.699-1.636-.077c-1.822-.085-2.459-.268-3.632-1.049-2.598-1.72-2.691-6.099-.174-8.228 1.903-1.607 5.233-1.937 7.623-.76 3.237 1.589 3.585 6.277.638 8.734-.453.381-.894.693-.986.693-.278 0 2.947 1.59 3.887 1.916 1.044.36 2.25.407 3.143.123.65-.206.766-.18.87.194.07.22-.046.312-.696.585-1.032.432-3.19.513-4.489.167h-.059zm-4.014-3.821c2.297-1.08 2.738-4.544.859-6.755-1.74-2.049-4.792-1.74-5.94.604-1.032 2.116.151 5.39 2.262 6.256.858.349 1.949.311 2.831-.105h-.012zm-72 1.281c-.626-.247-1.318-1.018-2.408-2.689-1.677-2.572-1.991-2.95-2.46-2.95h-.406l.003 1.393c.006 2.538.29 3.405 1.176 3.607.236.053.329.16.329.381v.307H9.812v-.281c0-.214.105-.316.429-.406.238-.056.561-.27.72-.461.282-.338.288-.462.288-5.144 0-4.683-.006-4.807-.288-5.145a1.694 1.694 0 0 0-.72-.461c-.313-.079-.429-.18-.429-.383 0-.269.014-.269 3.478-.349 3.687-.078 4.499-.022 5.538.44.908.393 1.666 1.598 1.667 2.645.002 1.204-.987 2.555-2.292 3.14l-.684.304 1.512 2.038c1.775 2.408 2.331 3.05 2.853 3.298.488.224.534.731.082.833-.557.135-2.355.078-2.773-.091v-.026zm-3.426-6.889c1.836-.46 2.456-2.762 1.067-3.962-.654-.562-1.347-.768-2.234-.658l-.673.084v4.674h.65c.359 0 .904-.062 1.195-.138h-.005zm31.563 6.889c-.751-.24-1.458-.672-1.833-1.114-.681-.807-.753-1.23-.761-4.508-.009-3.426-.081-3.805-.777-4.095-.279-.117-.443-.276-.446-.433-.002-.236.088-.248 2.326-.248 2.324 0 2.33 0 2.33.279 0 .187-.081.278-.251.278-.137 0-.399.144-.582.319l-.332.319v3.359c0 3.161.017 3.388.284 3.847.418.721 1.253 1.089 2.323 1.032 1.149-.063 1.775-.431 2.227-1.324.348-.685.36-.718.36-3.726 0-2.69-.023-3.07-.243-3.365-.14-.184-.395-.369-.58-.41-.221-.048-.348-.166-.348-.312 0-.217.127-.233 1.844-.233s1.845.016 1.845.233c0 .146-.128.264-.336.311-.639.134-.685.405-.755 3.973l-.07 3.343-.417.72c-.487.856-1.276 1.453-2.285 1.723-.859.225-2.866.236-3.551.011l.028.021zm53.428 0c-.759-.243-1.459-.673-1.847-1.132-.646-.766-.739-1.328-.747-4.556-.012-3.354-.093-3.738-.778-4.03-.289-.116-.452-.275-.452-.432-.011-.236.081-.248 2.32-.248 2.298 0 2.321.003 2.321.27 0 .18-.105.282-.302.309-.162.023-.43.197-.58.389-.267.326-.29.529-.336 3.239-.059 3.329.046 4.031.673 4.608 1.125 1.047 3.48.754 4.141-.507.418-.799.522-1.789.476-4.413-.058-2.769-.151-3.117-.871-3.275-.22-.045-.348-.158-.348-.303 0-.215.128-.226 1.845-.226s1.856.022 1.856.237c0 .146-.162.292-.405.382-.221.09-.453.248-.511.36-.058.113-.139 1.711-.185 3.558l-.082 3.354-.417.731c-.488.856-1.277 1.453-2.298 1.722-.858.237-2.865.248-3.55.023l.077-.06zm43.363-.003c-.548-.216-1.198-.948-2.206-2.482-1.302-1.981-1.451-2.161-1.79-2.161-.301-.003-.307.022-.307 1.546 0 1.848.17 2.37.816 2.486.324.059.417.14.417.369v.293h-4.659v-.293c0-.229.092-.31.418-.369.781-.14.835-.475.788-4.778l-.041-3.811-.332-.319c-.182-.175-.444-.319-.582-.319-.154 0-.25-.09-.25-.236 0-.203.14-.248 1.01-.322.556-.056 2.076-.068 3.387-.045 2.135.033 2.448.067 2.959.315.905.428 1.415 1.272 1.415 2.33 0 1.013-.638 1.902-1.81 2.499-.371.191-.615.383-.534.427.082.046.685.811 1.346 1.711 1.3 1.767 2.019 2.556 2.321 2.556.266 0 .243.574-.023.664-.384.135-1.891.067-2.321-.102l-.022.041zm-2.531-5.816c.544-.254 1.079-.865 1.178-1.347.131-.619-.174-1.43-.696-1.88-.484-.406-.951-.529-1.761-.439l-.493.056v3.804h.692c.371 0 .858-.078 1.078-.18l.002-.014zm60.977 5.794c-.409-.1-.77-.202-.8-.23-.029-.022-.13-.574-.221-1.227l-.169-1.182h.386c.213 0 .387.045.387.101 0 .327.899 1.273 1.42 1.498 1.409.619 3.101.033 3.1-1.058 0-.721-.388-1.149-1.708-1.891-1.851-1.047-2.567-1.599-2.935-2.274-.371-.664-.435-1.711-.158-2.466.184-.495 1.044-1.249 1.769-1.531.729-.292 3.012-.281 3.956.012l.719.225v2.207h-.394c-.309 0-.415-.068-.483-.305-.142-.517-.877-1.159-1.492-1.306-1.635-.393-2.957 1.126-1.925 2.229.197.214 1.09.833 1.984 1.385 1.74 1.058 2.378 1.643 2.598 2.33.476 1.531-.313 2.893-2.006 3.456-.906.315-2.867.337-4.015.056l-.013-.029zm-179.468-.258c0-.221.077-.286.332-.286.197 0 .449-.135.617-.327.273-.312.283-.467.283-4.209 0-2.717-.058-3.968-.162-4.156-.209-.347-.534-.571-.836-.574-.162-.004-.243-.105-.243-.315v-.309h8.226v2.612l-.361-.038c-.278-.03-.405-.143-.522-.462-.278-.736-.73-.925-2.354-.98l-1.439-.047v3.521l1.102-.056c1.195-.065 1.799-.327 1.88-.822.023-.196.138-.266.406-.266h.36v3.219h-.372c-.301 0-.383-.056-.383-.293 0-.552-.464-.754-1.798-.799l-1.218-.045v1.745c0 2.093.012 2.127 1.578 2.127 1.542 0 2.343-.349 2.749-1.204.198-.428.673-.552.824-.214.093.225-.29 1.677-.58 2.184l-.209.36-3.968-.023-3.967-.023v-.281l.055-.039zm10.549.038c0-.225.092-.31.393-.366.72-.13.755-.315.802-4.285.045-4.134-.012-4.507-.766-4.821-.314-.131-.441-.271-.453-.475v-.291l3.11.053c3.364.056 3.642.112 4.559.798.998.766 1.265 2.285.58 3.411-.592.991-1.624 1.509-3.248 1.655l-.859.079-.209-.473-.22-.473.499-.068c.637-.078 1.333-.449 1.705-.9.209-.247.29-.518.279-.991-.023-1.204-.766-1.936-2.077-2.037l-.743-.056.035 4.131c.047 4.502.069 4.626.835 4.773.278.056.371.146.371.371v.293h-4.652v-.293l.059-.035zm22.738-.045c0-.191.081-.279.255-.279.14 0 .407-.107.581-.236l.325-.237.034-3.831c.047-4.289-.011-4.613-.8-4.881-.255-.084-.418-.23-.418-.36 0-.201.186-.226 2.088-.253 3.991-.058 4.838-.018 5.488.266.835.369 1.23.901 1.3 1.768.023.39.011.846-.036 1.013-.138.483-.777 1.078-1.484 1.373l-.662.272.558.149a2.7 2.7 0 0 1 1.983 2.939c-.151 1.125-.684 1.767-1.938 2.285-.66.27-.835.281-4.002.281h-3.282v-.281l.01.012zm6.034-.93c.695-.422.974-.995.892-1.858-.115-1.295-1.125-2.066-2.702-2.066h-.836l.035 1.867c.035 1.787.058 1.875.359 2.101.465.345 1.613.323 2.216-.044h.036zm-.569-5.137c.835-.293 1.276-.886 1.195-1.606-.116-.968-.986-1.507-2.425-1.507h-.824v3.338l.72-.007a4.929 4.929 0 0 0 1.322-.218h.012zm5.615 6.074c0-.199.093-.282.36-.309.197-.022.487-.191.649-.388.279-.338.29-.484.29-4.142 0-3.039-.046-3.853-.197-4.101-.243-.386-.557-.608-.87-.614-.162-.011-.243-.101-.243-.292 0-.282 0-.282 2.459-.282s2.459 0 2.459.271c0 .191-.081.27-.266.27-.151 0-.441.135-.65.293l-.348.326-.046 3.894-.036 3.895.348.203c.28.157.569.191 1.416.146 1.299-.067 1.914-.36 2.274-1.091.232-.485.499-.597.858-.395.128.079.105.304-.104 1.07-.151.529-.371 1.103-.487 1.261l-.221.292-3.828-.045-3.828-.045v-.27l.011.053zm9.583.038c0-.229.093-.31.417-.369.754-.135.813-.473.813-4.618 0-3.442-.023-3.707-.267-4.08-.151-.219-.429-.434-.615-.477-.244-.045-.348-.158-.348-.338 0-.259.035-.259 2.332-.259 2.297 0 2.32.012 2.32.27 0 .18-.116.293-.336.349a1.14 1.14 0 0 0-.581.417c-.219.304-.243.709-.243 4.109 0 4.198.058 4.536.765 4.671.291.056.384.146.384.371v.293h-4.653v-.293l.012-.046zm32.74-.023c0-.202.104-.29.417-.346.754-.135.812-.473.812-4.631 0-3.642-.011-3.7-.313-4.114-.174-.23-.453-.439-.615-.46-.22-.027-.301-.123-.301-.339v-.301h8.074v1.298c0 1.283-.011 1.295-.336 1.295-.267 0-.348-.08-.418-.429-.163-.731-.719-.978-2.355-1.035l-1.38-.045-.093.586c-.047.314-.093 1.114-.093 1.756v1.17l1.16-.068c1.276-.078 1.787-.281 1.926-.776.058-.225.174-.315.406-.315h.325v3.207h-.337c-.232 0-.348-.067-.348-.213-.011-.619-.673-.901-2.053-.901h-1.126l.047 1.734c.058 2.105.046 2.093 1.682 2.093 1.45 0 2.204-.315 2.599-1.08.197-.394.348-.529.568-.529.163 0 .348.056.395.135.127.18-.488 2.195-.731 2.409-.163.146-.859.169-4.084.146l-3.887-.023v-.269l.059.045zm15.07.03c0-.203.127-.338.429-.464.244-.096.557-.333.719-.525.279-.338.279-.491.279-5.008 0-5.245-.012-5.301-.963-5.582-.371-.113-.487-.214-.487-.451v-.303h9.582v3.095h-.417c-.336 0-.417-.057-.417-.281 0-.462-.511-1.081-1.068-1.295-.325-.124-1.067-.225-2.042-.259l-1.543-.056v4.232l1.125-.011c1.509-.011 2.019-.18 2.344-.765.208-.384.325-.473.649-.473h.406v3.725l-.44-.045c-.302-.033-.464-.123-.511-.292-.22-.732-1.055-1.059-2.726-1.059h-.882l.059 2.196c.057 2.499.174 2.87.997 3.129.36.113.476.225.476.439v.281h-5.616v-.281l.047.053zm21.916-.023c0-.225.069-.308.266-.308.418 0 .893-.771 1.937-3.118 1.393-3.147 2.715-6.345 2.715-6.574 0-.154.14-.198.65-.195l.649.002 1.846 4.274c2.006 4.641 2.378 5.362 2.842 5.549.185.073.302.228.302.4 0 .281 0 .281-2.333.281h-2.332v-.295c0-.225.093-.31.407-.367.592-.105.626-.465.174-1.688l-.395-1.05h-3.237l-.324.866c-.418 1.092-.395 1.835.057 1.903.221.033.302.123.302.337v.304h-3.562v-.304l.036-.017zm6.299-4.328c0-.18-1.01-2.656-1.09-2.656-.058 0-.198.236-.314.529l-.58 1.362-.348.833h1.161c.637 0 1.159-.022 1.159-.056l.012-.012zm5.893 4.345c0-.214.093-.304.371-.36.743-.135.766-.304.824-4.345.059-4.165 0-4.514-.8-4.783-.243-.08-.417-.226-.417-.361 0-.192.151-.214 1.543-.214h1.531l.893 1.024c.488.564 1.752 1.936 2.808 3.062.751.798 1.494 1.605 2.227 2.42l.314.372-.047-2.792c-.046-3.039-.127-3.354-.859-3.523-.22-.045-.348-.169-.348-.315 0-.214.128-.237 1.845-.237 1.741 0 1.845.023 1.845.248 0 .158-.116.259-.302.281-.162.023-.429.203-.58.395-.279.337-.29.506-.336 4.918l-.047 4.571h-.603c-.545 0-.649-.045-1.056-.518-.371-.417-6.172-6.911-6.393-7.137-.034-.034-.034 1.328 0 3.028.059 3.456.151 3.861.802 3.985.301.056.393.135.393.36v.293h-3.689v-.293l.081-.079zm23.969-.011c0-.18.07-.304.186-.304.267 0 .777-.574 1.137-1.306.499-1.002 2.843-6.461 3.248-7.564l.372-1.025 1.229.091 1.81 4.209c.998 2.32 1.926 4.402 2.065 4.638.302.552.754.991.987.991.104 0 .185.135.185.315v.315h-4.664v-.315c0-.214.07-.304.244-.304.661 0 .719-.518.22-1.88l-.359-.956h-3.214l-.29.833c-.546 1.576-.522 2.014.127 2.014.186 0 .256.091.256.315v.316h-3.561v-.316l.022-.067zm5.813-5.526c-.267-.698-.511-1.351-.557-1.453-.046-.113-.325.36-.685 1.182-.336.754-.603 1.407-.603 1.452 0 .057.51.101 1.149.101h1.148l-.475-1.26.023-.022zm6.242 5.537c0-.236.069-.304.312-.304a.937.937 0 0 0 .581-.259c.232-.236.255-.529.29-4.108.023-2.117.012-3.973-.035-4.12-.093-.349-.603-.777-.917-.777-.174 0-.255-.089-.255-.269 0-.271 0-.271 2.321-.271 2.239 0 2.332.011 2.332.247 0 .158-.151.316-.407.406-.22.09-.452.315-.533.495-.198.473-.314 4.334-.186 6.416.082 1.452.139 1.801.36 2.016.139.145.371.258.51.258.174 0 .244.09.244.315v.316h-4.653v-.316l.036-.045zm15.337-.022c0-.214.081-.282.336-.282.197 0 .441-.135.615-.326.267-.315.278-.462.278-4.21 0-2.713-.046-3.962-.162-4.153-.209-.338-.534-.564-.835-.575-.162 0-.244-.101-.244-.315v-.303h8.214v2.611l-.36-.034c-.267-.023-.394-.135-.511-.461-.266-.732-.718-.923-2.354-.98l-1.439-.045v3.489h.859c1.183-.011 1.763-.202 2.019-.697.15-.293.289-.394.545-.394h.336v3.207h-.348c-.313 0-.383-.056-.383-.292 0-.551-.452-.754-1.798-.799l-1.218-.045v1.733c0 2.094.023 2.128 1.589 2.128 1.543 0 2.344-.349 2.75-1.205.197-.427.673-.551.823-.214.094.225-.29 1.678-.579 2.184l-.21.361-3.967-.023-3.968-.022v-.293l.012-.045zM26.804 105.311l-.334-.234.815-1.114c.448-.619.901-1.126 1.009-1.126.462 0 1.938.282 1.901.372-.074.178-2.778 2.352-2.918 2.349-.075 0-.288-.106-.472-.236l-.001-.011zM9.401 96.769h208.643v1.109H9.399v-1.112l.002.003zm79.408-2.532c-1.096-.354-1.713-1.272-1.513-2.263.138-.664.556-1.132 1.299-1.44l.65-.271-.395-.202c-.221-.118-.395-.312-.395-.451 0-.225 1.01-1.125 1.253-1.125.059 0-.022-.206-.185-.458-.696-1.073-.14-2.625 1.172-3.232.708-.33.951-.344 3.434-.201 1.426.084 1.485.098 1.403.349l-.081.359c0 .05-.232.092-.533.092h-.534l.069.718c.163 1.568-1.078 2.642-3.074 2.671-1.033.015-1.531.214-1.126.448.117.065.79.287 1.486.493 2.273.664 2.691.998 2.598 2.06-.092 1.109-1.079 2.071-2.505 2.459-.813.222-2.286.22-2.982-.004l-.041-.002zm3.05-.765c1.112-.499 1.593-1.453.987-1.948-.411-.335-2.191-.849-2.653-.765-.939.168-1.821 1.204-1.658 1.947.22 1.024 1.891 1.41 3.317.767l.007-.001zm.367-5.595c.835-.457 1.16-1.762.603-2.406-.765-.882-2.228.102-2.239 1.509 0 .437.07.591.383.833.464.36.719.371 1.277.067l-.024-.003zm5.197 2.87c-.603-.113-.916-.473-.985-1.115-.174-1.642 1.356-4.056 3.074-4.834.893-.405 2.656-.446 3.828-.09.104.034.036.456-.244 1.325-.522 1.7-.834 3.401-.66 3.695.115.192.197.207.568.093.336-.113.452-.101.546.034.196.281.081.382-.709.63-1.044.326-1.531.259-1.693-.225l-.117-.383-.556.282c-.94.483-2.239.731-3.017.585l-.035.003zm2.368-1.111c.405-.171.811-.433.928-.585.185-.251.742-2.105.963-3.186.092-.442.081-.457-.418-.582-.917-.234-1.845.372-2.576 1.689-.766 1.373-.962 2.602-.464 2.921.348.219.557.18 1.589-.259l-.022.002zm64.864 1.075c-.615-.135-.824-.326-.999-.889-.255-.855.337-2.473 1.347-3.669 1.206-1.43 2.541-1.915 4.513-1.633.522.074.985.175 1.032.222.059.045-.116.836-.383 1.756-.255.917-.487 2.029-.498 2.472l-.024.808.58-.022c.522-.023.581.011.581.258 0 .237-.129.315-.789.496-1.079.304-1.59.236-1.648-.203-.023-.18-.069-.338-.093-.338-.023 0-.382.136-.789.293-.649.259-1.983.596-2.25.563-.047 0-.291-.056-.534-.102l-.046-.012zm2.297-1.058c.336-.157.719-.382.847-.506.301-.316.847-1.925 1.137-3.343.081-.384.058-.406-.464-.53-.441-.112-.627-.101-1.021.068-.87.371-1.729 1.632-2.182 3.185-.429 1.489.105 1.84 1.706 1.119l-.023.007zm-148.57.776c-.035-.157.209-1.305.546-2.554.672-2.466.672-2.668-.07-2.477-.36.09-.395.068-.395-.18 0-.236.128-.315.789-.493.429-.113 1.009-.22 1.265-.236.452-.027.487-.003.522.387.023.228-.209 1.359-.522 2.51-.314 1.155-.534 2.184-.488 2.29.07.151.209.173.708.106.592-.083.627-.073.58.196-.035.226-.209.326-.8.495-.407.113-1.044.215-1.404.215-.557 0-.65-.035-.72-.271l-.011.012zm5.267.057l-.313-.237 1.067-4.209c.58-2.316 1.045-4.367 1.021-4.564-.046-.363-.093-.382-.626-.236-.256.071-.302.038-.302-.225 0-.361.487-.535 1.822-.653.765-.068.788-.064.788.225 0 .165-.208 1.182-.475 2.261-.267 1.08-.476 2.031-.476 2.119 0 .124.151.101.592-.074 1.531-.608 2.854-.574 3.341.079.452.619.22 2.206-.51 3.511-.371.687-1.497 1.746-2.112 1.993-.8.326-3.33.338-3.782 0l-.035.01zm3.469-.788c.696-.439 1.462-1.925 1.671-3.231.22-1.316-.743-1.576-2.274-.618a1.823 1.823 0 0 0-.719.822c-.244.607-.755 2.577-.755 2.928 0 .518 1.335.579 2.088.09l-.011.009zm5.232.631c-.371-.349-.394-.451-.394-1.273.023-2.089 1.334-3.956 3.144-4.469.905-.258 1.705-.168 2.239.242.313.239.371.388.371.893 0 1.272-1.276 2.24-3.132 2.353-.534.033-1.021.124-1.067.199-.151.212-.117.923.057 1.227.349.586.836.602 2.008.057.73-.338.881-.372.998-.214.243.345.127.454-.929.905-.882.374-1.218.451-1.96.451-.813 0-.929-.032-1.3-.378l-.035.007zm2.46-2.972c1.172-.293 1.938-1.419 1.346-1.959-.372-.339-.72-.328-1.207.04-.383.293-1.009 1.219-1.195 1.771-.069.226-.035.271.232.271.174 0 .557-.068.847-.136l-.023.013zm4.617 3.303c0-.018.244-.978.545-2.127.302-1.152.558-2.336.558-2.634v-.541l-.546.08c-.487.067-.545.049-.545-.169 0-.271.441-.478 1.554-.73.766-.169 1.056-.052 1.056.428v.291l.487-.298c.859-.517 1.381-.619 1.996-.36.302.124.522.281.499.36-.371 1.182-.58 1.554-.882 1.554-.267 0-.313-.056-.313-.416 0-.902-.859-.902-1.497-.012-.383.563-.788 1.823-1.113 3.501-.093.506-.244.923-.314.945-.244.068-1.45.18-1.45.146l-.035-.018zm6.88-.117c-.151-.158-.07-.607.72-3.827l.324-1.328h-.464c-.255 0-.464-.034-.464-.068 0-.191.313-.551.476-.551.336 0 .974-.586 1.253-1.137.301-.608.418-.709.87-.709.301 0 .325.045.244.405-.047.225-.128.619-.174.867l-.082.461h.638c.65 0 .743.102.557.552-.058.146-.266.203-.731.203-.766 0-.638-.248-1.241 2.465-.441 1.992-.418 2.172.325 1.98.626-.157.672-.145.626.169-.035.215-.209.327-.731.485-.835.259-1.891.292-2.099.068l-.047-.035zm5.534-.158c-.998-.967-.278-3.747 1.322-5.042.65-.529 1.671-.934 2.333-.934.429 0 1.356.394 1.496.63.221.372.151 1.261-.128 1.677-.568.856-1.821 1.407-3.179 1.407h-.8v.653c0 1.272.592 1.486 2.123.811.488-.214.917-.371.952-.338.034.034.081.169.115.304.036.203-.15.338-.962.709-.882.405-1.137.461-1.961.461-.847 0-.986-.033-1.276-.314l-.035-.024zm2.413-3.027c.731-.214 1.229-.597 1.45-1.069.186-.395.186-.462-.058-.755-.371-.45-.742-.461-1.311-.011-.44.349-1.183 1.509-1.183 1.846 0 .18.522.169 1.102-.011zm51.453 3.276c-.185-.169-.07-.901.592-3.422.893-3.422 1.369-5.449 1.369-5.775 0-.236-.058-.259-.476-.192-.429.068-.475.046-.475-.224 0-.305.348-.451 1.705-.687.708-.113.905-.034.905.371 0 .191-.452 2.139-1.021 4.345s-1.033 4.199-1.033 4.424v.417l.626-.068c.592-.067.628-.056.581.202-.035.215-.209.327-.789.485-.766.224-1.798.292-1.961.146l-.023-.022zm5.163-.068c-.163-.248-.07-.777.51-2.848.314-1.069.534-2.049.511-2.161-.059-.214-.093-.225-.685-.101-.313.067-.382.045-.382-.169 0-.293.591-.551 1.658-.743.766-.124 1.091-.057 1.091.225 0 .101-.279 1.238-.615 2.521-.336 1.284-.58 2.398-.522 2.466.058.078.325.1.696.056.58-.068.615-.056.568.202-.034.215-.208.327-.8.484-.882.26-1.856.293-1.996.08l-.034-.012zm5.058-.056c-.046-.113-.012-.518.081-.89.314-1.238.975-4.097.975-4.153 0-.034-.186-.056-.417-.056-.592 0-.477-.349.219-.675.418-.192.662-.44.998-1.025.394-.664.511-.766.848-.766h.382l-.186.777c-.104.428-.185.81-.185.867 0 .045.301.09.684.09.719 0 .743.011.604.461-.07.248-.174.282-.789.282h-.708l-.464 2.082c-.255 1.148-.429 2.172-.383 2.285.069.158.174.18.534.079.626-.157.661-.146.661.18 0 .248-.116.326-.801.495-1.055.271-1.914.271-2.03 0l-.023-.033zm5.65-.068c-.337-.259-.406-.405-.452-1.103-.104-1.554.684-3.309 1.856-4.12 1.299-.889 2.714-1.001 3.503-.292.372.337.406.427.337.99-.128 1.227-1.427 2.116-3.214 2.195-1.113.057-1.23.18-1.009 1.047.244.946.673 1.046 2.042.461.904-.382 1.114-.382 1.114 0 0 .394-1.636 1.036-2.82 1.092-.87.046-1.009.022-1.357-.258v-.012zm2.9-3.309c.859-.394 1.23-1.261.743-1.745-.615-.608-1.741.192-2.309 1.632l-.197.529.615-.078a5.082 5.082 0 0 0 1.16-.327l-.012-.011zm32.751 3.545c0-.022.244-.979.546-2.127.301-1.148.557-2.33.557-2.634v-.541l-.545.08c-.488.067-.546.056-.546-.169 0-.293.243-.417 1.357-.676.964-.224 1.254-.135 1.254.383v.293l.487-.293c.859-.518 1.381-.619 1.995-.371.302.124.534.258.534.293 0 .044-.127.427-.301.844-.256.641-.36.776-.615.776-.256 0-.314-.067-.314-.416 0-.844-.8-.912-1.404-.113-.452.608-.684 1.272-1.067 3.005-.162.788-.336 1.464-.383 1.498-.081.079-1.519.259-1.519.191l-.036-.023zm15.802-.146c-.104-.259.023-1.024.545-3.208l.453-1.857-.383-.034c-.452-.045-.534-.45-.104-.574.487-.135 1.044-.641 1.31-1.194.302-.607.418-.709.87-.709.302 0 .325.046.244.406-.046.225-.127.619-.174.867l-.081.461h.638c.649 0 .742.102.557.552-.058.146-.267.203-.731.203-.754 0-.638-.249-1.241 2.464-.441 1.993-.418 2.173.325 1.982.626-.158.673-.147.626.169-.035.213-.209.325-.731.483-.905.282-1.96.293-2.077.035l-.046-.046zm5.534-.123c-1.033-.935-.313-3.738 1.3-5.044.649-.529 1.67-.934 2.331-.934.43 0 1.358.394 1.496.631.221.371.151 1.26-.127 1.688-.58.866-1.821 1.407-3.19 1.407h-.813l.07.766c.104 1.204.592 1.373 2.088.697.488-.213.917-.371.952-.337.035.033.081.169.116.304.046.202-.151.338-.963.709-.871.405-1.137.462-1.926.462-.8 0-.963-.035-1.276-.316l-.058-.033zm2.877-3.22c.963-.428 1.392-1.418.789-1.835-.394-.27-.685-.225-1.207.191-.44.349-1.183 1.509-1.183 1.858 0 .202.939.079 1.59-.214h.011zm4.165 3.445c0-.056.256-1.058.557-2.229.313-1.171.546-2.307.522-2.522-.035-.36-.07-.382-.545-.36-.383.011-.511-.034-.569-.214-.046-.191.07-.281.639-.473.399-.131.806-.24 1.218-.326.533-.09.521-.101.858.63.011.012.371-.146.812-.348.952-.429 1.102-.451 1.682-.125l.441.237-.29.799c-.244.675-.348.811-.603.811s-.314-.067-.314-.405c0-1.081-1.136-.867-1.751.326-.151.292-.465 1.328-.684 2.296-.221.968-.43 1.767-.453 1.79-.116.09-1.485.169-1.485.09l-.035.023zm6.857 0c0-.056.22-.878.499-1.824.29-1.036.498-2.06.51-2.578l.023-.867-.487.046c-.383.034-.511-.012-.557-.192-.058-.191.058-.27.627-.427 1.241-.349 1.531-.372 1.775-.147.131.132.21.309.22.495 0 .158.023.293.058.293.023 0 .429-.169.905-.371 1.102-.473 2.563-.721 3.005-.507.278.135.301.203.22.777a32.118 32.118 0 0 1-.499 2.116c-.22.822-.418 1.688-.441 1.925-.034.427-.034.427.534.416.394-.011.603.045.65.169.104.259-.023.338-.882.563-.975.259-1.879.259-1.984 0-.046-.112.162-1.182.464-2.398.603-2.431.638-2.712.348-2.803-.301-.101-1.346.361-1.972.867-.522.416-.58.552-.905 1.767a37.549 37.549 0 0 0-.441 1.914c-.057.326-.174.619-.255.642-.418.112-1.462.168-1.462.079l.047.045zm9.397-.091c-.047-.112.197-1.249.545-2.543.348-1.284.603-2.409.557-2.511-.046-.124-.174-.135-.522-.044a6.801 6.801 0 0 1-.487.123c-.012 0-.035-.123-.035-.281 0-.237.128-.315.72-.473 1.624-.439 2.122-.36 1.96.293-.035.169-.325 1.238-.627 2.386-.301 1.148-.522 2.172-.475 2.274.057.135.231.169.708.101.58-.068.614-.056.58.203-.093.529-2.715.99-2.912.518l-.012-.046zm5.174 0c-.092-.214.023-.799.557-2.949.591-2.375.591-2.161.093-2.161-.604 0-.499-.337.197-.664.406-.191.649-.439.974-.991.36-.596.511-.742.813-.776.418-.046.418-.011.127 1.317l-.081.405h.72c.603 0 .707.034.637.192a1.18 1.18 0 0 0-.081.371c0 .135-.185.18-.73.18h-.732l-.452 2.082c-.244 1.149-.406 2.173-.359 2.285.069.169.174.18.545.091.626-.158.661-.147.661.18 0 .258-.116.326-.801.495-1.044.27-1.914.27-2.029 0l-.059-.057zm5.639-.089c-.384-.305-.395-.338-.395-1.531 0-1.16.023-1.261.522-2.162.615-1.103 1.299-1.699 2.425-2.071 1.949-.652 3.342.462 2.483 1.981-.488.867-1.775 1.486-3.098 1.486-.789 0-.847.023-.928.326-.116.417.035 1.036.301 1.317.314.327.847.271 1.81-.18.72-.326.87-.36.975-.213.243.349.127.484-.789.878-.708.315-1.16.416-1.891.449-.882.046-1.009.024-1.369-.258l-.046-.022zm2.993-3.333c.928-.461 1.241-1.384.592-1.767-.244-.146-.429-.169-.72-.078-.475.135-1.171.945-1.45 1.7l-.22.584.637-.078a4.21 4.21 0 0 0 1.178-.361h-.017zM8.473 90.373c.023-.12.165-.236.313-.261.406-.069.754-.395 1.033-.953.36-.743 1.497-5.898 1.531-6.968.024-.911.024-.922-.418-1.17-.846-.485-.614-.563 1.753-.563 1.879 0 2.192.034 2.192.191 0 .113-.174.225-.417.27-.871.158-1.207.935-2.031 4.762-.765 3.579-.765 3.512-.417 3.827.266.236.406.259 1.473.214 1.439-.068 1.961-.282 2.46-1.035.394-.586.417-.598.696-.44.162.091.151.214-.035.709a6.107 6.107 0 0 1-.534 1.104l-.313.494-3.666.035c-3.434.022-3.666.011-3.62-.192v-.024zm69.289.037c0-.096.233-.276.522-.401.36-.158.604-.395.812-.784.395-.725 1.578-5.99 1.601-7.103.023-.839.012-.866-.417-1.112-.916-.529-.708-.562 3.469-.562 3.828 0 3.909.007 3.828.244-.046.124-.162.619-.255 1.081-.139.709-.209.844-.464.878-.244.033-.301-.023-.301-.293 0-.822-.535-1.058-2.46-1.058h-1.323l-.371 1.575c-.142.598-.289 1.195-.441 1.791-.058.191.059.213 1.148.213 1.369 0 1.776-.135 2.17-.709.36-.517.824-.551.719-.068l-.313 1.475c-.186.901-.29 1.137-.464 1.137-.139 0-.255-.135-.313-.372-.046-.202-.22-.438-.394-.518-.325-.157-2.483-.236-2.634-.089-.093.078-.499 1.857-.673 2.971-.081.529-.058.597.255.789.278.169.592.191 1.555.157 1.427-.068 1.937-.27 2.525-1.024.255-.327.498-.518.606-.473.267.09.237.315-.167 1.182-.603 1.294-.267 1.204-4.466 1.204-3.075 0-3.678-.033-3.678-.18l-.076.049zm69.598.003c0-.098.209-.241.453-.315.87-.267 1.159-.972 2.018-4.973.743-3.445.731-3.996-.139-4.247-.151-.044-.255-.145-.221-.224.047-.101 1.114-.152 3.864-.176 3.736-.034 3.806-.034 3.713.203-.047.135-.163.619-.255 1.08-.14.71-.21.845-.465.878-.255.034-.301-.022-.301-.349 0-.788-.662-1.035-2.53-.979l-1.078.033-.384 1.6c-.208.877-.382 1.676-.382 1.755 0 .225 2.088.203 2.587-.033.208-.102.464-.349.556-.564.106-.236.28-.382.43-.382.325 0 .325-.09-.035 1.576-.244 1.17-.336 1.395-.545 1.395-.151 0-.243-.089-.243-.225 0-.573-1.277-1.013-2.46-.833l-.522.079-.278 1.385c-.488 2.431-.465 2.656.278 2.927.824.303.348.416-1.845.449-1.799.035-2.147.012-2.147-.146l-.069.086zm-80.364-2.659c-.615-.251-1.148-1.027-1.148-1.662 0-.982.962-1.86 2.042-1.856 1.288.004 2.076.711 2.076 1.85.012 1.452-1.462 2.285-2.959 1.677l-.011-.009zm69.737.059c-.232-.094-.604-.377-.812-.631-.314-.374-.383-.579-.371-1.102.023-1.135.8-1.836 2.054-1.836.626 0 .834.062 1.252.372.951.686 1.102 1.835.348 2.645a2.195 2.195 0 0 1-2.447.552h-.024zm-81.911-4.396c-.267-.268-.291-.24 1.264-1.839l.524-.54.78.157c.429.088.781.196.781.241 0 .083-2.936 2.227-3.048 2.227-.035 0-.174-.11-.313-.245l.012-.001zm69.692 0l-.305-.22 1.032-1.065c.569-.586 1.08-1.065 1.15-1.065.336 0 1.507.303 1.484.383-.034.081-2.587 1.933-2.912 2.116-.081.04-.278-.026-.44-.147l-.009-.002zm91.068.002l-.331-.225 1.072-1.064c.589-.585 1.12-1.063 1.181-1.063.278 0 1.507.297 1.496.36 0 .067-2.587 1.951-2.924 2.133-.081.045-.302-.017-.479-.141h-.015zm-195.51-.635c-.556-.501-.013-1.47.824-1.47.585 0 .888.276.888.805 0 .825-1.073 1.243-1.712.664v.001zm92.451.088c-.337-.229-.317-.993.035-1.311.563-.507 1.643-.169 1.643.518 0 .743-1.033 1.238-1.671.81l-.007-.017zm90.984-.088c-.569-.511-.011-1.47.847-1.47.859 0 1.23.867.603 1.428-.426.38-1.067.4-1.461.042h.011zM83.477 79.25c-.209-.209-.162-.285.828-1.257l1.057-1.036.783.169c.429.09.777.192.777.236-.012.125-2.761 2.027-3.005 2.083-.128.033-.325-.045-.44-.169v-.026z"/>
        <path d="M129.03 72.282l.32-.744c.542-1.348 1.102-2.376 1.914-3.505.858-1.195 2.75-2.956 3.535-3.292.967-.414 2.167-.56 3.655-.444 1.276.102 5.193.679 6.775 1.002 1.204.243 2.968.266 3.797.048 1.598-.418 2.544-1.23 2.994-2.563.345-1.025.342-1.96-.009-2.578-.471-.833-.391-1.058.754-2.038.564-.495 1.027-.946 1.029-1.002 0-.337-.79-1.655-.987-1.666-.127 0-.371-.112-.545-.236l-.325-.236.673-.315c.928-.429 1.613-1.093 1.613-1.565 0-.202-.198-.698-.441-1.104-.465-.776-.58-1.519-.325-1.958.163-.293.464-.416 1.903-.788 1.206-.315 1.647-.641 1.821-1.339.139-.597.069-.98-.325-1.7-.324-.586-2.436-3.501-3.039-4.21-.825-.956-1.833-2.611-2.124-3.501-.289-.877-.301-.933-.081-2.06.452-2.397.185-4.378-1.102-8.239-.963-2.882-1.218-3.58-1.508-4.12-.546-.968-.476-1.193.638-2.014.533-.395 1.021-.811 1.091-.935.336-.563-.047-1.654-.674-1.958-.406-.192-.626-.057-1.032.618-.314.518-.441.608-.766.608-.545 0-.637-.202-.289-.619.393-.495.371-.574-.267-.652-.476-.057-.72-.226-1.753-1.171-1.369-1.261-2.297-1.846-4.129-2.611-.847-.349-1.137-.518-.836-.473.267.033 1.195.1 2.076.146 2.542.112 3.156-.191 3.748-1.846.395-1.126.592-1.644-.337-2.431L143.156 8h75.999v64.282H129.03z" fill="#e2011c"/>
        <path d="M64.222 72.282c-.55-.052-1.029-.074-1.062-.104-.059-.052.564-.414 3.417-1.982.917-.504 1.293-.773 1.165-.836-.104-.049-.902-.128-1.775-.175-1.297-.068-1.673-.05-2.053.109-.259.107-1.286.387-2.283.623-2.483.586-3.307.989-4.107 1.982l-.302.382H8.462V8h96.763l-1.874 1.103c-1.033.464-2.233 1.107-2.666 1.43-1.472 1.091-3.454 3.581-3.949 4.958-.185.507-.348.694-.904 1.039-.859.525-1.88 1.524-2.727 2.663-1.148 1.547-3.341 5.031-3.77 5.997-.673 1.5-.615 2.643.371 7.123.429 1.973.894 3.978 1.032 4.455.14.476.291 1.283.337 1.792.081.913.151 1.109.743 2.228.162.305.289.652.289.772 0 .118.117.285.268.371.16.101.26.276.267.465 0 .214.312.621.997 1.3 1.567 1.553 2.703 3.009 2.703 3.47 0 .379-.614.476-1.612.255-1.161-.258-2.112-.815-3.574-2.097-.626-.547-1.125-.912-1.125-.815 0 .096.418.604.94 1.126 1.032 1.041 1.195 1.325.974 1.702-.197.332-.672.428-1.322.267-.755-.186-1.184.073-1.067.627.069.349.057.383-.163.316-.418-.147-1.346-.316-2.17-.395-.766-.067-.823-.101-1.276-.675-.348-.439-.626-.641-.986-.732-1.357-.338-4.745-.878-7.007-1.103-3.991-.394-4.954-.428-6.868-.213-1.473.156-1.868.258-2.669.618-1.427.653-3.898 2.702-3.898 3.231 0 .247.546.169 1.16-.18 1.88-1.047 8.342-2.533 11.509-2.646 1.566-.056 1.485.012-.406.327-.522.09-1.752.372-2.738.642s-2.692.675-3.782.911c-1.09.226-2.332.529-2.738.664l-.754.248 1.16.012c5.94.056 12.692 1.755 15.454 3.883 1.182.912 1.612 1.024 3.352.855 2.39-.225 5.476-1.249 6.833-2.274.592-.439 1.068-.619 1.068-.382 0 .405-.777 2.578-1.114 3.107-.371.607-.395.686-.197.822.116.078.186.18.139.213-.046.045.047.113.209.158.452.135.337.258-.383.416-.696.169-1.253.451-1.253.642 0 .067.093.124.209.124.348 0 .093.225-.371.314-.314.068-.372.113-.232.193.139.078.139.112.011.112-.093 0-.174.124-.174.281 0 .192-.139.327-.418.439-.684.281-.499.428.441.349.476-.045.766-.045.65 0-.116.034-.881.349-1.705.698-.836.337-1.914.754-2.402.912-.557.18-.905.36-.94.495-.046.214.209.203.859-.022.116-.046.221-.023.221.033s-1.428.799-3.168 1.655c-1.752.855-3.376 1.733-3.631 1.948-.256.224-.568.405-.719.405-.14 0-.325.146-.418.315-.267.529-.221.596.418.495.939-.146 1.38-.135 1.439.034.034.089-.059.157-.21.157a.646.646 0 0 0-.429.181c-.093.1-.325.202-.522.213-.244.034-.464.18-.65.44-.15.213-.394.427-.545.461-.151.033.061.045.476.011 6.16-.416 7.309-.619 9.795-1.756 2.118-.968 4.316-2.42 5.882-3.861.452-.417.87-.754.928-.754.212 0 .096.686-.217 1.306-.545 1.058-1.682 2.026-4.026 3.433-1.183.709-2.459 1.384-2.837 1.486-1.177.337-3.075.698-5.07.956-6.489.845-8.973 1.487-11.433 2.961-.415.237-.847.428-.962.405-.117-.011-.429.135-.685.338-.731.574-.197.472 1.334-.237 1.578-.731 2.309-.844 1.068-.169-1.52.833-2.668 1.362-3.806 1.362h-6.05l.073-.127zm-8.061-7.17c.246-.094 1.061-.506 1.811-.916.75-.41 1.64-.86 1.979-.999l2.124-.867c1.736-.706 4.286-1.373 4.432-1.158.052.074.432.157.847.183.576.035.677.07.44.146-.169.053-.308.146-.308.207 0 .223 1.282.158 1.821-.095.213-.102.691-.214 1.063-.26.463-.056.677-.134.677-.258 0-.147.119-.169.536-.102.577.091 1.814-.123 5.151-.878 2.257-.517 3.968-1.035 5.471-1.654l1.086-.45-1.086-.631c-2.651-1.531-5.314-2.476-11.158-3.951-1.017-.259-1.911-.529-1.986-.596-.09-.08-.046-.091.137-.034.584.191 1.028.225 1.028.079 0-.181-.441-.327-1.309-.439-.792-.102-1.304-.315-.753-.315.852 0-.613-.496-2.254-.744-1.214-.191-1.284-.236-.777-.461.441-.191.916-.923.792-1.215-.104-.26-.231-.226-.893.168-1.265.766-2.424 2.026-3.074 3.332-.371.743-.244.811 1.67.889 1.578.057 1.601.068 1.195.259a4.262 4.262 0 0 1-1.009.281c-1.114.147-1.729.631-1.172.913.163.078.104.145-.302.326-.452.192-.475.236-.267.337.14.068.535.102.883.079.486-.033.707.012.939.192l.302.236-.604.337c-.336.192-.707.529-.835.744-.127.214-.58.731-1.021 1.147-.43.417-.789.845-.789.958 0 .101-.626.653-1.403 1.204-2.077 1.497-2.982 2.33-2.982 2.724 0 .214-.116.394-.325.518-.649.383-.986.821-.626.821.081 0 .348-.078.591-.168l-.042.111zm16.026-1.445c.513-.062 1.108-.206 1.32-.32l.388-.207-.662-.297-.661-.297-.659.241a72.27 72.27 0 0 1-1.117.397c-1.011.346-1.142.81-.194.682.528-.068 1.056-.131 1.585-.192v-.007zm-23.195-5.626c3.05-2.882 5.206-4.592 7.941-6.303.928-.582 1.585-.918 1.618-.83.087.236.486.169 1.134-.202.745-.429 1.117-.867 2.046-2.376.964-1.575 1.33-1.97 2.721-2.938.661-.45 1.613-1.137 2.135-1.508.754-.54.928-.631.87-.416-.046.157-.012.269.092.269.314 0 1.787-.573 1.834-.709.081-.224-1.405-.45-2.507-.382-.846.045-1.136.135-2.192.641-2.46 1.204-4.246 2.499-7.645 5.572-2.448 2.207-4.375 3.692-5.349 4.109-.314.134-.556.427-.94 1.125-.742 1.373-2.088 3.344-3.352 4.942-1.195 1.509-1.451 2.026-.522 1.058a118.36 118.36 0 0 1 2.157-2.094l-.041.042zm30.549 13.535c3.666-.69 4.072-.741 6.644-.842 2.889-.116 3.258-.183 4.995-.92.558-.236.776-.279.853-.169.135.195 1.079-.27 2.921-1.436.754-.475 1.818-1.085 2.367-1.353.827-.406 1.078-.473 1.477-.406.425.072.552.023 1.093-.405 1.504-1.196 2.787-1.749 4.069-1.752.383 0 .514.049.514.196 0 .127.075.174.205.129.383-.135.209.011-.773.675-1.136.755-1.032.991.128.259 1.114-.697 1.126-.697 1.126-.416 0 .157-.43.563-1.207 1.148-1.775 1.328-3.028 2.431-4.931 4.333l-1.705 1.655H75.635l3.903-.709.003.013zm.035-25.183c.132-.031.348-.031.479 0 .132.032.023.057-.239.057-.265 0-.371-.025-.24-.057z" fill="#003189"/>
        <path d="M143.481 41.69c-.599-.083-.29-.284.435-.284.726 0 1.109-.251 1.109-.729 0-.225-.047-.261-.278-.194-.198.056-.337.008-.476-.162-.116-.157-.418-.27-.859-.323-.777-.094-2.042-.774-1.821-.979.081-.07.487-.154.893-.184.72-.054.766-.078.905-.474.116-.297.267-.44.522-.496.209-.043.522-.206.708-.363.197-.158.812-.563 1.369-.889.951-.564 1.543-1.16 1.334-1.351-.221-.203-2.274-.417-3.248-.349-1.126.078-3.063.45-3.864.731-.824.282-.591.034.557-.574 1.543-.833 4.513-1.598 6.149-1.598.638 0 2.772.45 3.028.641.499.372-.046 1.678-.963 2.331l-.383.269.627.609-.325.236c-.174.124-.418.237-.534.237-.116 0-.418.168-.661.382-.371.327-.418.427-.313.687.08.191.08.382-.024.551-.093.158-.116.507-.057.912.115.822-.047 1.114-.72 1.283-.487.124-2.297.147-3.086.034l-.024.046z" fill="#7f7f7f"/>
    </g>
</svg>
