<svg viewBox="0 0 720 128" xmlns="http://www.w3.org/2000/svg">
    <path d="M207.36 71.589c-4.704 0-8.064-3.6-8.064-8.4 0-4.752 3.36-8.4 8.016-8.4 2.784 0 4.992 1.344 6.336 3.216l3.888-2.976c-2.208-2.976-5.808-4.896-10.224-4.896-8.112 0-13.2 6-13.2 13.056 0 7.056 5.088 13.056 13.2 13.056 4.464 0 8.016-1.92 10.224-4.896l-3.888-2.976c-1.344 1.872-3.552 3.216-6.288 3.216zm21.648 4.416c3.024 0 6.048-1.296 7.728-3.456v2.736h4.944V59.301c0-5.328-3.6-9.168-10.128-9.168-4.32 0-7.776 1.824-9.936 4.704l3.696 2.832c1.392-1.968 3.456-3.168 6.096-3.168 3.12 0 5.328 1.824 5.328 4.8v1.248l-7.824 1.296c-5.136.864-7.968 3.504-7.968 7.152 0 4.272 3.264 7.008 8.064 7.008zm-3.072-7.2c0-1.824 1.248-3.12 4.272-3.648l6.528-1.104v4.176c-1.44 2.304-3.792 3.744-6.816 3.744-2.496 0-3.984-1.296-3.984-3.168zm23.472 6.48h4.944v-16.32c1.152-2.064 2.976-4.176 6.048-4.176 3.168 0 5.088 2.112 5.088 5.664v14.832h4.992V60.261c0-.48 0-.912-.048-1.344 1.296-2.304 3.168-4.128 6.048-4.128 3.12 0 5.088 2.112 5.088 5.664v14.832h4.992V60.261c0-6.672-3.888-10.128-8.928-10.128-4.176 0-6.576 1.968-8.448 4.368-1.536-2.88-4.32-4.368-7.632-4.368-3.216 0-5.472 1.344-7.2 3.216v-2.256h-4.944v24.192zm47.328-29.568c1.824 0 3.36-1.536 3.36-3.36 0-1.824-1.536-3.36-3.36-3.36-1.824 0-3.36 1.536-3.36 3.36 0 1.824 1.536 3.36 3.36 3.36zm-2.496 29.568h4.944V51.093h-4.944v24.192zm13.008 0h4.944v-16.32c1.248-2.112 3.216-4.176 6.528-4.176 3.456 0 5.568 2.304 5.568 6.144v14.352h4.992V60.741c0-7.008-4.08-10.608-9.408-10.608-3.456 0-5.856 1.392-7.68 3.312v-2.352h-4.944v24.192zm40.944-25.152c-7.824 0-13.152 5.904-13.152 13.056 0 7.152 5.328 13.056 13.152 13.056 7.872 0 13.152-5.904 13.152-13.056 0-7.152-5.28-13.056-13.152-13.056zm.048 21.456c-4.656 0-8.016-3.744-8.016-8.4 0-4.656 3.36-8.4 8.016-8.4 4.56 0 7.92 3.696 7.92 8.4 0 4.608-3.36 8.4-7.92 8.4z"/>
    <path d="M368.736 75.861a3.544 3.544 0 003.552-3.552c0-1.92-1.584-3.552-3.552-3.552-2.016 0-3.6 1.632-3.6 3.552 0 1.968 1.584 3.552 3.6 3.552zm35.904-12.672c0-7.056-4.752-13.056-12.336-13.056-3.504 0-6.096 1.248-8.16 3.456V39.285H379.2v36h4.944v-2.496c2.064 2.208 4.656 3.456 8.16 3.456 7.584 0 12.336-6 12.336-13.056zm-12.96-8.4c4.656 0 7.776 3.648 7.776 8.4 0 4.752-3.12 8.4-7.776 8.4-3.12 0-5.76-1.44-7.536-4.08v-8.64c1.68-2.592 4.368-4.08 7.536-4.08zm41.232 16.56l-3.6-2.88c-1.488 2.016-3.936 3.312-6.864 3.312-4.656 0-7.872-2.736-8.208-8.016h17.856c.192-.72.336-1.824.336-2.976 0-6.144-4.32-10.656-10.992-10.656-7.68 0-12.288 5.808-12.288 13.056 0 7.056 4.944 13.056 13.296 13.056 4.512 0 8.208-1.872 10.464-4.896zm-11.52-17.088c3.744 0 6 2.736 6.096 5.808H414.48c.768-3.744 3.264-5.808 6.912-5.808zm18.864 12.624c0 5.904 2.976 8.88 8.64 8.88 1.872 0 3.216-.24 4.368-.72v-4.368c-.864.336-1.968.528-3.6.528-2.688 0-4.416-1.056-4.416-4.32V55.557h8.016v-4.464h-8.016v-6.048h-4.992v6.048h-4.56v4.464h4.56v11.328zm25.584 9.12c3.024 0 6.048-1.296 7.728-3.456v2.736h4.944V59.301c0-5.328-3.6-9.168-10.128-9.168-4.32 0-7.776 1.824-9.936 4.704l3.696 2.832c1.392-1.968 3.456-3.168 6.096-3.168 3.12 0 5.328 1.824 5.328 4.8v1.248l-7.824 1.296c-5.136.864-7.968 3.504-7.968 7.152 0 4.272 3.264 7.008 8.064 7.008zm-3.072-7.2c0-1.824 1.248-3.12 4.272-3.648l6.528-1.104v4.176c-1.44 2.304-3.792 3.744-6.816 3.744-2.496 0-3.984-1.296-3.984-3.168zm25.968 7.056a3.544 3.544 0 003.552-3.552c0-1.92-1.584-3.552-3.552-3.552-2.016 0-3.6 1.632-3.6 3.552 0 1.968 1.584 3.552 3.6 3.552zm7.44 3.744c0 4.944 4.608 7.68 12.048 7.68 7.344 0 12.432-3.936 12.432-9.168 0-4.368-3.12-7.584-9.36-7.584h-6.576c-1.296 0-1.824-.576-1.824-1.584 0-.72.432-1.44 1.2-2.064.912.192 1.872.336 2.928.336 6 0 9.6-3.888 9.6-8.592 0-1.152-.24-2.304-.672-3.312h4.752v-4.224h-8.928c-1.344-.624-2.928-.96-4.752-.96-5.904 0-9.504 3.84-9.504 8.496 0 2.688 1.2 5.136 3.312 6.72-1.872 1.296-2.784 2.832-2.784 4.752 0 1.248.528 2.544 1.584 3.456-2.256 1.68-3.456 3.6-3.456 6.048zm10.896-16.176c-3.12 0-4.944-2.064-4.944-4.8 0-2.688 1.824-4.704 4.944-4.704s4.944 2.016 4.944 4.704c0 2.736-1.824 4.8-4.944 4.8zm-6.192 15.504c0-1.728.96-3.024 2.688-4.08h7.248c3.696 0 4.896 1.632 4.896 3.696 0 2.832-2.784 4.704-7.584 4.704-4.56 0-7.248-1.632-7.248-4.32zm34.752-28.8c-7.824 0-13.152 5.904-13.152 13.056 0 7.152 5.328 13.056 13.152 13.056 7.872 0 13.152-5.904 13.152-13.056 0-7.152-5.28-13.056-13.152-13.056zm.048 21.456c-4.656 0-8.016-3.744-8.016-8.4 0-4.656 3.36-8.4 8.016-8.4 4.56 0 7.92 3.696 7.92 8.4 0 4.608-3.36 8.4-7.92 8.4zm35.712-6.672c0 4.176-2.256 6.672-5.952 6.672-3.792 0-6-2.496-6-6.672V51.093h-4.992v13.584c0 7.248 4.176 11.568 10.992 11.568 6.768 0 10.944-4.32 10.944-11.568V51.093h-4.992v13.824zm9.264-13.824l9.12 24.192h6.576l9.168-24.192h-5.376l-7.056 18.816-7.104-18.816h-5.328zm28.608 24.768a3.544 3.544 0 003.552-3.552c0-1.92-1.584-3.552-3.552-3.552-2.016 0-3.6 1.632-3.6 3.552 0 1.968 1.584 3.552 3.6 3.552zm7.344-24.768v4.464h4.56v19.728h4.992V55.557h8.016v-4.464h-8.016v-2.928c0-2.736 1.632-4.416 4.08-4.416 1.344 0 2.4.432 3.216 1.056l2.112-4.176c-1.392-.768-3.216-1.344-5.424-1.344-5.616 0-8.976 3.888-8.976 9.024v2.784h-4.56zm21.408 24.192h4.944V59.157c1.248-2.064 3.264-3.696 6.336-3.696 1.008 0 1.776.144 2.544.336v-4.848a7.212 7.212 0 00-2.112-.336c-2.976 0-5.088 1.344-6.768 3.216v-2.736h-4.944v24.192z" fill="#ccc"/>
    <g>
        <path d="M55.188 122.098c.398 0 .797.399.638 1.276l-2.154.479c.319-.957.957-1.755 1.516-1.755m1.116 3.509h-.399c-.558.559-1.116 1.117-1.674 1.117-.559 0-.878-.399-.878-1.117 0-.319 0-.638.08-.957l3.429-1.116c.718-1.595-.079-2.313-1.036-2.313-.957 0-3.509 2.712-3.509 5.104 0 1.037.558 1.675 1.276 1.675.717 0 1.914-.957 2.711-2.393m-.638-5.024l2.393-2.233v-.319h-1.276l-1.516 2.552h.399zm-7.417 1.595h1.117l-1.835 4.945c-.159.319 0 .717.319.797.08 0 .08 0 .16.08 1.435-.239 2.711-1.117 3.35-2.472h-.399c-.559.638-1.276 1.116-2.074 1.276l1.675-4.626h1.675l.239-.718h-1.675l.638-1.754h-.638l-1.196 1.754-1.356.16v.558zm-1.595-.239c.16-.479-.159-.718-.399-.718-1.196.16-2.233.957-2.631 2.153h.319c.319-.478.797-.877 1.355-1.036l-1.914 4.944c-.079.319.08.638.399.718h.08c.877 0 1.994-.957 2.472-2.153h-.319c-.319.478-.797.797-1.356 1.036l1.994-4.944zm.399-2.472c.478-.08.797-.399.797-.878 0-.398-.398-.797-.797-.797-.479 0-.798.319-.877.797 0 .479.398.878.877.878m-11.006 7.576c-.159.319-.079.718.24.877.079.08.239.08.319.08.398 0 .478-.08.638-.479l1.355-3.509c.638-.717 1.436-1.276 2.313-1.515.399 0 .319.319.08.718l-1.994 3.908c-.159.239-.08.638.16.797.079.08.239.08.319.08 1.196-.16 2.233-1.037 2.631-2.153h-.319c-.319.478-.797.797-1.355 1.036l1.754-3.509c.16-.398.319-.797.319-1.196.08-.478-.319-.877-.797-.957h-.16c-.797 0-1.675.957-2.711 2.153v-.957c0-.638-.24-1.196-.798-1.196-.478.08-.877.399-1.116.798.638 0 .957.957.478 1.993l-1.356 3.031zm0-4.307c.24-.797.08-1.515-.478-1.515-.558 0-.957.558-1.675 2.153v-.957c0-.638-.239-1.196-.797-1.196-.559 0-1.356 1.037-1.835 2.153h.319c.319-.478.638-.797.878-.797.239 0 .478.478 0 1.515l-1.356 2.951c-.16.319-.08.718.239.877.08.08.239.08.319.08.399 0 .479-.08.638-.479l1.356-3.509c.319-.478.718-.877 1.116-1.276h1.276zm-7.656-.638c.479 0 .878.399.718 1.276l-2.153.479c.319-.957.957-1.755 1.435-1.755m1.197 3.509h-.399c-.558.559-1.117 1.117-1.675 1.117s-.877-.399-.877-1.117c0-.319 0-.638.08-.957l3.429-1.116c.718-1.595-.08-2.313-1.037-2.313s-3.509 2.712-3.509 5.104c0 1.037.479 1.675 1.276 1.675.798 0 1.914-.957 2.712-2.393m-8.055-3.429h1.116l-1.834 4.945c-.16.319 0 .717.319.797.08 0 .08 0 .159.08a4.056 4.056 0 003.27-2.472h-.319c-.558.638-1.276 1.116-2.073 1.276l1.674-4.626h1.675l.24-.718h-1.675l.638-1.754h-.638l-1.197 1.754-1.355.16v.558zm-6.301 3.828c0-1.515 1.675-3.589 2.632-3.589h.558l-.957 2.632c-.558.718-1.435 1.595-1.834 1.595s-.399-.239-.399-.638m5.184-5.184h-.478l-.559.559h-.159c-2.871 0-5.264 3.19-5.264 5.502-.079.559.319.957.878 1.037h.159c.718 0 1.436-1.037 2.233-2.153v.319c-.08 1.196.319 1.834.877 1.834.559 0 1.356-1.116 1.835-2.153h-.319c-.319.478-.638.718-.878.718-.239 0-.478-.479 0-1.436l1.675-4.227zm-5.981 1.835c.239-.798.08-1.516-.558-1.516s-.878.559-1.675 2.154v-.957c0-.638-.16-1.197-.798-1.197s-1.276 1.037-1.754 2.154h.319c.319-.479.638-.798.877-.798s.479.479 0 1.515l-1.356 2.951c-.239.558 0 .957.559.957.558 0 .478-.08.638-.478l1.276-3.509c.319-.479.717-.878 1.196-1.276h1.276zm-9.57 4.944l.159-.319c-1.674-.319-1.834-.319-1.196-2.153l.638-1.755H6.3c.798 0 .878.319.718 1.197h.479l1.116-2.951h-.478c-.399.718-.718 1.196-1.675 1.196H4.705l.957-2.632c.24-.797.479-.957 1.595-.957h.798c1.116 0 1.276.319 1.276 1.436h.478l.319-1.994H3.27v.399c1.356.239 1.435.399.797 2.073l-1.435 4.068c-.638 1.754-.877 1.834-2.472 2.153v.319l4.705-.08zm33.655-20.974c.478 0 .877.319.638 1.196l-2.154.479c.399-.957 1.037-1.675 1.516-1.675m1.196 3.429h-.479c-.319.638-.957 1.037-1.674 1.117-.559 0-.878-.319-.878-1.117 0-.319.08-.638.16-.957l3.429-1.116c.638-1.595-.159-2.313-1.116-2.313-.957 0-3.43 2.711-3.43 5.104 0 1.116.479 1.675 1.276 1.675.798 0 1.914-.878 2.712-2.393m-.718-5.024l2.472-2.233v-.239h-1.355l-1.516 2.472h.399zm-7.417 1.595h1.117l-1.755 4.944c-.159.479 0 .878.479.878 1.435-.16 2.632-1.117 3.27-2.393h-.319c-.559.558-1.276 1.037-2.074 1.276l1.595-4.705h1.755l.159-.718h-1.595l.638-1.754h-.718l-1.116 1.754-1.436.239v.479zm-1.515-.239c.08-.479-.159-.718-.399-.718-1.276.159-2.312.957-2.711 2.153h.319c.319-.558.877-.877 1.435-1.037l-1.914 4.945c-.159.478.16.718.399.718 1.196-.16 2.153-1.037 2.552-2.154h-.319c-.319.559-.877.878-1.435 1.037l2.073-4.944zm.319-2.473c.399.08.718-.239.798-.638v-.159c0-.479-.319-.798-.798-.798-.478 0-.797.319-.797.798-.08.399.239.718.638.797h.159m-6.619 7.417l3.509-9.092h-.16l-2.153.24v.239l.399.319c.399.319.319.558-.08 1.515l-2.712 7.098c-.159.319 0 .718.319.798.08 0 .08 0 .16.079 1.196-.159 2.233-.957 2.552-2.153h-.319c-.319.558-.877.877-1.515 1.037m-6.54-.798c0-1.595 1.675-3.668 2.632-3.668h.558l-.957 2.711c-.558.638-1.435 1.516-1.914 1.516-.478 0-.319-.24-.319-.638m5.184-5.104h-.479l-.638.558h-.079c-2.871 0-5.264 3.19-5.264 5.503-.08.558.319.957.877 1.036h.08c.798 0 1.515-1.036 2.313-2.153v.399c-.08 1.116.239 1.754.877 1.754s1.276-1.116 1.834-2.153h-.319c-.398.479-.717.798-.957.798-.239 0-.398-.479 0-1.516l1.755-4.226zm-12.601 8.214c0-.638.638-1.037 1.516-1.436l1.355.479c.957.319 1.276.478 1.276.797 0 .319-1.036 1.037-2.392 1.037-1.356 0-1.755-.239-1.755-.877m2.552-3.988c-.398 0-.558-.398-.558-.797s.558-2.712 1.515-2.712c.957 0 .559.319.559.718 0 .399-.559 2.791-1.516 2.791m2.712 3.35c0-.798-.718-1.037-1.914-1.436-1.196-.398-1.436-.319-1.436-.638 0-.398.24-.717.638-.797 1.516-.08 2.632-1.276 2.712-2.791 0-.24-.08-.479-.16-.718h1.356l.239-.718h-2.153l-.877-.239c-1.515 0-2.791 1.276-2.871 2.791-.08.798.478 1.436 1.276 1.595-.798.399-1.196.798-1.196 1.276 0 .239.079.558.319.718-1.835.558-2.632 1.116-2.632 1.994 0 .877 1.116 1.276 2.472 1.276 1.356 0 4.227-1.276 4.227-2.313m-8.693-5.264c.798 0 .798.319.718 1.197h.478l1.037-2.951h-.478c-.399.638-.718 1.196-1.595 1.196H4.705l.957-2.472c.24-.877.479-1.037 1.595-1.037h.798c1.116 0 1.276.319 1.276 1.515h.478l.319-2.073H3.27v.399c1.356.239 1.435.398.797 2.073l-1.435 4.067c-.638 1.755-.877 1.914-2.472 2.154v.398h7.496l1.356-2.153h-.558c-.878.957-2.154 1.515-3.509 1.595-1.994 0-1.835-.08-1.117-1.994l.718-1.914H6.38zm.957-5.263l2.472-1.595v-.319H8.294l-1.356 1.914h.399zm30.385-11.405c.479 0 .877.319.638 1.197l-2.153.558c.399-1.037 1.037-1.755 1.515-1.755m1.196 3.43h-.478c-.399.638-.957 1.036-1.675 1.116-.558 0-.877-.319-.877-1.116 0-.798.08-.638.08-.957l3.509-1.117c.638-1.595-.16-2.313-1.117-2.313s-3.509 2.792-3.509 5.104c0 2.313.558 1.675 1.356 1.675.797 0 1.914-.877 2.711-2.392m-.717-5.025l2.392-2.233v-.239h-1.276l-1.515 2.472h.399zm-7.098 1.595h.877L30.146 96.1c-.16.239 0 .638.239.717.08.08.16.08.319.08 1.436-.239 2.632-1.116 3.27-2.392h-.319c-.558.638-1.356 1.036-2.153 1.276l1.674-4.706h1.755l.159-.638h-1.595l.559-1.834h-.638l-1.197 1.834-1.116.16v.478zm-.877.559c.239-.798.079-1.516-.559-1.516s-.877.559-1.674 2.233v-.957c0-.638-.16-1.276-.798-1.276s-1.356 1.117-1.834 2.154h.319c.399-.479.718-.718.957-.718s.399.399 0 1.435l-1.356 3.031c-.239.558 0 .877.558.877.319.08.559-.159.638-.399l1.276-3.509 1.117-1.355h1.356zm-7.657-.559c.479 0 .878.319.638 1.197l-2.153.558c.399-1.037 1.037-1.755 1.515-1.755m1.197 3.43h-.479c-.319.638-.957 1.036-1.675 1.116-.558 0-.877-.319-.877-1.116 0-.319.08-.638.16-.957l3.429-1.117c.638-1.595-.16-2.313-1.117-2.313s-3.429 2.792-3.429 5.104c0 2.313.479 1.675 1.276 1.675.798 0 1.914-.877 2.712-2.392m-8.454 1.435c-.319 0-.797-.319-.797-.638s.159-.478.319-.957l.558-1.435c.558-.718 1.515-1.516 1.994-1.516.478 0 .558.24.558.718 0 .479-1.276 3.828-2.632 3.828m3.908-4.386c0-1.037-.399-1.436-1.037-1.436-.638 0-1.754.957-2.552 2.074l2.074-5.423v-.16l-2.233.24v.239l.478.319c.399.319.239.638-.08 1.515l-2.312 5.742c-.16.399-.319.718-.399 1.117 0 .558.797 1.116 1.515 1.116.718 0 4.546-3.03 4.546-5.343m-6.779-.718c.16-.239.08-.558-.159-.638-.08 0-.16-.08-.24-.08-1.196.16-2.233 1.037-2.631 2.154h.319c.319-.479.797-.798 1.355-1.037l-1.914 4.944c-.079.319.08.638.399.718h.08c1.196-.159 2.153-1.037 2.472-2.153h-.319c-.319.478-.797.877-1.356 1.037l1.994-4.945zm.399-2.472c.478 0 .797-.319.797-.798 0-.478-.319-.797-.797-.797-.479 0-.798.319-.798.797 0 .479.319.798.798.798m-5.024-.798H3.27v.399c1.276.319 1.435.399.797 2.153l-1.435 4.068C1.994 95.86 1.755 96.02.16 96.259v.399h6.699l1.515-2.632h-.558c-.798.877-1.835 2.074-3.35 2.074-1.515 0-1.276-.16-.638-1.914l1.436-4.068c.638-1.754.877-1.834 2.392-2.153l.16-.399zM0 50.402V33.974h5.024c1.516-.08 3.031.319 4.307 1.276 1.037.877 1.675 2.233 1.595 3.589 0 .957-.239 1.834-.718 2.631a4.868 4.868 0 01-1.914 1.675l5.104 7.257H9.411l-4.387-6.619H3.35v6.619H0zm5.184-13.637H3.35v4.147h1.834c.638.08 1.196-.159 1.675-.558.398-.399.638-.957.638-1.515 0-.559-.24-1.117-.638-1.516-.479-.398-1.037-.558-1.675-.558zm10.288 13.637V33.974h9.649v2.791h-6.3v3.828h5.343v2.871h-5.343v4.067h6.3v2.871h-9.649zm6.3-17.864h-3.031l2.632-3.19h3.509l-3.11 3.19zm7.178 17.864V33.974h5.502a6.632 6.632 0 014.227 1.276c1.994 1.834 2.153 4.865.319 6.858-.08.08-.159.24-.319.319a6.257 6.257 0 01-4.227 1.356h-2.153v6.619H28.95zm5.582-13.637h-2.233v4.147h2.233c.638.08 1.196-.159 1.675-.558.399-.399.638-.957.638-1.515 0-.559-.239-1.117-.638-1.516-.479-.398-1.037-.558-1.675-.558zm18.183 7.497V33.974h3.35v9.969c.08 1.914-.558 3.668-1.834 5.104a7.31 7.31 0 01-9.73 0c-1.196-1.436-1.834-3.27-1.755-5.104v-9.969h3.35v10.288c-.08.957.239 1.834.877 2.552.638.638 1.515 1.036 2.393.957.957.079 1.834-.319 2.472-.957.638-.718.957-1.595.877-2.552zm7.497 6.14V33.974h4.705c1.436-.08 2.871.319 3.988 1.196 1.036.798 1.595 1.994 1.515 3.27 0 .638-.16 1.276-.479 1.834-.319.558-.717 1.037-1.276 1.356.798.319 1.516.957 1.994 1.675.479.638.718 1.435.718 2.233.08 1.435-.558 2.711-1.675 3.588-1.276.957-2.871 1.356-4.466 1.276h-5.024zm4.705-13.637h-1.356v3.669h1.356c.558 0 1.117-.16 1.515-.479.718-.718.718-1.994 0-2.711-.398-.319-.957-.479-1.515-.479zm.479 6.54h-1.835v4.226h1.835c.638.08 1.355-.159 1.834-.558.478-.399.718-.957.718-1.595s-.24-1.196-.718-1.595c-.558-.319-1.196-.558-1.834-.478zm9.33 7.097V33.974h3.35v13.398h6.3v3.03h-9.65zm12.601-16.428h3.35v16.429h-3.35zm21.772 16.03c.479.478 1.117.877 1.755 1.196.558.239 1.116.399 1.674.399h.559l.638-.16v2.871l-.798.24h-.957c-.877 0-1.834-.24-2.632-.559-.957-.398-1.754-.957-2.552-1.674l-1.914-1.675-1.116.159h-1.196a8.907 8.907 0 01-3.51-.718c-1.036-.478-1.993-1.036-2.791-1.834-1.515-1.675-2.392-3.828-2.392-6.141 0-2.312.877-4.466 2.392-6.14a8.1 8.1 0 012.791-1.835 8.923 8.923 0 013.51-.717c1.196 0 2.472.239 3.588.717 1.037.479 1.994 1.037 2.792 1.835 1.515 1.674 2.392 3.828 2.392 6.14 0 1.356-.319 2.632-.877 3.828-.558 1.197-1.356 2.233-2.393 3.031l1.037 1.037zm-6.539-2.233c1.435 0 2.791-.638 3.828-1.595.478-.559.797-1.117 1.116-1.755a6.167 6.167 0 000-4.466c-.239-.638-.638-1.196-1.116-1.754a6.387 6.387 0 00-1.675-1.197c-.718-.239-1.436-.398-2.153-.398-.718 0-1.436.159-2.074.398a4.078 4.078 0 00-1.675 1.197 5.064 5.064 0 00-1.116 1.754 6.156 6.156 0 000 4.466 5.078 5.078 0 001.116 1.755c.479.558 1.037.877 1.675 1.116a4.655 4.655 0 002.074.479zm21.692-3.509V33.974h3.349v9.969c.08 1.914-.558 3.668-1.834 5.104a7.31 7.31 0 01-9.73 0c-1.276-1.436-1.914-3.19-1.834-5.104v-9.969h3.35v10.288c-.08.957.319 1.914.957 2.552.638.638 1.515 1.036 2.392.957.957.079 1.834-.319 2.472-.957.638-.718.957-1.595.878-2.552zm7.496 6.14V33.974h9.57v2.791h-6.22v3.828h5.263v2.871h-5.263v4.067h6.22v2.871h-9.57zM0 75.285V58.856h9.57v2.791H3.35v3.828h5.343v2.871H3.35v6.939H0zm12.521 0V58.856h5.024c1.515-.08 3.031.319 4.307 1.276 1.036.877 1.674 2.233 1.595 3.589 0 .957-.24 1.834-.718 2.632a4.879 4.879 0 01-1.914 1.674l5.184 7.258h-3.988l-4.386-6.62H15.87v6.62h-3.349zm5.263-13.638H15.87v4.147h1.914c.559.08 1.197-.159 1.595-.558.399-.399.638-.957.638-1.515 0-.558-.239-1.117-.638-1.515a2.435 2.435 0 00-1.595-.559zm8.933 13.638l6.22-16.429h4.386l6.221 16.429h-3.589l-1.595-4.307h-6.539l-1.595 4.307h-3.509zm6.14-7.098h4.466l-2.233-6.221-2.233 6.221zm13.239 7.098V58.856h4.227l7.417 11.723V58.856h3.349v16.429h-4.306l-7.417-11.803v11.803h-3.27zm26.876-2.632c.877 0 1.754-.239 2.552-.638.718-.399 1.276-.957 1.755-1.595l2.631 1.994a7.747 7.747 0 01-2.392 2.153 8.952 8.952 0 01-3.19 1.116l-2.074 3.43h-2.951l2.074-3.509c-1.037-.16-2.074-.479-2.951-1.037-.797-.558-1.595-1.196-2.233-1.914a8.477 8.477 0 01-1.435-2.632 9.153 9.153 0 01-.479-2.951c0-2.312.877-4.466 2.393-6.14a8.08 8.08 0 012.791-1.835 8.919 8.919 0 013.509-.717c1.435 0 2.791.319 4.067.877a7.785 7.785 0 012.871 2.472l-2.631 1.994c-.479-.638-1.037-1.196-1.755-1.595-.798-.399-1.675-.638-2.552-.638-.718 0-1.436.159-2.074.399-.638.319-1.276.717-1.754 1.196-.399.558-.798 1.116-1.037 1.754a6.167 6.167 0 000 4.466c.239.638.638 1.197 1.037 1.755a5.064 5.064 0 001.754 1.116 4.655 4.655 0 002.074.479zm7.656 2.632l6.221-16.429h4.386l6.22 16.429h-3.509l-1.595-4.307h-6.539l-1.595 4.307h-3.589zm6.221-7.098h4.466l-2.233-6.221-2.233 6.221zm13.158-9.331h3.35v16.429h-3.35zm6.46 14.196l2.473-2.233a7.249 7.249 0 001.674 1.435c.559.399 1.276.558 1.994.558.558 0 1.117-.159 1.515-.478.399-.399.559-.877.559-1.436 0-.717-.479-1.435-1.197-1.674l-2.552-1.276c-.957-.399-1.834-1.037-2.631-1.675-.798-.877-1.197-1.994-1.117-3.11 0-.638.08-1.276.399-1.835a4.245 4.245 0 011.037-1.595 5.76 5.76 0 011.674-.957c.638-.319 1.436-.398 2.154-.398 1.116 0 2.233.239 3.269.717.957.559 1.755 1.197 2.473 2.074l-2.473 2.153a6.826 6.826 0 00-1.515-1.515c-.558-.319-1.116-.558-1.754-.558-.479 0-1.037.159-1.356.558-.399.319-.558.718-.558 1.196 0 .718.478 1.436 1.196 1.675l2.552 1.276c.957.399 1.834 1.037 2.632 1.754.797.798 1.276 1.914 1.196 3.111a8.719 8.719 0 01-.479 2.073 7.56 7.56 0 01-1.196 1.595 5.72 5.72 0 01-1.675.957c-.717.239-1.435.319-2.153.319a8.906 8.906 0 01-3.509-.718c-1.037-.478-1.914-1.196-2.632-1.993zm15.153 2.233V58.856h9.57v2.791h-6.3v3.828h5.343v2.871h-5.343v4.068h6.3v2.871h-9.57z"/>
        <path d="M25.68 19.938l.718-.718c.398-.479.957-1.037 1.435-1.436l.479-.398c.079-.08.079-.08.079-.16l-.558.319s-.08 0 0-.08l.399-.319h-.08c-.558 0-1.037.24-1.356.638h-.159c-.638.24-1.117.798-1.755 1.037l-.797.319a2.27 2.27 0 01-1.037 0l-1.595.319-.798.319h-.079l-.319.319c-.24.16-.479.319-.718.558h-.08l-.718.718h-.079c.079 0 .079-.08.159-.159 0-.08 0-.08.08-.16s.159-.239.159-.319l.718-.478c-.08 0-.08 0-.08-.08h-.159c-.08.159-.16.319-.319.319 0-.08 0-.08.08-.08l.319-.239.478-.319h.08l-.718.319h-.08s0 .08-.079 0l.239-.239h.08c1.355-1.037 3.269-.798 4.864-1.356l.399-.239c.16-.08.319-.319.638-.399.319-.239.559-.638.718-1.037h-.08a4.733 4.733 0 01-1.834.399c-.877.319-1.914.478-2.871.478h.239c0-.079.08-.159.16-.239h.159c0-.08 0-.08.08-.08h.159c-.159-.159-.398.16-.638 0-.239-.159.08-.159.16-.239h.159c0-.08 0-.08.08-.159.638-.399 1.276-.638 1.834-1.037.559-.399-.159.159-.319.08-.159-.08 0-.16.08-.16.479-.159.957-.319 1.356-.558-.16 0-.319.159-.479 0h.24v-.16c0-.079 0-.079.079-.079h-.079l.239-.16h-.08a.726.726 0 01.558-.239c-.079-.08-.239 0-.239-.08s.08-.08.16-.08h-.16c-.08 0-.08 0-.08-.079 0-.08 0-.08.08-.08.16-.319.319-.718.399-1.037h-.08a4.532 4.532 0 01-1.754.877h-.24c-.239.08-.478.08-.717-.079l-.399-.319-1.117-.559c-1.036-.398-2.153-.717-3.269-.797.478-.16 1.036-.319 1.515-.399.718-.319 1.435-.399 2.153-.399-.159-.079-.319 0-.399 0-.638 0-1.276.08-1.834.24l-1.276.319c-.239.079-.399.398-.638.319v-.16c.399-.558.957-.957 1.595-1.037.718-.079 1.515-.079 2.233.08l1.675.319c.159 0 .239.319.399.399.159.08.478 0 .797.159.319.16-.08-.159 0-.239.08-.08.319 0 .558-.08.24-.079-.319-.558-.478-.877.319.319.638.558 1.037.798.239.159.718.239.638 0-.239-.479-.559-.878-.957-1.276v-.16h-.16v-.399c-.159-.079-.08-.239-.239-.319-.16-.079 0-.558-.08-.797s-.159-.479-.159-.718c-.16-.718-.319-1.356-.399-2.073-.08-.798.478-1.436.877-2.154a2.811 2.811 0 011.197-1.355c.159-.479.398-.957.797-1.356a2.83 2.83 0 011.276-.877L29.348 0h8.534l.159.16.638.319c.319.159.558.398.798.638.079.159.239.398.159.558-.08.159-.159.558-.319.638-.319.159-.638.159-.957.159l-.478-.159c.638.239 1.276.638 1.674 1.196l.399.16c-.08.079-.159.159-.08.239h.08c.239-.08.16-.479.479-.319.239.08.319.319.239.478 0 .08-.08.08-.08.16l-.478.399c-.08.079-.08.239 0 .319l.239.478.239.957c.239.638.319 1.276.319 1.914 0 .319-.159.638-.08.957l.479.957c.239.16.399.399.478.638.24.399.718.877.559 1.356-.16.478-.638.239-.957.478-.319.24 0 .559.159.718.16.16-.319.638-.558.798-.239.159.239.079.239.159s.319.319.16.558c-.16.24-.718.399-.399.798.319.399 0 .638-.08.877-.159.319-.399.558-.797.638-.24.16-.559.16-.798.08h-.239c-.718-.16-1.436-.239-2.153-.319l-.638.159-.479.479h-.239l-.319.478c0 .08 0 .08-.08.08l-.319.798c-.239.957-.159 1.834.08 1.993.239.16 1.435.479 2.313.957l1.036.479H20.735a18.484 18.484 0 012.791-1.436c.798-.319 1.516-.717 2.154-1.276m-6.54-3.03c-.08 0-.239.08-.239 0s.319-.239.558-.319c.239-.08.16-.16.239-.08l.319.16c-.239.239-.558.159-.877.239m-6.539-.957c.478-.638.957-1.356 1.355-2.153.479-.319.957-.638 1.436-1.037.638-.798 1.515-1.436 2.392-1.914.399-.08.798-.08 1.117.08-.16.159-.399.159-.558.239h-.08v-.16c-.399.479-1.037.718-1.356 1.276-.319.559-.399.957-.957 1.037-.558.08 0-.08-.08-.08-1.196.878-2.312 1.835-3.269 2.951m3.509-2.791c0 .08-.08.08-.08.159 0 .08-.08.16-.16.16h-.079c0-.16.159-.399.319-.319m1.993 6.3c0 .08-.079.08-.079.16 0 .079.079 0 .079.079l-.319.16c-.079 0-.079 0-.079.08h-.16c-.08.079-.319.079-.239 0l.319-.319c.08-.08.159-.08.159-.16h.319m-.717-.319l-.559.319-.558.239h-.08l-.398.319h-.24c0 .08 0 .08-.079.08h-.08c0 .08 0 .08-.08.08h-.08c-.079.08-.159.08-.159.159l-.239.24h-.24l.16-.16h.159c0-.08.08-.159.16-.159 0-.08 0-.08.08-.08.079-.08.079-.08.079-.16.08-.079.16-.159.16-.239l-.16.16c-.079 0-.079 0-.079-.08.079 0 .079 0 .079-.08h.08l.16-.239h.159v-.16c.479-.398 1.117-.319 1.675-.638s.478.08.638 0h.399l-1.037.718m.877-2.951c-.08-.079.08 0 .16-.159h-.319l-.718.239-.877.319a21.21 21.21 0 01-1.356.718c-.08 0-.08 0-.08-.08l.319-.239a5.373 5.373 0 011.196-1.117v-.159l.479-.479a.957.957 0 01.399-.398h-.16c-.159 0-.319.079-.478-.08l.239-.16h-.08c-.08-.159.08-.239.239-.239l.479-.159c-.319-.08-.638.079-.957-.08a1.972 1.972 0 011.116-1.276h.08c0 .239-.08.399-.319.399l1.037.319c0 .079 0 .079-.08.079s-.08 0-.08-.079c.16.159.479.079.638.239.16.159-.239 0-.319 0 1.276.399 2.712.638 3.828 1.515-.957.319-1.914.399-2.95.399h-.399c-.16 0-.319 0-.399.159h-.558" fill="#fff"/>
        <path d="M25.68 19.938l.718-.718c.398-.479.957-1.037 1.435-1.436l.479-.398c.079-.08.079-.08.079-.16l-.558.319s-.08 0 0-.08l.399-.319h-.08c-.558 0-1.037.24-1.356.638h-.159c-.638.24-1.117.798-1.755 1.037l-.797.319a2.27 2.27 0 01-1.037 0l-1.595.319-.798.319h-.079l-.319.319-.718.558c-.08 0-.08 0-.08.08l-.718.638h-.079c.079 0 .079-.08.159-.159 0-.08 0-.08.08-.16s.159-.239.159-.319l.718-.478c-.08 0-.08 0-.08-.08h-.159c-.08.159-.16.319-.319.319 0-.08 0-.08.08-.08l.319-.239.478-.319h.08l-.718.319h-.08s0 .08-.079 0l.239-.239h.08c1.355-1.037 3.269-.798 4.864-1.356l.399-.239c.16-.08.319-.319.638-.399.319-.239.559-.638.718-1.037h-.08a4.733 4.733 0 01-1.834.399c-.877.319-1.914.478-2.871.478h.239c0-.079.08-.159.16-.239h.159c0-.08 0-.08.08-.08h.159c-.159-.159-.398.16-.638 0-.239-.159.08-.159.16-.239h.159c0-.08 0-.08.08-.159.638-.399 1.276-.638 1.834-1.037.559-.399-.159.159-.319.08-.159-.08 0-.16.08-.16.479-.159.957-.319 1.356-.558-.16 0-.319.159-.479 0h.24v-.16c0-.079 0-.079.079-.079h-.079l.239-.16h-.08a.726.726 0 01.558-.239c-.079-.08-.239 0-.239-.08s.08-.08.16-.08h-.16c-.08 0-.08 0-.08-.079 0-.08 0-.08.08-.08.16-.319.319-.718.399-1.037h-.08a4.532 4.532 0 01-1.754.877h-.24c-.239.08-.478.08-.717-.079l-.399-.319-1.117-.559c-1.036-.398-2.153-.717-3.269-.797.478-.16 1.036-.319 1.515-.399.718-.319 1.435-.399 2.153-.399-.159-.079-.319 0-.399 0-.638 0-1.276.08-1.834.24l-1.276.319c-.239.079-.399.398-.638.319v-.16c.399-.558.957-.957 1.595-1.037.718-.079 1.515-.079 2.233.08l1.675.319c.159 0 .239.319.399.399.159.08.478 0 .797.159.319.16-.08-.159 0-.239.08-.08.319 0 .558-.08.24-.079-.319-.558-.478-.877.399.239.638.638 1.037.798.399.159.718.239.638 0-.239-.479-.559-.878-.957-1.276v-.16h-.16v-.399c-.159-.079-.08-.239-.159-.319-.08-.079-.08-.558-.16-.797s-.159-.479-.159-.718c-.16-.718-.319-1.356-.399-2.073-.08-.798.478-1.436.877-2.154a2.811 2.811 0 011.197-1.355c.159-.479.398-.957.797-1.356a2.83 2.83 0 011.276-.877L29.348 0H0v22.649h20.735a18.387 18.387 0 012.791-1.435c.798-.319 1.516-.718 2.154-1.276m-6.54-3.031c-.08 0-.239.08-.239 0s.319-.239.558-.319c.239-.08.16-.159.239-.08l.319.16c-.239.239-.558.159-.877.239m-6.539-.957c.478-.638.957-1.356 1.355-2.153.559-.319 1.037-.798 1.436-1.276.638-.798 1.515-1.436 2.392-1.914.399-.08.798-.08 1.117.08-.16.159-.399.159-.558.239h-.08v-.16c-.399.479-1.037.718-1.356 1.276-.319.559-.399.957-.957 1.037-.558.08 0-.08-.08-.08-1.196.878-2.312 1.835-3.269 2.951m3.509-2.791c0 .08-.08.08-.08.159 0 .08-.08.16-.16.16h-.079c0-.16.159-.399.319-.319m1.993 6.3c0 .08-.079.08-.079.16 0 .079.079 0 .079.079l-.319.16h-.239c-.08.08-.319.08-.239 0l.319-.319c.08-.08.159-.08.159-.16.08 0 .08 0 .08-.079h.239m-.717-.319l-.559.319-.558.239h-.08l-.398.319h-.24c0 .08 0 .08-.079.08h-.08c0 .079 0 .079-.08.079h-.08c-.079.08-.159.08-.159.16l-.239.239h-.24l.16-.159h.159c0-.08.08-.16.16-.16 0-.08 0-.08.08-.08.079-.079.079-.079.079-.159.08-.08.16-.16.16-.239l-.16.159c-.079 0-.079 0-.079-.08.079 0 .079 0 .079-.079h.08l.16-.24h.159v-.159c.479-.399 1.117-.319 1.675-.638s.478.08.638 0h.399l-1.037.718m.877-2.951c-.08-.08.08 0 .16-.16h-.319l-.718.24-.877.319c-.399.239-.878.478-1.356.717-.08 0-.08 0-.08-.079l.319-.24a5.392 5.392 0 011.196-1.116v-.16l.479-.478a.96.96 0 01.399-.399h-.16c-.159 0-.319.08-.478-.08l.239-.159h-.08c-.08-.16.08-.239.239-.239l.479-.16c-.319-.08-.638.08-.957-.08a1.975 1.975 0 011.116-1.276h.08c0 .24-.08.399-.319.399l1.037.319c0 .08 0 .08-.08.08s-.08 0-.08-.08c.16.16.479.08.638.239.16.16-.239 0-.319 0 1.276.399 2.712.638 3.828 1.516-.957.319-1.914.558-2.95.558h-.399c-.16 0-.319 0-.399.159h-.558" fill="#000091"/>
        <path d="M62.126 0H37.882l.159.16.638.319c.319.159.558.398.798.638.079.159.239.398.159.558-.08.159-.159.558-.319.638-.319.159-.638.159-.957.159l-.478-.159c.638.239 1.276.638 1.674 1.196l.399.16c-.08.079-.159.159-.08.239h.08c.239-.08.16-.479.479-.319.239.08.319.319.239.478 0 .08-.08.08-.08.16l-.478.399c-.08.079-.08.239 0 .319l.239.478.239.957c.239.638.319 1.276.319 1.914 0 .319-.159.638 0 .957.08.319.239.638.399.957.239.16.399.399.478.638.319.399.718.877.559 1.356-.16.478-.638.239-.957.478-.319.24 0 .559.159.718.16.16-.319.638-.558.798-.239.159.239.079.239.159s.319.319.16.558c-.16.24-.718.399-.399.798.319.399 0 .638-.08.877-.159.319-.399.558-.797.638-.24.16-.559.16-.798.08h-.239c-.718-.16-1.436-.239-2.153-.319l-.638.159-.479.479h-.239l-.319.478c0 .08 0 .08-.08.08l-.319.798c-.239.957-.159 1.834.08 1.993.239.16 1.435.479 2.313.957l1.036.479h23.846V0z" fill="#e1000f"/>
        <path d="M39.317 8.294h.399c-.08.399-.558.479-.877.798h-.08c-.16.079-.08.319-.239.319h-.399c.159.239.399.319.638.319l.159.159h.16v.239c-.16.16-.319.08-.479.16h.957c.24-.16 0-.558.16-.798.159-.239 0-.079-.08-.079s.16-.24.239-.24c.08 0 .24-.079.24-.159s-.16-.16-.08-.239c.08-.08.478-.399.399-.638-.08-.24-.399-.16-.638-.24-.24-.079-.479 0-.718.08l-.638.16-.798.398a2.13 2.13 0 01.957-.239c.24-.08.479-.08.718 0" fill="#9c9b9b"/>
    </g>
</svg>
