<svg viewBox="0 0 128 96" xmlns="http://www.w3.org/2000/svg" fill-rule="evenodd" clip-rule="evenodd" stroke-linejoin="round" stroke-miterlimit="2">
    <g fill-rule="nonzero">
        <path d="M41.391 91.574c.299 0 .598.299.478.957l-1.615.359c.239-.718.718-1.316 1.137-1.316m.837 2.632h-.299c-.419.418-.837.837-1.256.837-.419 0-.658-.299-.658-.837 0-.24 0-.479.06-.718l2.572-.838c.538-1.196-.06-1.734-.778-1.734s-2.632 2.034-2.632 3.828c0 .777.419 1.256.957 1.256.539 0 1.436-.718 2.034-1.794m-.478-3.769l1.794-1.674v-.24h-.957l-1.137 1.914h.3zm-5.563 1.197h.837l-1.375 3.708c-.12.239 0 .538.239.598.06 0 .06 0 .119.06 1.077-.179 2.034-.837 2.513-1.854h-.299c-.419.478-.957.837-1.556.957l1.256-3.469h1.257l.179-.539h-1.256l.478-1.316h-.478l-.897 1.316-1.017.12v.419zm-1.196-.18c.119-.359-.12-.538-.299-.538a2.395 2.395 0 00-1.974 1.615h.239c.239-.359.598-.658 1.017-.778l-1.436 3.709c-.059.239.06.478.299.538h.06c.658 0 1.496-.718 1.854-1.615h-.239c-.239.359-.598.598-1.017.778l1.496-3.709zm.299-1.854c.359-.06.598-.299.598-.658 0-.299-.299-.598-.598-.598-.359 0-.598.239-.658.598 0 .359.299.658.658.658m-8.254 5.682c-.12.239-.06.539.179.658.06.06.179.06.239.06.299 0 .359-.06.479-.359l1.017-2.632c.478-.538 1.076-.957 1.734-1.136.299 0 .239.239.06.538l-1.495 2.931c-.12.179-.06.479.119.598.06.06.18.06.239.06.898-.12 1.675-.778 1.974-1.615h-.239c-.239.359-.598.598-1.017.778l1.316-2.632c.12-.299.239-.598.239-.897.06-.359-.239-.658-.598-.718h-.119c-.599 0-1.256.718-2.034 1.615v-.718c0-.478-.179-.897-.598-.897-.359.06-.658.299-.838.598.479 0 .718.718.359 1.495l-1.016 2.273zm0-3.23c.179-.598.059-1.136-.359-1.136-.419 0-.718.419-1.256 1.615v-.718c0-.478-.18-.897-.599-.897-.418 0-1.016.777-1.375 1.615h.239c.239-.359.478-.598.658-.598.179 0 .359.359 0 1.136l-1.017 2.213c-.12.239-.06.539.18.658.059.06.179.06.239.06.299 0 .359-.06.478-.359l1.017-2.632c.239-.359.538-.658.838-.957h.957zm-5.743-.478c.359 0 .658.299.539.957l-1.615.359c.239-.718.718-1.316 1.076-1.316m.898 2.632h-.299c-.419.418-.838.837-1.256.837-.419 0-.658-.299-.658-.837 0-.24 0-.479.059-.718l2.572-.838c.539-1.196-.059-1.734-.777-1.734S19.2 92.95 19.2 94.744c0 .777.359 1.256.957 1.256s1.436-.718 2.034-1.794m-6.041-2.572h.837l-1.376 3.708c-.119.239 0 .538.239.598.06 0 .06 0 .12.06a3.039 3.039 0 002.452-1.854h-.239c-.419.478-.957.837-1.555.957l1.256-3.469h1.256l.18-.539h-1.256l.478-1.316h-.478l-.898 1.316-1.016.12v.419zm-4.726 2.871c0-1.137 1.256-2.692 1.974-2.692h.419l-.718 1.974c-.419.538-1.077 1.196-1.376 1.196-.299 0-.299-.179-.299-.478m3.888-3.888h-.359l-.418.419h-.12c-2.153 0-3.948 2.392-3.948 4.127-.06.418.24.717.658.777h.12c.538 0 1.076-.777 1.675-1.615v.239c-.06.898.239 1.376.658 1.376.418 0 1.016-.837 1.375-1.615h-.239c-.239.359-.478.539-.658.539-.179 0-.359-.359 0-1.077l1.256-3.17zm-4.486 1.376c.18-.599.06-1.137-.419-1.137-.478 0-.657.419-1.256 1.615v-.718c0-.478-.119-.897-.598-.897-.478 0-.957.778-1.316 1.615h.24c.239-.359.478-.598.658-.598.179 0 .358.359 0 1.136l-1.017 2.213c-.18.419 0 .718.418.718.419 0 .359-.06.479-.359l.957-2.631c.239-.359.538-.658.897-.957h.957zm-7.177 3.708l.119-.239c-1.256-.24-1.375-.24-.897-1.615l.479-1.316h1.375c.598 0 .658.239.539.897h.358l.838-2.213h-.359c-.299.538-.538.897-1.256.897H3.529l.718-1.974c.179-.598.359-.717 1.196-.717h.598c.838 0 .957.239.957 1.076h.359l.239-1.495H2.452v.299c1.017.179 1.077.299.598 1.555l-1.076 3.051c-.479 1.315-.658 1.375-1.854 1.614v.24l3.529-.06zM28.89 79.97c.359 0 .658.239.478.897l-1.615.359c.299-.718.778-1.256 1.137-1.256m.897 2.572h-.359c-.239.479-.718.778-1.256.837-.419 0-.658-.239-.658-.837 0-.239.06-.478.12-.718l2.572-.837c.478-1.196-.12-1.735-.838-1.735s-2.572 2.034-2.572 3.828c0 .838.359 1.256.957 1.256s1.436-.657 2.034-1.794m-.538-3.768l1.854-1.675v-.179h-1.017l-1.136 1.854h.299zm-5.563 1.196h.837l-1.316 3.709c-.119.358 0 .657.359.657 1.077-.119 1.974-.837 2.453-1.794h-.24c-.418.419-.957.778-1.555.957l1.197-3.529h1.315l.12-.538H25.66l.478-1.316H25.6l-.837 1.316-1.077.179v.359zm-1.136-.179c.059-.359-.12-.539-.3-.539-.957.12-1.734.718-2.033 1.615h.239c.239-.418.658-.658 1.077-.777l-1.436 3.708c-.119.359.12.538.299.538.897-.119 1.615-.777 1.914-1.615h-.239c-.239.419-.658.658-1.077.778l1.556-3.708zm.239-1.855c.299.06.538-.179.598-.478v-.12c0-.359-.239-.598-.598-.598s-.598.239-.598.598c-.06.299.179.539.478.598h.12m-4.965 5.563l2.632-6.819h-.12l-1.615.18v.179l.3.24c.299.239.239.418-.06 1.136l-2.034 5.323c-.12.24 0 .539.239.598.06 0 .06 0 .12.06.897-.119 1.675-.717 1.914-1.615h-.239c-.24.419-.658.658-1.137.778m-4.904-.598c0-1.197 1.256-2.752 1.973-2.752h.419l-.718 2.034c-.418.478-1.076 1.136-1.435 1.136s-.239-.179-.239-.478m3.887-3.828h-.358l-.479.419h-.06c-2.153 0-3.947 2.392-3.947 4.127-.06.418.239.717.658.777h.059c.599 0 1.137-.777 1.735-1.615v.299c-.06.838.179 1.316.658 1.316.478 0 .957-.837 1.376-1.615h-.24c-.299.359-.538.598-.717.598-.18 0-.299-.358 0-1.136l1.315-3.17zm-9.45 6.161c0-.479.479-.778 1.136-1.077l1.017.359c.718.239.957.359.957.598s-.777.778-1.794.778-1.316-.18-1.316-.658m1.914-2.991c-.299 0-.419-.299-.419-.598s.419-2.034 1.137-2.034.418.239.418.539c0 .299-.418 2.093-1.136 2.093m2.034 2.512c0-.598-.539-.777-1.436-1.076-.897-.3-1.076-.24-1.076-.479 0-.299.179-.538.478-.598 1.136-.06 1.974-.957 2.034-2.094 0-.179-.06-.358-.12-.538h1.017l.179-.538h-1.615l-.658-.18c-1.136 0-2.093.957-2.153 2.094-.06.598.359 1.076.957 1.196-.598.299-.897.598-.897.957 0 .18.06.419.239.538-1.375.419-1.974.838-1.974 1.496s.838.957 1.855.957c1.016 0 3.17-.957 3.17-1.735m-6.52-3.948c.598 0 .598.24.538.898h.359l.778-2.213h-.359c-.299.478-.538.897-1.196.897H3.529l.718-1.854c.179-.658.359-.778 1.196-.778h.598c.838 0 .957.239.957 1.136h.359l.239-1.555H2.452v.299c1.017.18 1.077.299.598 1.556l-1.076 3.05c-.479 1.316-.658 1.436-1.854 1.615v.299h5.622l1.017-1.615H6.34c-.658.718-1.615 1.137-2.632 1.196-1.495 0-1.375-.059-.837-1.495l.538-1.436h1.376zm.718-3.947l1.854-1.196v-.24H6.221L5.204 76.86h.299zm22.789-8.553c.358 0 .658.239.478.897l-1.615.418c.299-.777.778-1.315 1.137-1.315m.897 2.572h-.359c-.299.478-.718.777-1.256.837-.419 0-.658-.239-.658-.837 0-.599.06-.479.06-.718l2.631-.838c.479-1.196-.119-1.734-.837-1.734s-2.632 2.093-2.632 3.828c0 1.734.419 1.256 1.017 1.256.598 0 1.436-.658 2.034-1.794m-.539-3.769l1.795-1.674v-.18h-.957l-1.137 1.854h.299zm-5.323 1.197h.658l-1.376 3.768c-.119.179 0 .478.18.538.06.06.119.06.239.06a3.321 3.321 0 002.452-1.794h-.239c-.419.478-1.017.777-1.615.957l1.256-3.529h1.316l.12-.479h-1.197l.419-1.376h-.478l-.898 1.376-.837.12v.359zm-.658.418c.18-.598.06-1.136-.419-1.136-.478 0-.657.418-1.256 1.675v-.718c0-.479-.119-.957-.598-.957-.478 0-1.017.837-1.375 1.615h.239c.299-.359.538-.539.718-.539.179 0 .299.299 0 1.077l-1.017 2.273c-.18.419 0 .658.418.658.24.06.419-.12.479-.299l.957-2.632.837-1.017h1.017zm-5.742-.418c.359 0 .658.239.479.897l-1.615.418c.299-.777.777-1.315 1.136-1.315m.897 2.572h-.359c-.239.478-.717.777-1.256.837-.418 0-.658-.239-.658-.837 0-.24.06-.479.12-.718l2.572-.838c.478-1.196-.12-1.734-.837-1.734-.718 0-2.572 2.093-2.572 3.828 0 1.734.359 1.256.957 1.256s1.435-.658 2.033-1.794m-6.34 1.076c-.239 0-.598-.239-.598-.478 0-.24.12-.359.239-.718l.419-1.077c.419-.538 1.136-1.136 1.495-1.136.359 0 .419.179.419.538 0 .359-.957 2.871-1.974 2.871m2.931-3.29c0-.777-.299-1.076-.778-1.076-.478 0-1.316.718-1.914 1.555l1.556-4.067v-.12l-1.675.179v.18l.359.239c.299.239.179.479-.06 1.137l-1.735 4.306c-.119.299-.239.538-.299.838 0 .418.598.837 1.137.837.538 0 3.409-2.273 3.409-4.008m-5.084-.538c.119-.179.06-.419-.12-.478-.06 0-.119-.06-.179-.06-.897.119-1.675.777-1.974 1.615h.239c.239-.359.598-.598 1.017-.778l-1.435 3.709c-.06.239.059.478.299.538h.059a2.255 2.255 0 001.855-1.615h-.24c-.239.359-.598.658-1.016.778l1.495-3.709zm.299-1.854c.359 0 .598-.239.598-.598s-.239-.598-.598-.598-.598.239-.598.598.239.598.598.598m-3.768-.598h-3.41v.299c.957.239 1.077.299.598 1.615l-1.076 3.05c-.479 1.256-.658 1.376-1.854 1.555v.299h5.024L6.28 70.52h-.418c-.598.658-1.376 1.555-2.512 1.555-1.137 0-.957-.12-.479-1.436l1.077-3.05c.478-1.316.658-1.376 1.794-1.615l.12-.299zM0 37.802V25.48h3.768c1.137-.059 2.273.24 3.23.957.778.658 1.256 1.675 1.196 2.692 0 .718-.179 1.376-.538 1.974a3.657 3.657 0 01-1.435 1.256l3.828 5.443H7.058l-3.29-4.965H2.512v4.965H0zm3.888-10.228H2.512v3.11h1.376c.478.06.897-.12 1.256-.419.299-.299.478-.717.478-1.136 0-.419-.179-.837-.478-1.136-.359-.3-.778-.419-1.256-.419zM11.604 37.802V25.48h7.237v2.094h-4.725v2.871h4.007v2.153h-4.007v3.051h4.725v2.153h-7.237zm4.725-13.398h-2.273l1.974-2.393h2.632l-2.333 2.393zM21.712 37.802V25.48h4.127a4.978 4.978 0 013.17.957c1.496 1.376 1.615 3.649.24 5.144-.06.06-.12.18-.24.24a4.695 4.695 0 01-3.17 1.016h-1.615v4.965h-2.512zm4.187-10.228h-1.675v3.11h1.675c.479.06.897-.12 1.256-.419.299-.299.479-.717.479-1.136 0-.419-.18-.837-.479-1.136-.359-.3-.777-.419-1.256-.419zM39.536 33.196V25.48h2.513v7.477c.059 1.436-.419 2.751-1.376 3.828a5.482 5.482 0 01-7.297 0c-.897-1.077-1.376-2.452-1.316-3.828V25.48h2.512v7.716c-.06.718.179 1.376.658 1.914.478.479 1.136.778 1.794.718.718.06 1.376-.239 1.855-.718.478-.538.717-1.196.657-1.914zM45.159 37.802V25.48h3.529c1.076-.059 2.153.24 2.991.898.777.598 1.196 1.495 1.136 2.452 0 .478-.12.957-.359 1.376-.239.418-.538.777-.957 1.016.598.24 1.137.718 1.495 1.257.359.478.539 1.076.539 1.674.06 1.077-.419 2.034-1.256 2.692-.957.718-2.154 1.017-3.35.957h-3.768zm3.529-10.228h-1.017v2.751h1.017c.419 0 .837-.119 1.136-.359.539-.538.539-1.495 0-2.033-.299-.24-.717-.359-1.136-.359zm.359 4.905h-1.376v3.17h1.376c.478.059 1.017-.12 1.375-.419.359-.299.539-.718.539-1.196 0-.479-.18-.898-.539-1.197-.418-.239-.897-.418-1.375-.358zM56.045 37.802V25.48h2.512v10.049h4.725v2.273h-7.237zM65.495 25.48h2.512v12.321h-2.512zM81.824 37.503c.359.359.838.658 1.316.897.419.179.838.299 1.256.299h.419l.478-.12v2.154l-.598.179h-.717c-.658 0-1.376-.179-1.974-.419-.718-.299-1.316-.717-1.914-1.256l-1.436-1.256-.837.12h-.897c-.898 0-1.795-.18-2.632-.538-.778-.359-1.495-.778-2.094-1.376a6.84 6.84 0 01-1.794-4.606 6.84 6.84 0 011.794-4.605 6.076 6.076 0 012.094-1.376 6.678 6.678 0 012.632-.538c.897 0 1.854.179 2.691.538.778.359 1.496.778 2.094 1.376a6.84 6.84 0 011.794 4.605 6.726 6.726 0 01-.658 2.871 6.074 6.074 0 01-1.794 2.273l.777.778zm-4.904-1.675c1.076 0 2.093-.478 2.871-1.196.359-.419.598-.838.837-1.316a4.621 4.621 0 000-3.35c-.179-.478-.478-.897-.837-1.316a4.837 4.837 0 00-1.256-.897c-.539-.179-1.077-.299-1.615-.299-.539 0-1.077.12-1.556.299a3.07 3.07 0 00-1.256.897 3.813 3.813 0 00-.837 1.316 4.621 4.621 0 000 3.35c.179.478.479.957.837 1.316.359.418.778.658 1.256.837a3.496 3.496 0 001.556.359zM93.189 33.196V25.48h2.512v7.477c.06 1.436-.419 2.751-1.376 3.828a5.482 5.482 0 01-7.297 0c-.957-1.077-1.435-2.392-1.376-3.828V25.48h2.512v7.716c-.059.718.24 1.436.718 1.914.479.479 1.137.778 1.795.718.717.06 1.375-.239 1.854-.718.478-.538.718-1.196.658-1.914zM98.811 37.802V25.48h7.178v2.094h-4.666v2.871h3.948v2.153h-3.948v3.051h4.666v2.153h-7.178zM0 56.464V44.142h7.178v2.094H2.512v2.871H6.52v2.153H2.512v5.204H0zM9.391 56.464V44.142h3.768c1.136-.06 2.273.239 3.23.957.777.658 1.256 1.675 1.196 2.692 0 .717-.179 1.375-.538 1.973a3.663 3.663 0 01-1.436 1.257l3.888 5.443h-2.991l-3.289-4.965h-1.316v4.965H9.391zm3.947-10.228h-1.435v3.11h1.435c.419.06.898-.12 1.197-.419.299-.299.478-.718.478-1.136 0-.419-.179-.838-.478-1.137a1.83 1.83 0 00-1.197-.418zM20.037 56.464l4.666-12.322h3.29l4.665 12.322h-2.692l-1.196-3.23h-4.905l-1.196 3.23h-2.632zm4.606-5.324h3.35l-1.675-4.665-1.675 4.665zM34.572 56.464V44.142h3.17l5.563 8.793v-8.793h2.512v12.322h-3.23l-5.563-8.853v8.853h-2.452zM54.729 54.49c.658 0 1.316-.18 1.914-.479.538-.299.957-.718 1.316-1.196l1.974 1.495a5.808 5.808 0 01-1.795 1.615 6.713 6.713 0 01-2.392.838l-1.555 2.572h-2.213l1.555-2.632c-.778-.12-1.555-.359-2.213-.778-.599-.418-1.197-.897-1.675-1.435a6.336 6.336 0 01-1.077-1.974 6.874 6.874 0 01-.359-2.213c0-1.735.658-3.35 1.795-4.606a6.086 6.086 0 012.093-1.376 6.703 6.703 0 012.632-.538c1.077 0 2.093.239 3.05.658a5.86 5.86 0 012.154 1.854l-1.974 1.496c-.359-.479-.778-.898-1.316-1.197-.598-.299-1.256-.478-1.914-.478-.538 0-1.077.12-1.555.299-.479.239-.957.538-1.316.897-.299.419-.598.838-.778 1.316a4.631 4.631 0 000 3.35c.18.478.479.897.778 1.315.359.359.837.658 1.316.838a3.492 3.492 0 001.555.359zM60.471 56.464l4.665-12.322h3.29l4.666 12.322H70.46l-1.196-3.23h-4.905l-1.196 3.23h-2.692zm4.665-5.324h3.35l-1.675-4.665-1.675 4.665zM75.006 44.142h2.512v12.321h-2.512zM79.85 54.789l1.855-1.675c.359.419.777.778 1.256 1.077.418.299.957.418 1.495.418.419 0 .837-.119 1.137-.359.299-.299.418-.657.418-1.076a1.35 1.35 0 00-.897-1.256l-1.914-.957c-.718-.299-1.376-.778-1.974-1.256-.598-.658-.897-1.496-.837-2.333 0-.479.06-.957.299-1.376.179-.478.419-.837.777-1.196a4.325 4.325 0 011.256-.718c.479-.239 1.077-.299 1.615-.299.838 0 1.675.18 2.453.538.718.419 1.316.898 1.854 1.556l-1.854 1.615a5.11 5.11 0 00-1.137-1.137c-.418-.239-.837-.419-1.316-.419-.358 0-.777.12-1.016.419-.299.239-.419.538-.419.897 0 .539.359 1.077.897 1.256l1.914.957c.718.299 1.376.778 1.974 1.316.598.598.957 1.436.897 2.333a6.532 6.532 0 01-.359 1.555 5.643 5.643 0 01-.897 1.196 4.29 4.29 0 01-1.256.718 5.022 5.022 0 01-1.615.239 6.685 6.685 0 01-2.632-.538c-.777-.359-1.435-.897-1.974-1.495zM91.215 56.464V44.142h7.178v2.094h-4.726v2.871h4.008v2.153h-4.008v3.05h4.726v2.154h-7.178z"/>
        <path d="M19.26 14.953l.538-.538a9.13 9.13 0 011.077-1.077l.359-.299c.059-.06.059-.06.059-.119l-.418.239s-.06 0 0-.06l.299-.239h-.06c-.419 0-.778.179-1.017.478h-.119c-.479.18-.838.598-1.316.778l-.598.239c-.24.06-.539.06-.778 0l-1.196.239-.598.24h-.06l-.239.239c-.18.12-.359.239-.539.419h-.06l-.538.538h-.06c.06 0 .06-.06.12-.12 0-.06 0-.06.06-.119.06-.06.119-.18.119-.24l.539-.358c-.06 0-.06 0-.06-.06h-.12c-.06.119-.119.239-.239.239 0-.06 0-.06.06-.06l.239-.179.359-.24h.06l-.539.24h-.059s0 .06-.06 0l.179-.18h.06c1.017-.777 2.452-.598 3.649-1.017l.299-.179c.119-.06.239-.239.478-.299.239-.179.419-.479.539-.778h-.06c-.419.18-.898.299-1.376.299-.658.24-1.436.359-2.153.359h.179c0-.059.06-.119.12-.179h.119c0-.06 0-.06.06-.06h.12c-.12-.12-.299.12-.479 0-.179-.12.06-.12.12-.179h.12c0-.06 0-.06.059-.12.479-.299.957-.479 1.376-.778.419-.299-.12.12-.239.06-.12-.06 0-.119.06-.119.359-.12.717-.24 1.016-.419-.119 0-.239.12-.358 0h.179v-.12c0-.06 0-.06.06-.06h-.06l.179-.119h-.059a.54.54 0 01.418-.18c-.059-.059-.179 0-.179-.059 0-.06.06-.06.12-.06h-.12c-.06 0-.06 0-.06-.06s0-.06.06-.06c.12-.239.239-.538.299-.777h-.06a3.415 3.415 0 01-1.316.658h-.179a.585.585 0 01-.538-.06l-.3-.24-.837-.418c-.777-.299-1.615-.539-2.452-.598.359-.12.777-.24 1.136-.299.539-.24 1.077-.299 1.615-.299-.119-.06-.239 0-.299 0a5.09 5.09 0 00-1.376.179l-.957.239c-.179.06-.299.299-.478.239v-.119c.299-.419.718-.718 1.196-.778.538-.06 1.137-.06 1.675.06l1.256.239c.12 0 .179.24.299.299.12.06.359 0 .598.12s-.06-.12 0-.179c.06-.06.239 0 .419-.06.179-.06-.239-.419-.359-.658.239.239.478.419.778.598.179.12.538.179.478 0-.179-.359-.419-.658-.718-.957v-.12h-.119v-.299c-.12-.06-.06-.179-.18-.239-.119-.06 0-.419-.06-.598-.059-.18-.119-.359-.119-.538-.12-.539-.239-1.017-.299-1.556-.06-.598.359-1.076.658-1.615.179-.418.478-.777.897-1.016.12-.359.299-.718.598-1.017.239-.299.598-.538.957-.658L22.011 0h6.4l.12.12.478.239c.24.12.419.299.598.478.06.12.18.299.12.419s-.12.419-.239.479c-.239.119-.479.119-.718.119l-.359-.119c.479.179.957.478 1.256.897l.299.119c-.059.06-.119.12-.059.18h.059c.18-.06.12-.359.359-.239.18.059.239.239.18.358 0 .06-.06.06-.06.12l-.359.299c-.06.06-.06.18 0 .239l.179.359.18.718c.179.479.239.957.239 1.436 0 .239-.12.478-.06.717l.359.718c.18.12.299.299.359.479.179.299.538.658.419 1.016-.12.359-.479.18-.718.359-.239.18 0 .419.12.539.119.119-.24.478-.419.598-.18.119.179.06.179.119 0 .06.24.24.12.419s-.538.299-.299.598c.239.299 0 .479-.06.658-.12.239-.299.419-.598.479-.179.119-.419.119-.598.059h-.18c-.538-.119-1.076-.179-1.615-.239l-.478.12-.359.359h-.179l-.24.359c0 .059 0 .059-.059.059l-.24.599c-.179.717-.119 1.375.06 1.495.18.119 1.077.359 1.735.718l.777.358H15.551a13.888 13.888 0 012.094-1.076c.598-.239 1.136-.538 1.615-.957m-4.905-2.273c-.06 0-.179.06-.179 0s.239-.18.418-.239c.18-.06.12-.12.18-.06l.239.119c-.179.18-.419.12-.658.18m-4.905-.718c.359-.478.718-1.017 1.017-1.615.359-.239.718-.478 1.077-.777.478-.598 1.136-1.077 1.794-1.436.299-.06.598-.06.838.06-.12.12-.299.12-.419.179h-.06v-.119c-.299.359-.777.538-1.017.957-.239.418-.299.718-.717.777-.419.06 0-.059-.06-.059-.897.657-1.735 1.375-2.453 2.213m2.632-2.094c0 .06-.06.06-.06.12s-.059.119-.119.119h-.06c0-.119.12-.299.239-.239m1.496 4.725c0 .06-.06.06-.06.12s.06 0 .06.06l-.24.119c-.059 0-.059 0-.059.06h-.12c-.06.06-.239.06-.18 0l.24-.239c.06-.06.119-.06.119-.12h.24m-.539-.239l-.418.239-.419.18h-.06l-.299.239h-.179c0 .06 0 .06-.06.06h-.06c0 .06 0 .06-.06.06h-.06c-.06.06-.119.06-.119.119l-.18.18h-.179l.119-.12h.12c0-.06.06-.119.12-.119 0-.06 0-.06.059-.06.06-.06.06-.06.06-.12.06-.06.12-.12.12-.179l-.12.119c-.06 0-.06 0-.06-.06.06 0 .06 0 .06-.059h.06l.12-.18h.119v-.119c.359-.299.838-.24 1.256-.479.419-.239.359.06.479 0h.299l-.778.538m.658-2.213c-.059-.06.06 0 .12-.119h-.239l-.539.179-.658.239c-.299.18-.657.359-1.016.539-.06 0-.06 0-.06-.06l.239-.18a4.01 4.01 0 01.897-.837v-.12l.359-.358c.06-.12.18-.24.299-.3h-.119c-.12 0-.24.06-.359-.059l.179-.12h-.06c-.059-.12.06-.179.18-.179l.359-.12c-.24-.06-.479.06-.718-.06.12-.419.419-.777.837-.957h.06c0 .18-.06.299-.239.299l.777.239c0 .06 0 .06-.059.06-.06 0-.06 0-.06-.06.119.12.359.06.478.18.12.12-.179 0-.239 0 .957.299 2.034.478 2.871 1.136-.718.24-1.435.299-2.213.299h-.299c-.12 0-.239 0-.299.12h-.419" fill="#fff"/>
        <path d="M19.26 14.953l.538-.538a9.13 9.13 0 011.077-1.077l.359-.299c.059-.06.059-.06.059-.119l-.418.239s-.06 0 0-.06l.299-.239h-.06c-.419 0-.778.179-1.017.478h-.119c-.479.18-.838.598-1.316.778l-.598.239c-.24.06-.539.06-.778 0l-1.196.239-.598.24h-.06l-.239.239-.539.419c-.06 0-.06 0-.06.059l-.538.479h-.06c.06 0 .06-.06.12-.12 0-.06 0-.06.06-.119.06-.06.119-.18.119-.24l.539-.358c-.06 0-.06 0-.06-.06h-.12c-.06.119-.119.239-.239.239 0-.06 0-.06.06-.06l.239-.179.359-.24h.06l-.539.24h-.059s0 .06-.06 0l.179-.18h.06c1.017-.777 2.452-.598 3.649-1.017l.299-.179c.119-.06.239-.239.478-.299.239-.179.419-.479.539-.778h-.06c-.419.18-.898.299-1.376.299-.658.24-1.436.359-2.153.359h.179c0-.059.06-.119.12-.179h.119c0-.06 0-.06.06-.06h.12c-.12-.12-.299.12-.479 0-.179-.12.06-.12.12-.179h.12c0-.06 0-.06.059-.12.479-.299.957-.479 1.376-.778.419-.299-.12.12-.239.06-.12-.06 0-.119.06-.119.359-.12.717-.24 1.016-.419-.119 0-.239.12-.358 0h.179v-.12c0-.06 0-.06.06-.06h-.06l.179-.119h-.059a.54.54 0 01.418-.18c-.059-.059-.179 0-.179-.059 0-.06.06-.06.12-.06h-.12c-.06 0-.06 0-.06-.06s0-.06.06-.06c.12-.239.239-.538.299-.777h-.06a3.415 3.415 0 01-1.316.658h-.179a.585.585 0 01-.538-.06l-.3-.24-.837-.418c-.777-.299-1.615-.539-2.452-.598.359-.12.777-.24 1.136-.299.539-.24 1.077-.299 1.615-.299-.119-.06-.239 0-.299 0a5.09 5.09 0 00-1.376.179l-.957.239c-.179.06-.299.299-.478.239v-.119c.299-.419.718-.718 1.196-.778.538-.06 1.137-.06 1.675.06l1.256.239c.12 0 .179.24.299.299.12.06.359 0 .598.12s-.06-.12 0-.179c.06-.06.239 0 .419-.06.179-.06-.239-.419-.359-.658.299.179.478.478.778.598.299.12.538.179.478 0-.179-.359-.419-.658-.718-.957v-.12h-.119v-.299c-.12-.06-.06-.179-.12-.239s-.06-.419-.12-.598c-.059-.18-.119-.359-.119-.538-.12-.539-.239-1.017-.299-1.556-.06-.598.359-1.076.658-1.615.179-.418.478-.777.897-1.016.12-.359.299-.718.598-1.017.239-.299.598-.538.957-.658L22.011 0H0v16.987h15.551a13.802 13.802 0 012.094-1.077c.598-.239 1.136-.538 1.615-.957m-4.905-2.273c-.06 0-.179.06-.179 0 0-.059.239-.179.418-.239.18-.06.12-.12.18-.06l.239.12c-.179.179-.419.12-.658.179m-4.905-.717c.359-.479.718-1.017 1.017-1.615.419-.24.778-.598 1.077-.957.478-.598 1.136-1.077 1.794-1.436.299-.06.598-.06.838.06-.12.12-.299.12-.419.179h-.06v-.119c-.299.359-.777.538-1.017.957-.239.418-.299.718-.717.777-.419.06 0-.059-.06-.059-.897.657-1.735 1.375-2.453 2.213m2.632-2.094c0 .06-.06.06-.06.12s-.059.119-.119.119h-.06c0-.119.12-.299.239-.239m1.496 4.725c0 .06-.06.06-.06.12s.06 0 .06.06l-.24.119h-.179c-.06.06-.239.06-.18 0l.24-.239c.06-.06.119-.06.119-.119.06 0 .06 0 .06-.06h.18m-.539-.239l-.418.239-.419.179h-.06l-.299.239h-.179c0 .06 0 .06-.06.06h-.06c0 .06 0 .06-.06.06h-.06c-.06.06-.119.06-.119.12l-.18.179h-.179l.119-.119h.12c0-.06.06-.12.12-.12 0-.06 0-.06.059-.06.06-.06.06-.06.06-.12.06-.059.12-.119.12-.179l-.12.12c-.06 0-.06 0-.06-.06.06 0 .06 0 .06-.06h.06l.12-.179h.119v-.12c.359-.299.838-.239 1.256-.479.419-.239.359.06.479 0h.299l-.778.539m.658-2.213c-.059-.06.06 0 .12-.12h-.239l-.539.179-.658.24c-.299.179-.657.359-1.016.538-.06 0-.06 0-.06-.06l.239-.179c.239-.299.538-.598.897-.838v-.119l.359-.359c.06-.12.18-.239.299-.299h-.119c-.12 0-.24.06-.359-.06l.179-.12h-.06c-.059-.119.06-.179.18-.179l.359-.12c-.24-.059-.479.06-.718-.059a1.48 1.48 0 01.837-.957h.06c0 .179-.06.299-.239.299l.777.239c0 .06 0 .06-.059.06-.06 0-.06 0-.06-.06.119.119.359.06.478.179.12.12-.179 0-.239 0 .957.299 2.034.479 2.871 1.137-.718.239-1.435.418-2.213.418h-.299c-.12 0-.239 0-.299.12h-.419" fill="#000091"/>
        <path d="M46.594 0H28.411l.12.12.478.239c.24.12.419.299.598.478.06.12.18.299.12.419s-.12.419-.239.479c-.239.119-.479.119-.718.119l-.359-.119c.479.179.957.478 1.256.897l.299.119c-.059.06-.119.12-.059.18h.059c.18-.06.12-.359.359-.239.18.059.239.239.18.358 0 .06-.06.06-.06.12l-.359.299c-.06.06-.06.18 0 .239l.179.359.18.718c.179.479.239.957.239 1.436 0 .239-.12.478 0 .717.06.24.18.479.299.718.18.12.299.299.359.479.239.299.538.658.419 1.016-.12.359-.479.18-.718.359-.239.18 0 .419.12.539.119.119-.24.478-.419.598-.18.119.179.06.179.119 0 .06.24.24.12.419s-.538.299-.299.598c.239.299 0 .479-.06.658-.12.239-.299.419-.598.479-.179.119-.419.119-.598.059h-.18c-.538-.119-1.076-.179-1.615-.239l-.478.12-.359.359h-.179l-.24.359c0 .059 0 .059-.059.059l-.24.599c-.179.717-.119 1.375.06 1.495.18.119 1.077.359 1.735.718l.777.358h17.884V0z" fill="#e1000f"/>
        <path d="M29.488 6.221h.299c-.06.299-.419.358-.658.598h-.06c-.119.06-.06.239-.179.239h-.299a.544.544 0 00.478.239l.12.12h.119v.179c-.119.12-.239.06-.358.12h.717c.18-.12 0-.419.12-.598.12-.18 0-.06-.06-.06s.12-.179.18-.179c.059 0 .179-.06.179-.12s-.12-.12-.06-.18c.06-.059.359-.299.299-.478-.06-.18-.299-.12-.478-.18-.18-.059-.359 0-.539.06l-.478.12-.598.299c.239-.12.478-.179.718-.179a.827.827 0 01.538 0" fill="#9c9b9b"/>
    </g>
</svg>
